<?xml version="1.0" standalone="no"?>
<!DOCTYPE svg PUBLIC "-//W3C//DTD SVG 1.1//EN" "http://www.w3.org/Graphics/SVG/1.1/DTD/svg11.dtd">
<svg xmlns="http://www.w3.org/2000/svg"><metadata>This SVG WebFont was generated by YouWorkForThem.
Copyright Â© 2015 by Connary Fagen. All rights reserved.</metadata><defs><font horiz-adv-x="1204" id="ywftsvg"><font-face ascent="1638" bbox="-515.446 -645.125 1989 1853" cap-height="1272" descent="-410" font-family="" font-stretch="normal" font-weight="700" panose-1="0 0 8 0 0 0 0 0 0 0" underline-position="0" underline-thickness="0" unicode-range="U+0020-FB02" units-per-em="2048" x-height="922"/><missing-glyph d="M864 1638v-2109h-667v2109h667zM702 1497h-348v-70h138v-77h-140v-70h350v70h-139v77h139v70zM563 1225h-211v-219h350v71h-139v148zM492 1153v-76h-70v76h70zM702 948h-350v-69h140v-78h-140v-70h211v148h139v69zM702 821h-69v-139h-281v-72h350v211zM702 565h-210v-119 h71v50h70v-101h-211v170h-70v-239h350v239zM702 201h-350v-240h350v240zM633 131v-100h-211v100h211zM702 -88h-350v-70h148l-148 -98v-70h350v70h-215l148 98h67v70z" horiz-adv-x="1054"/><glyph d="M395 995v-59h246q-27 -82 -43 -103.5t-47 -21.5h-156v-672q0 -35 19.5 -46t87.5 -11v-82h-424v82q66 0 85 11t19 46v672h-96q-20 0 -20 20v105h116v35q0 184 110.5 289.5t340.5 105.5q203 0 331 -70.5t128 -173.5q0 -45 -33 -74.5t-82 -29.5q-51 0 -86 28.5t-35 75.5 q0 143 -223 144q-74 0 -123 -22.5t-72.5 -64.5t-33 -85.5t-9.5 -98.5zM1108 141q0 -57 88 -57v-84h-391v84q90 0 90 57v611q0 35 -13.5 49t-43.5 14h-41v94l245 19q66 6 66 -64v-723z" glyph-name="uniFB01" horiz-adv-x="1267" unicode="fi"/><glyph d="M1110 215q0 -57 28.5 -80.5t106.5 -7.5l-35 -96q-72 -31 -155 -31q-76 0 -117 43t-41 115v876q0 88 -94 160t-213 72q-195 0 -195 -271v-59h287q-27 -82 -43 -103.5t-47 -21.5h-197v-672q0 -35 19.5 -46t87.5 -11v-82h-424v82q59 0 81.5 11t22.5 46v672h-96q-20 0 -20 20 v105h116v35q0 178 100.5 286.5t307.5 108.5q172 0 332 -41l129 18q16 2 27.5 0t17.5 -10t10 -16t5 -24.5t1 -29t-1 -35t-1 -36.5v-977z" glyph-name="uniFB02" horiz-adv-x="1316" unicode="fl"/><glyph d="M1567 1225q23 -33 13.5 -74t-46.5 -59q-43 -18 -75 -7t-48 39q-20 45 -35.5 69t-46.5 47.5t-69 23.5q-147 0 -148 -260v-68h297q-33 -90 -43 -107.5t-39 -17.5h-215v-672q0 -35 19.5 -46t87.5 -11v-82h-414v82q57 0 75.5 11t18.5 46v672h-86q-20 0 -20 20v105h106v45v6 q0 117 -70.5 202t-197.5 85q-125 0 -180.5 -83t-55.5 -196v-59h279q-29 -84 -44.5 -104.5t-47.5 -20.5h-187v-672q0 -35 19.5 -46t87.5 -11v-82h-424v82q66 0 85 11t19 46v672h-96q-20 0 -20 20v105h116v35q0 176 117 290.5t332 114.5q201 0 354 -116q88 106 254 106 q234 0 328 -141z" glyph-name="f_f.liga" horiz-adv-x="1540" unicode="ff"/><glyph d="M864 1638v-2109h-667v2109h667zM702 1497h-348v-70h138v-77h-140v-70h350v70h-139v77h139v70zM563 1225h-211v-219h350v71h-139v148zM492 1153v-76h-70v76h70zM702 948h-350v-69h140v-78h-140v-70h211v148h139v69zM702 821h-69v-139h-281v-72h350v211zM702 565h-210v-119 h71v50h70v-101h-211v170h-70v-239h350v239zM702 201h-350v-240h350v240zM633 131v-100h-211v100h211zM702 -88h-350v-70h148l-148 -98v-70h350v70h-215l148 98h67v70z" glyph-name=".notdef" horiz-adv-x="1054"/><glyph glyph-name="glyph1" horiz-adv-x="0"/><glyph glyph-name="glyph2" horiz-adv-x="681"/><glyph glyph-name="space" horiz-adv-x="450" unicode=" "/><glyph d="M188 399q-4 174 -50 435.5t-46 347.5q0 70 40 112.5t99.5 42.5t99.5 -43t40 -112q0 -86 -46 -347.5t-51 -435.5h-86zM241.5 -20q-53.5 0 -91 38.5t-37.5 92t37.5 91.5t91 38t91.5 -38t38 -91.5t-38 -92t-91.5 -38.5z" glyph-name="exclam" horiz-adv-x="462" unicode="!"/><glyph d="M117 936l-41 295q-8 57 18.5 89t77.5 32t77.5 -32t18.5 -89l-43 -295q-10 -47 -53 -47q-45 0 -55 47zM414 936l-43 295q-8 57 18.5 89t79.5 32q51 0 77.5 -32t18.5 -89l-43 -295q-10 -47 -53 -47q-45 0 -55 47z" glyph-name="quotedbl" horiz-adv-x="638" unicode="&quot;"/><glyph d="M1116 954q31 0 29 -30l-8 -84q-2 -31 -33 -31h-195l-82 -324h205q33 0 29 -30l-8 -84q-4 -31 -33 -31h-229l-101 -401h-160l105 401h-211l-102 -401h-160l104 401h-166q-31 0 -28 31l8 84q2 31 33 30h192l82 324h-203q-33 0 -28 31l8 84q4 31 33 30h229l109 422h149 l-106 -422h215l108 422h150l-105 -422h170zM672 485l84 324h-215l-80 -324h211z" glyph-name="numbersign" horiz-adv-x="1206" unicode="#"/><glyph d="M1094 375q14 -125 -57.5 -219.5t-176 -137.5t-223.5 -49v-94h-115v100q-51 6 -106.5 24.5t-85 30t-74.5 17.5t-78 -8l-106 321l90 33q45 14 67 -26q43 -80 45 -84q80 -160 248 -189v434q-57 18 -99 34t-101.5 48.5t-98.5 68.5t-71.5 94t-42.5 126q-20 158 94 275.5 t319 128.5v108h115v-111q113 -12 223.5 -72.5t149.5 -68.5l26 -260l-96 -16q-41 -6 -49 24l-23 82q-16 68 -80.5 123t-150.5 76v-436q63 -18 102 -30.5t111 -46.5t116 -70t82 -97t46 -133zM322 967q8 -68 58 -108t142 -71v406q-109 -12 -159.5 -76.5t-40.5 -150.5zM637 88 q104 8 166.5 59.5t54.5 147.5q-6 76 -63.5 120t-157.5 79v-406z" glyph-name="dollar" horiz-adv-x="1155" unicode="$"/><glyph d="M1092 1303h137l-885 -1313h-199l885 1229q-203 -168 -350 -113q0 -37 -6 -70q-23 -119 -113 -200.5t-217 -81.5q-121 0 -179.5 86t-35.5 196q25 111 116 196t220 85q74 0 125 -39q55 -25 89 -36t102.5 -22.5t146.5 10.5t164 73zM518 1036q18 66 1 129.5t-77 63.5 q-63 0 -105 -58.5t-58 -134.5q-35 -193 83 -192q61 0 101.5 57t54.5 135zM1073 541q117 0 174.5 -88t34.5 -193q-23 -119 -114 -201t-218 -82q-121 0 -178 86.5t-37 196.5q25 109 117 195t221 86zM1124 260q18 63 2 128t-75 65q-63 0 -105.5 -58.5t-58.5 -134.5 q-35 -193 84 -192q61 0 101 57t52 135z" glyph-name="percent" horiz-adv-x="1431" unicode="%"/><glyph d="M590 643l-47 6q-74 12 -143.5 -63.5t-69.5 -192.5q0 -150 102.5 -231.5t251.5 -81.5q160 0 269.5 91t109.5 212q0 76 -36 125t-89 49q-66 0 -94.5 -48t10.5 -93h-94q-45 41 -45 104q0 41 31.5 71t105.5 79l262 166q90 55 131 99t41 112q0 74 -46 107.5t-114 19.5l-30 -7 q-27 -6 -35 29t16 45q68 23 117 31q115 14 211 -50.5t96 -187.5q0 -49 -27.5 -97t-69.5 -86t-102.5 -77t-112.5 -67.5t-116 -61.5q-18 -10 -29 -14q236 -57 240 -262q2 -172 -177 -286t-425 -114q-248 0 -419 121t-171 324q0 154 104.5 242.5t229.5 80.5q-98 29 -156.5 98.5 t-58.5 163.5q0 121 103.5 213.5t285.5 92.5q113 0 206 -49.5t124 -143.5q14 -45 -9.5 -83t-68.5 -38q-39 0 -68.5 24.5t-31.5 61.5q-8 125 -146 125q-78 0 -124 -57.5t-46 -140.5q0 -92 44 -162t134 -99z" glyph-name="ampersand" horiz-adv-x="1581" unicode="&amp;"/><glyph d="M117 936l-41 295q-8 57 18.5 89t77.5 32t77.5 -32t18.5 -89l-43 -295q-10 -47 -53 -47q-45 0 -55 47z" glyph-name="quotesingle" horiz-adv-x="342" unicode="'"/><glyph d="M313 606q-2 -276 76 -517t215 -392q33 -37 -10 -37h-43q-23 0 -39 14q-199 158 -309.5 401.5t-110.5 530.5t110.5 530.5t309.5 401.5q16 14 39 14h39q20 0 27.5 -8t-3.5 -18q-141 -152 -222 -395.5t-79 -524.5z" glyph-name="parenleft" horiz-adv-x="671" unicode="("/><glyph d="M358 606q2 283 -78.5 525.5t-222.5 394.5q-10 10 -3 18t28 8h39q23 0 39 -14q201 -158 310.5 -401.5t109.5 -530.5t-110 -530.5t-310 -401.5q-16 -14 -39 -14h-43q-41 0 -10 37q137 152 214.5 392.5t75.5 516.5z" glyph-name="parenright" horiz-adv-x="671" unicode=")"/><glyph d="M303 1065l-61 160q8 70 82 80q74 -10 82 -80l-64 -160q-4 -12 -11 -17.5t-15.5 0t-12.5 17.5zM272 1040q14 -14 2 -28.5t-34 -10.5l-164 37q-55 41 -27 111q45 57 111 29zM377 1040l112 138q63 27 111 -29q29 -68 -27 -111l-163 -37q-23 -4 -35 10.5t2 28.5zM242 969 q20 4 31.5 -10.5t-3.5 -28.5l-110 -137q-66 -29 -111 28q-29 70 27 113zM408 969l165 -35q53 -45 27 -113q-47 -55 -111 -28l-110 137q-14 14 -2.5 28.5t31.5 10.5zM303 909q8 20 20.5 20.5t20.5 -20.5l62 -159q-8 -70 -82 -80q-74 10 -82 80z" glyph-name="asterisk" horiz-adv-x="649" unicode="*"/><glyph d="M901 586v-142h-307v-311h-141v311h-310v142h310v307h141v-307h307z" glyph-name="plus" horiz-adv-x="1044" unicode="+"/><glyph d="M344 -70q-31 -102 -113 -174q-23 -14 -41 4l-36 41q63 72 75 103q18 53 11 82q-25 -6 -58 -4q-45 6 -75.5 48t-22.5 91q6 55 48 89t95 28q51 -6 84 -43t41 -86q17 -93 -8 -179z" glyph-name="comma" horiz-adv-x="442" unicode=","/><glyph d="M102 578h553v-129h-553v129z" glyph-name="hyphen" horiz-adv-x="757" unicode="-"/><glyph d="M211 -20q-53 0 -91 38.5t-38 92t39 91.5t90 38t90 -38t39 -91.5t-38 -92t-91 -38.5z" glyph-name="period" horiz-adv-x="421" unicode="."/><glyph d="M639 1313h162l-547 -1313h-162z" glyph-name="slash" horiz-adv-x="892" unicode="/"/><glyph d="M1143 641q0 -176 -59.5 -324.5t-183.5 -245t-292 -96.5t-291.5 96.5t-184 245t-60.5 324.5q0 174 59 322.5t184 244t293 95.5q248 0 391.5 -195t143.5 -467zM608 96q154 0 221.5 140.5t67.5 404.5q0 543 -289 543q-293 0 -293 -543q0 -264 67.5 -404.5t225.5 -140.5z" glyph-name="zero" horiz-adv-x="1214" unicode="0"/><glyph d="M461 166q0 -10 5 -18.5t16.5 -14.5t20.5 -10t27.5 -8t27.5 -6.5t30.5 -6.5t25.5 -4v-98h-522v98q121 20 144 43q10 10 10 25v825q0 37 -15.5 54.5t-44.5 9.5l-104 -29v119l303 135q35 14 55.5 3t20.5 -36v-1081z" glyph-name="one" horiz-adv-x="686" unicode="1"/><glyph d="M1116 283l-47 -236q-12 -47 -61 -47h-926q23 125 74 231.5t124.5 186.5t137 132t145.5 105q18 12 67.5 43t66 42.5t48 38t44 47t22.5 51t10 67.5q0 115 -66.5 178.5t-166.5 63.5q-209 0 -242 -150q-16 -70 -2 -132t12 -77q-37 -84 -129 -84q-51 0 -87 33t-36 76 q0 211 126 332t358 121q219 0 343 -98.5t124 -272.5q0 -53 -11.5 -99.5t-39 -85t-51 -67.5t-69.5 -61.5t-72 -49t-81 -48t-74 -44.5q-29 -18 -99.5 -60t-89.5 -56.5t-60 -46t-62.5 -62.5t-42.5 -72l539 -4q70 0 102.5 10.5t59.5 49.5l32 45h80z" glyph-name="two" horiz-adv-x="1198" unicode="2"/><glyph d="M813 760q106 8 210.5 -82t104.5 -256q0 -182 -159.5 -314.5t-364.5 -132.5q-233 0 -366.5 97.5t-143.5 259.5q-10 127 105 127q51 0 76.5 -17.5t30.5 -40t12.5 -67.5t19.5 -78q59 -164 272 -164q125 0 205 79t80 212q0 125 -63.5 191.5t-157.5 66.5q-41 0 -78 -12 l-82 -29l-39 100l88 35q121 49 179.5 108.5t58.5 149.5t-52.5 144.5t-156.5 54.5q-98 0 -147.5 -44t-57.5 -108q-4 -33 -4 -61.5t-4 -48.5q-35 -39 -86 -42t-90 26.5t-39 76.5q0 119 115.5 216.5t312.5 97.5q195 0 311.5 -93.5t116.5 -205.5q0 -94 -62.5 -160t-144.5 -86z " glyph-name="three" horiz-adv-x="1210" unicode="3"/><glyph d="M1057 401h-176v-233q0 -16 10 -28.5t35.5 -19.5t38 -10.5t47.5 -9.5v-100h-486v100q35 6 48.5 9.5t39 10.5t35.5 19.5t10 28.5v233h-577v103l645 790q37 45 95.5 28t58.5 -75v-729h176v-117zM242 518h417v504z" glyph-name="four" horiz-adv-x="1148" unicode="4"/><glyph d="M1108 420q0 -195 -150.5 -320t-373.5 -125q-225 0 -357.5 97.5t-142.5 261.5q-10 123 104 123q51 0 78 -17.5t31 -39t11 -67.5t20 -79q61 -162 256 -162q121 0 200.5 74t79.5 217q0 160 -91 257t-228 97q-84 0 -163 -27.5t-124 -68.5h-100l47 631h704l35 26l53 2 l-20 -196l-35 -31h-635l-24 -301q139 104 335 105q82 0 164 -27t157 -80t122 -144t47 -206z" glyph-name="five" horiz-adv-x="1200" unicode="5"/><glyph d="M868 1151q-10 -18 -37 -6q-96 39 -196 39q-90 0 -152.5 -40t-96.5 -117t-50.5 -156.5t-24.5 -190.5q35 43 116 87t181 44q182 0 312.5 -112.5t130.5 -297.5q0 -172 -132.5 -299t-338.5 -127q-170 0 -286 87.5t-165 221.5t-47 306q2 184 60.5 343t184.5 264.5t298 105.5 q164 0 266 -76q18 -14 4 -37zM315 551q-10 -207 62 -331t203 -124q135 0 192 88t57 224q0 125 -63.5 203.5t-167.5 78.5q-109 0 -195 -52t-88 -87z" glyph-name="six" horiz-adv-x="1132" unicode="6"/><glyph d="M813 1067h-629l-43 -92h-80l58 250q10 47 57 47h860l-645 -1282h-65q-29 0 -44.5 21.5t-0.5 47.5z" glyph-name="seven" horiz-adv-x="1087" unicode="7"/><glyph d="M778 713q145 -37 232.5 -129t87.5 -238q0 -152 -147.5 -263.5t-364.5 -111.5q-227 0 -365.5 112t-138.5 277q0 117 78 208t211 139q-219 84 -219 268q0 131 120.5 221t315.5 90q182 0 299 -89t117 -226q0 -84 -65 -157.5t-161 -100.5zM547 776l104 -24q76 -16 132.5 62.5 t56.5 160.5q0 33 -9.5 63.5t-35 65.5t-79.5 55.5t-132 20.5q-209 0 -209 -205q0 -158 172 -199zM858 352q0 98 -54 157.5t-196 92.5l-157 37q-68 14 -126.5 -72t-58.5 -192q0 -123 79 -202t239 -79q274 0 274 258z" glyph-name="eight" horiz-adv-x="1179" unicode="8"/><glyph d="M276 133q10 18 37 6q94 -39 197 -39q90 0 152.5 40t96.5 117t50 157t25 190q-35 -43 -116 -87t-181 -44q-184 0 -313.5 112.5t-129.5 297.5q0 172 132 299t339 127q250 0 375 -174t123 -441q-2 -184 -60.5 -342.5t-184.5 -264t-298 -105.5q-166 0 -268 75q-18 14 -4 37z M829 735q10 207 -61.5 330t-202.5 123q-135 0 -192.5 -88t-57.5 -223q0 -125 63.5 -203t168.5 -78q109 0 194.5 52t87.5 87z" glyph-name="nine" horiz-adv-x="1132" unicode="9"/><glyph d="M211 645q-53 0 -91 38t-38 93q0 51 38 89t91 38t91 -38t38 -89q0 -55 -38 -93t-91 -38zM211 -20q-53 0 -91 38.5t-38 92t39 91.5t90 38t90 -38t39 -91.5t-38 -92t-91 -38.5z" glyph-name="colon" horiz-adv-x="401" unicode=":"/><glyph d="M211 643q-53 0 -91 38t-38 93q0 51 38 89t91 38t91 -38t38 -89q0 -55 -38 -93t-91 -38zM344 -70q-31 -102 -113 -174q-23 -14 -41 4l-36 41q63 72 75 103q18 53 11 82q-25 -6 -58 -4q-45 6 -75.5 48t-22.5 91q6 55 48 89t95 28q51 -6 84 -43t41 -86q17 -93 -8 -179z" glyph-name="semicolon" horiz-adv-x="423" unicode=";"/><glyph d="M143 584q406 156 764 350v-162q-297 -158 -610 -258q330 -109 610 -260v-162q-358 195 -764 350v142z" glyph-name="less" horiz-adv-x="1050" unicode="&lt;"/><glyph d="M143 770h758v-141h-758v141zM143 401h758v-141h-758v141z" glyph-name="equal" horiz-adv-x="1044" unicode="="/><glyph d="M907 584v-142q-406 -156 -764 -350v162q281 152 611 260q-313 100 -611 258v162q358 -194 764 -350z" glyph-name="greater" horiz-adv-x="1050" unicode=">"/><glyph d="M92 1001q0 150 118 248.5t310 98.5q119 0 217.5 -57.5t144.5 -140.5t29.5 -184.5t-106.5 -183.5q-51 -45 -113.5 -88t-91.5 -64.5t-31 -41.5l-20 -164h-98l-25 164q-16 131 96 223q119 94 152 146.5t33 124t-50.5 118.5t-134.5 47q-143 0 -198 -106q-18 -35 18.5 -141.5 t-14.5 -143.5q-45 -35 -97.5 -37t-95.5 48t-43 134zM473 -20q-53 0 -91 38.5t-38 92t39 91.5t90 38t90 -38t39 -91.5t-38 -92t-91 -38.5z" glyph-name="question" horiz-adv-x="1007" unicode="?"/><glyph d="M997 -133q-115 -37 -241 -37q-281 0 -472.5 194.5t-191.5 485.5q0 289 192.5 483.5t471.5 194.5q283 0 471 -187.5t188 -484.5q0 -160 -55 -249t-213 -122q-176 -37 -234 78q-31 -43 -93 -72.5t-138 -29.5q-109 0 -185.5 50t-76.5 142q0 102 100.5 172t372.5 109v18 q0 41 -5 72t-18.5 62.5t-43 47t-74.5 13.5q-27 0 -74 -12q-14 -4 -20.5 -21.5t-7.5 -48.5t-5 -45q-8 -25 -43 -41t-78 -10q-86 20 -63 114q14 55 92 96.5t174 49.5q168 14 257 -57.5t89 -217.5v-327q0 -76 62 -60q96 20 94 273v14q0 260 -125 418t-348 158q-221 0 -347 -164 t-126 -418q0 -250 130 -416t343 -166q45 0 114 13q80 16 103 -29zM715 215q100 0 178 123v180q-174 -31 -228.5 -81t-54.5 -122q1 -100 105 -100z" glyph-name="at" horiz-adv-x="1507" unicode="@"/><glyph d="M1221 262q45 -102 75.5 -129t106.5 -43v-90h-479v90q82 14 97 29.5t-3 52.5l-117 270h-467l-106 -260q-14 -35 12.5 -55.5t103.5 -36.5v-90h-403v90q78 18 101.5 35.5t52.5 85.5l452 1077l80 -22q55 -18 74 -64zM477 549h379l-194 448z" glyph-name="A" horiz-adv-x="1443" unicode="A"/><glyph d="M895 688q172 -27 261 -114t89 -212q0 -180 -137 -274t-379 -88l-180 4q-281 18 -488 -4v102q133 29 134 99v884q0 70 -132 91v96h599q514 0 514 -301q0 -92 -70 -171t-211 -112zM432 1165v-430h365q49 0 88 62.5t39 167.5q0 201 -246 200h-246zM698 117q154 0 224.5 52 t70.5 193.5t-104.5 211t-347.5 69.5h-109v-440q0 -86 60 -86h206z" glyph-name="B" horiz-adv-x="1316" unicode="B"/><glyph d="M1108 856q-35 -10 -47 23q-4 12 -29 73q-92 236 -325 236q-172 0 -276.5 -126t-104.5 -372q0 -244 121.5 -408.5t297.5 -164.5q182 0 306 168q10 12 22 30.5t18.5 26.5t15.5 15.5t19 7.5q20 0 48 -18.5t32 -37.5q6 -25 -24 -78q-147 -252 -492 -251q-258 0 -443.5 190 t-185.5 494q0 276 172.5 458.5t421.5 182.5q231 0 371 -168q18 0 30.5 17t16.5 32.5t10 52.5q10 39 39 33l60 -10l24 -373z" glyph-name="C" horiz-adv-x="1269" unicode="C"/><glyph d="M535 1272q354 0 544.5 -150.5t190.5 -484.5q0 -158 -47 -276.5t-120 -187.5t-172.5 -109.5t-194.5 -52t-197 -5.5q-276 16 -478 -6v102q133 29 134 99v884q0 70 -132 95v92h472zM606 121q205 -12 301.5 121t96.5 395q0 256 -110 392t-321 136h-141v-958q0 -78 66 -80z " glyph-name="D" horiz-adv-x="1341" unicode="D"/><glyph d="M1153 252q-29 -57 -66 -205q-12 -47 -61 -47h-965v92q63 14 93 33.5t30 60.5v901q0 41 -29.5 60.5t-93.5 34.5v90h940q20 0 27.5 -7.5t7.5 -29.5v-221h-90l-31 67q-18 41 -55 54.5t-108 13.5h-326v-442h344q33 0 52.5 13t27.5 27.5t24 57.5h56v-313h-56q-31 74 -51 86 q-18 14 -53 14h-344v-471l428 4q57 0 83 11t54 48l53 68h109z" glyph-name="E" unicode="E"/><glyph d="M1083 1014h-92l-33 67q-20 39 -57 53.5t-106 14.5h-369v-442h342q33 0 52.5 13t27.5 27.5t24 57.5h56v-313h-56q-31 74 -51 86q-18 14 -53 14h-342v-412q0 -41 29.5 -60.5t93.5 -33.5v-86h-488v86q63 14 93 33.5t30 60.5v907q0 41 -29.5 60.5t-93.5 34.5v90h891 q80 0 97 -86z" glyph-name="F" horiz-adv-x="1144" unicode="F"/><glyph d="M829 604q238 -14 506 2v-106h-63q-66 0 -66 -66v-424q0 -20 -35.5 -24t-40.5 14l-49 160q-90 -86 -180 -133t-219 -47q-279 0 -450 183t-171 501q0 276 172.5 458.5t421.5 182.5q231 0 371 -168q18 0 30.5 17t16.5 32.5t10 52.5q10 39 39 33l60 -10l24 -373l-98 -33 q-35 -10 -47 23q-4 12 -29 73q-92 236 -325 236q-172 0 -276.5 -126t-104.5 -372q0 -272 107.5 -422.5t299.5 -150.5q100 0 177 44t77 105v168q0 66 -65 66h-93v104z" glyph-name="G" horiz-adv-x="1396" unicode="G"/><glyph d="M1337 1182q-63 -14 -93 -34t-30 -61v-907q0 -41 30 -60.5t93 -33.5v-86h-485v86q63 14 93 33.5t30 60.5v406h-551v-406q0 -41 29.5 -60.5t93.5 -33.5v-86h-486v86q63 14 93 33.5t30 60.5v907q0 41 -29.5 60.5t-93.5 34.5v90h486v-90q-63 -14 -93 -34t-30 -61v-385h551 v385q0 41 -30 60.5t-93 34.5v90h485v-90z" glyph-name="H" horiz-adv-x="1398" unicode="H"/><glyph d="M424 180q0 -41 30.5 -60.5t94.5 -33.5v-86h-488v86q63 14 94 33.5t31 60.5v907q0 41 -30.5 60.5t-94.5 34.5v90h488v-90q-63 -14 -94 -34t-31 -61v-907z" glyph-name="I" horiz-adv-x="610" unicode="I"/><glyph d="M700 1272v-90q-63 -14 -92.5 -34t-29.5 -61v-1103q0 -176 -81 -252t-237 -76q-121 0 -195.5 56.5t-74.5 137.5q0 125 121 125q96 0 96 -106q0 -111 67 -111q63 0 64 109v1220q0 41 -29.5 60.5t-93.5 34.5v90h485z" glyph-name="J" horiz-adv-x="761" unicode="J"/><glyph d="M1094 244q57 -61 107 -97t74.5 -45.5t72.5 -19.5v-82h-531v82q78 23 84 33q4 10 -8 24l-408 424h-61v-383q0 -41 30.5 -60.5t94.5 -33.5v-86h-488v86q63 14 94 33.5t31 60.5v907q0 41 -30.5 60.5t-94.5 34.5v90h488v-90q-63 -14 -94 -34t-31 -61v-393h35q55 0 98 43 l369 389q27 27 4 39.5t-68 18.5v88h387v-88q-129 -14 -168 -56l-411 -430z" glyph-name="K" horiz-adv-x="1409" unicode="K"/><glyph d="M1149 260l-49 -213q-12 -47 -62 -47h-977v86q63 14 94 33.5t31 60.5v907q0 41 -30.5 60.5t-94.5 34.5v90h488v-90q-63 -14 -94 -34t-31 -61v-886q0 -37 24.5 -62.5t61.5 -23.5l332 16q53 2 76.5 5t48 17.5t39.5 41.5l32 65h111z" glyph-name="L" horiz-adv-x="1210" unicode="L"/><glyph d="M1692 1184q-119 -25 -119 -103v-899q0 -41 28.5 -62.5t90.5 -33.5v-86h-480v86q63 12 93 33.5t30 62.5v789l-420 -858q-20 -39 -60 -39t-60 39l-471 819v-750q0 -41 29.5 -61.5t90.5 -34.5v-86h-383v86q63 12 93 33.5t30 62.5v899q0 78 -123 103v88h347l499 -895l451 895 h334v-88z" glyph-name="M" horiz-adv-x="1753" unicode="M"/><glyph d="M1356 1272v-86q-127 -27 -127 -94v-1092q0 -16 -39 -16t-51 16l-822 981v-799q0 -70 127 -94v-88h-383v88q127 25 127 94v910q0 70 -127 94v86h338l682 -862v682q0 70 -125 94v86h400z" glyph-name="N" horiz-adv-x="1417" unicode="N"/><glyph d="M1309 653q0 -287 -179.5 -480t-443.5 -193q-270 0 -447.5 186t-177.5 487q0 285 178.5 468.5t446.5 183.5q264 0 443.5 -186.5t179.5 -465.5zM729 119q70 0 123 20.5t99 69.5t71 145.5t25 235.5q0 268 -112 431t-288 163q-324 0 -323 -471q0 -264 114.5 -429t290.5 -165z " glyph-name="O" horiz-adv-x="1370" unicode="O"/><glyph d="M657 1272q242 0 382.5 -104.5t140.5 -287t-147.5 -292t-401.5 -109.5h-207v-299q0 -41 30.5 -60.5t94.5 -33.5v-86h-488v86q63 14 94 33.5t31 60.5v907q0 41 -30.5 60.5t-94.5 34.5v90h596zM659 584q272 0 273 297q0 295 -246 295h-262v-592h235z" glyph-name="P" horiz-adv-x="1230" unicode="P"/><glyph d="M1251 4q51 -2 80 -31.5t27 -76.5q-2 -102 -89 -173t-204 -67q-137 4 -281 108l-274 203q-84 55 -141.5 36t-61.5 -83q0 -43 -31.5 -71.5t-74.5 -28.5q-41 2 -71 34.5t-30 75.5q2 63 46 116.5t114 82.5q-199 188 -199 510q0 285 178.5 468t446.5 183q264 0 443.5 -186 t179.5 -465q0 -266 -156 -453.5t-395 -216.5l182 -147q86 -59 144.5 -29.5t60.5 101.5q4 110 106 110zM647 1169q-324 0 -323 -471q0 -264 114.5 -429t290.5 -165q70 0 123 20.5t99 70t71 145.5t25 235q0 268 -112 431t-288 163z" glyph-name="Q" horiz-adv-x="1429" unicode="Q"/><glyph d="M1292 94v-94h-135q-133 0 -209 77t-133 253q-41 125 -97 175t-159 50h-137v-375q0 -41 29.5 -60.5t93.5 -33.5v-86h-484v86q63 14 93 33.5t30 60.5v901q0 78 -123 105v86h617q217 0 347 -97.5t130 -250.5q0 -127 -91 -216.5t-271 -109.5q229 -31 305 -254 q16 -53 25.5 -80.5t25.5 -65.5t31.5 -56.5t40 -32t53.5 -15.5h18zM676 670q123 0 175 71.5t52 182t-52 181.5t-159 71h-270v-506h254z" glyph-name="R" horiz-adv-x="1333" unicode="R"/><glyph d="M940 883q-41 -6 -49 24l-23 82q-20 84 -110 145.5t-195 61.5q-129 0 -191.5 -67.5t-49.5 -161.5q4 -35 23.5 -65t40 -47t64.5 -37.5t71.5 -30t86.5 -27.5q4 -2 48 -14.5t62.5 -18.5t64.5 -22.5t72 -32t66 -38t63.5 -48t50 -57t41 -71.5t18.5 -83q10 -100 -32 -181 t-117 -128.5t-163 -72t-178 -24.5q-106 0 -233 46t-193 24l-106 321l90 33q45 14 67 -26q43 -80 45 -84q98 -195 326 -195q119 0 193.5 51t64.5 156q-4 39 -24.5 71.5t-42 53t-71.5 42t-74.5 30t-88.5 26.5q-18 6 -27 8q-59 18 -100 33.5t-102.5 47.5t-101.5 69t-73.5 95 t-43.5 128q-20 166 105.5 286t346.5 120q115 0 198 -31t144.5 -69t106.5 -46l26 -260z" glyph-name="S" horiz-adv-x="1157" unicode="S"/><glyph d="M1110 1223l16 -199h-73l-33 68q-33 63 -96 63h-219v-975q0 -41 29.5 -60.5t94.5 -33.5v-86h-489v86q63 14 93 33.5t30 60.5v975h-219q-63 0 -97 -63l-32 -68h-74l16 199q4 49 47 49h959q43 0 47 -49z" glyph-name="T" horiz-adv-x="1167" unicode="T"/><glyph d="M1282 1272v-88q-31 -4 -48 -10.5t-30.5 -19.5t-13.5 -36v-598q0 -248 -133 -394t-359 -146q-264 0 -410.5 146t-146.5 404v588q0 33 -22.5 45.5t-67.5 20.5v88h424v-88q-31 -4 -48 -10.5t-31.5 -19.5t-14.5 -36v-526q0 -242 84 -361.5t233 -119.5q162 0 259.5 101 t97.5 331v575q0 33 -23.5 46.5t-73.5 19.5v88h324z" glyph-name="U" horiz-adv-x="1333" unicode="U"/><glyph d="M1397 1272v-92q-61 -6 -87 -28t-53 -83l-477 -1079h-57q-43 0 -66 49l-440 979q-43 98 -75.5 127t-100.5 35v92h489v-92q-70 -6 -94 -18.5t-14 -39.5l364 -815l347 795q16 35 -17 53.5t-98 24.5v92h379z" glyph-name="V" horiz-adv-x="1437" unicode="V"/><glyph d="M1583 1272h375v-92q-63 -8 -90 -31t-49 -82l-379 -1077h-60q-45 0 -65 49l-305 774l-283 -823h-59q-45 0 -66 49l-385 977q-39 98 -72.5 126.5t-103.5 37.5v92h475v-92q-59 -8 -80.5 -21.5t-13.5 -38.5l301 -803l221 660l-14 39q-39 98 -73 126.5t-103 37.5v92h475v-92 q-55 -8 -79 -22.5t-15 -37.5l301 -803l268 783q12 35 -21.5 53t-99.5 27v92z" glyph-name="W" horiz-adv-x="1998" unicode="W"/><glyph d="M1167 266q12 -14 36 -43.5t32 -39t25.5 -29t26.5 -25.5t24.5 -15.5t31 -12.5t35.5 -5v-96h-483v96q51 6 77.5 23.5t6.5 42.5l-326 395l-288 -375q-25 -35 -0.5 -57.5t86.5 -28.5v-96h-383v96q61 6 97 32t83 87l336 428l-303 369q-92 113 -121 135q-39 27 -92 33v92h485 v-92q-47 -8 -73.5 -25.5t-10.5 -38.5l291 -354l262 334q23 31 -9 53t-98 31v92h396v-92q-104 -12 -183 -117l-299 -385z" glyph-name="X" horiz-adv-x="1439" unicode="X"/><glyph d="M901 1272h379v-94q-61 -8 -95 -34t-77 -87l-338 -500v-389q0 -16 11.5 -28.5t37 -19.5t45 -10.5t56.5 -9.5v-100h-517v100q39 6 57.5 9.5t45 10.5t38 19.5t11.5 28.5v336l-334 502q-78 119 -106 141q-31 25 -84 31v94h465v-94q-47 -8 -70 -25.5t-6 -42.5l297 -448 l282 428q25 37 -3.5 58t-94.5 30v94z" glyph-name="Y" horiz-adv-x="1310" unicode="Y"/><glyph d="M1200 266l-67 -266h-1004q-41 0 -52 33t13 67l733 1055l-565 -8q-16 0 -28.5 -11.5t-15.5 -19.5t-11 -33l-21 -65h-131l55 254h1070l-797 -1157l594 10q18 0 31.5 10t19.5 20.5t14 32.5l31 78h131z" glyph-name="Z" horiz-adv-x="1261" unicode="Z"/><glyph d="M287 1432v-1649l198 -39q43 -6 43 -33v-51l-436 25v1845l436 24v-51q0 -25 -43 -33z" glyph-name="bracketleft" horiz-adv-x="579" unicode="["/><glyph d="M258 1313l547 -1313h-162l-547 1313h162z" glyph-name="backslash" horiz-adv-x="892" unicode="\"/><glyph d="M293 1432l-199 38q-43 8 -43 33v51l436 -24v-1845l-436 -25v51q0 27 43 33l199 39v1649z" glyph-name="bracketright" horiz-adv-x="579" unicode="]"/><glyph d="M352 1391q16 16 32.5 15t29.5 -15l305 -412q12 -16 3 -35.5t-34 -19.5h-31q-20 0 -57 37l-217 227l-217 -227q-27 -37 -57 -37h-33q-23 0 -32 19.5t5 35.5z" glyph-name="asciicircum" horiz-adv-x="765" unicode="^"/><glyph d="M61 -41h1049v-133h-1049v133z" glyph-name="underscore" horiz-adv-x="1222" unicode="_"/><glyph d="M494 1178q35 -35 10 -64q-20 -31 -58 -8l-276 160q-47 29 -61.5 69.5t20.5 85.5q66 78 147 -10z" glyph-name="grave" horiz-adv-x="616" unicode="`"/><glyph d="M864 193q0 -49 27 -66.5t86 -7.5l-6 -82q-117 -49 -180 -49q-115 0 -136 200q-84 -201 -280 -200q-139 0 -231.5 66.5t-92.5 191.5q0 137 125 215t471 125v41q0 113 -36 166t-119 53q-86 0 -122 -32t-36 -124q0 -31 -37 -48t-86 -17q-45 0 -73.5 27.5t-28.5 70.5 q0 102 114.5 160.5t276.5 58.5q365 0 364 -358v-391zM424 121q143 0 223 201v174q-121 -18 -199.5 -47t-113.5 -64t-46.5 -63.5t-11.5 -65.5q0 -57 42.5 -96t105.5 -39z" glyph-name="a" horiz-adv-x="1007" unicode="a"/><glyph d="M684 940q168 0 278.5 -126t110.5 -345t-122 -350t-277 -131q-121 0 -203 61.5t-106 128.5l-70 -147q-23 -49 -77 -43t-54 47v1118q0 68 -55 68h-58v84l279 41q49 6 49 -39v-320q0 -117 -33 -254l33 45q115 162 305 162zM637 109q96 0 152.5 83.5t56.5 249.5 q0 158 -58.5 254.5t-169.5 96.5q-141 0 -237 -121v-369q31 -86 98.5 -140t157.5 -54z" glyph-name="b" horiz-adv-x="1134" unicode="b"/><glyph d="M891 182q-39 -74 -134 -134t-249 -60q-178 0 -312.5 134t-134.5 341q0 219 135.5 349t319.5 130q170 0 274.5 -78t104.5 -176q0 -43 -25.5 -69.5t-76.5 -26.5q-53 0 -82 23.5t-29 58.5q0 41 -3 61.5t-14.5 46t-42 36.5t-81.5 11q-133 0 -190.5 -76.5t-57.5 -252.5 q0 -164 78 -277.5t204 -111.5q20 0 39 3t32 5t29.5 11t24 12t22.5 16.5t19 16.5t20.5 20.5t18.5 19.5q33 37 62 12z" glyph-name="c" horiz-adv-x="978" unicode="c"/><glyph d="M950 193q0 -49 27 -66.5t86 -7.5l-6 -84l-166 -39q-49 -12 -96 38t-60 154q-27 -76 -95.5 -138t-184.5 -62q-156 0 -275 129t-119 346q0 201 121 339t293 138q90 0 157.5 -42t102.5 -97v332q0 49 -26.5 69.5t-85.5 18.5v84l268 38q16 2 27.5 0t17.5 -10t10 -16t5 -24.5 t1 -29t-1 -35t-1 -36.5v-999zM735 295v401q-102 123 -221 123q-104 0 -164.5 -95t-60.5 -235q0 -158 60.5 -257t164.5 -99q147 0 221 162z" glyph-name="d" horiz-adv-x="1103" unicode="d"/><glyph d="M934 559q0 -59 -30 -94t-85 -35h-524q0 -139 74.5 -231.5t197.5 -92.5q137 0 248 134l78 -80q-131 -172 -356 -172q-199 0 -337.5 136t-138.5 345q0 215 133.5 344t315.5 129q170 0 297 -111.5t127 -271.5zM717 537q0 143 -52.5 223t-154.5 80t-158.5 -81t-56.5 -222h422 z" glyph-name="e" horiz-adv-x="995" unicode="e"/><glyph d="M840 1225q23 -33 13.5 -74t-46.5 -59q-43 -18 -75 -7t-48 39q-20 45 -35.5 69t-46.5 47.5t-70 23.5q-147 0 -147 -260v-68h297q-33 -90 -43 -107.5t-39 -17.5h-215v-672q0 -35 19.5 -46t87.5 -11v-82h-414v82q57 0 75.5 11t18.5 46v672h-86q-20 0 -20 20v105h106v45 q0 186 91 285.5t249 99.5q234 0 328 -141z" glyph-name="f" horiz-adv-x="813" unicode="f"/><glyph d="M975 758q-39 10 -53.5 -15.5t-14.5 -113.5q2 -127 -99 -217t-280 -90q-72 0 -145 22q-102 10 -121 -39q-14 -45 57 -80q35 -16 82 -24l203 -31q221 -37 314.5 -95.5t93.5 -189.5q0 -152 -142.5 -244t-361.5 -92q-217 0 -337 69t-120 189q0 100 65.5 163t164.5 87 q-164 31 -211 144q-39 90 26 157q57 57 164 50q-123 92 -123 227q0 129 96.5 216t278.5 87q115 0 200 -39t105 -106q18 145 144 145q117 0 116 -94q0 -45 -31.5 -72.5t-70.5 -13.5zM520 428q57 0 96 18.5t55.5 52t21.5 64.5t5 74q0 41 -5 69.5t-21.5 59.5t-54 47t-97.5 16 q-174 0 -174 -192q0 -209 174 -209zM381 37q-55 -23 -84 -81t-29 -118q0 -86 64.5 -136t195.5 -50q145 0 213 44t68 161q0 66 -36 94.5t-128 44.5z" glyph-name="g" horiz-adv-x="1118" unicode="g"/><glyph d="M1030 205q0 -57 25.5 -81t97.5 -7l-27 -97q-57 -20 -141 -20q-80 0 -124 42t-44 105v412q0 123 -31.5 182.5t-119.5 59.5q-131 0 -281 -174v-486q0 -35 23.5 -46t78.5 -11v-84h-411v84q51 0 73.5 11t22.5 46v992q0 96 -121 79v93l273 36q49 6 58 -39t-3 -112v-399 l-10 -74q131 227 342 227q156 0 236.5 -79t82.5 -279v-381z" glyph-name="h" horiz-adv-x="1193" unicode="h"/><glyph d="M260 1108q-55 0 -94 39t-39 92t39 92t94 39q53 0 92 -39t39 -92t-39 -92t-92 -39zM383 141q0 -57 88 -57v-84h-391v84q90 0 90 57v607q0 35 -13.5 49t-43.5 14h-41v94l245 35q66 8 66 -76v-723z" glyph-name="i" horiz-adv-x="532" unicode="i"/><glyph d="M293 1108q-55 0 -94 39t-39 92t39 92t94 39q53 0 92 -39t39 -92t-39 -92t-92 -39zM350 928q66 6 66 -64v-1016q0 -188 -168 -258q-111 -43 -204 -17t-132 103q-23 41 -12.5 89.5t51.5 68.5q49 20 83 8t50 -47q8 -16 20.5 -59t22.5 -63.5t27 -14.5q49 20 49 102v992 q0 35 -13.5 49t-44.5 14h-41v94z" glyph-name="j" horiz-adv-x="557" unicode="j"/><glyph d="M967 133q33 -33 52 -42t62 -9v-82h-403v82q72 0 65 27q-2 6 -8 12l-356 336v-318q0 -57 65 -57v-82h-354v82q74 0 74 57v1014q0 68 -55 68h-58v84l279 41q49 6 49 -39v-779l299 254q33 29 0 45q-18 10 -60 11v86q186 -16 373 0v-86q-96 0 -143 -41l-293 -254z" glyph-name="k" horiz-adv-x="1112" unicode="k"/><glyph d="M379 139q0 -57 65 -57v-82h-354v82q74 0 74 57v1014q0 68 -55 68h-58v84l279 41q49 6 49 -39v-1168z" glyph-name="l" horiz-adv-x="516" unicode="l"/><glyph d="M1581 205q0 -57 25.5 -81t97.5 -7l-27 -97q-57 -20 -141 -20q-80 0 -124 42t-44 105v420q0 229 -141 230q-162 0 -244 -193v-463q0 -33 23.5 -45t76.5 -12v-84h-409v84q51 0 73.5 11t22.5 46v426q0 117 -29.5 173.5t-109.5 56.5q-68 0 -120 -34t-76.5 -70t-49.5 -89v-463 q0 -35 23.5 -46t78.5 -11v-84h-411v84q51 0 73.5 11t22.5 46v590q0 96 -121 80v94l277 35q49 6 56 -39t-9 -115l-8 -79q25 47 42 73.5t56 71.5t93 67.5t122 22.5q117 0 193.5 -53t97.5 -160q14 33 35.5 63.5t56.5 67.5t88 59.5t117 22.5q147 0 230 -87t83 -269v-381z" glyph-name="m" horiz-adv-x="1744" unicode="m"/><glyph d="M1030 205q0 -57 25.5 -81t97.5 -7l-27 -97q-57 -20 -141 -20q-80 0 -124 42t-44 105v412q0 121 -32.5 181.5t-118.5 60.5q-154 0 -281 -174v-486q0 -35 23.5 -46t78.5 -11v-84h-411v84q51 0 73.5 11t22.5 46v590q0 96 -121 80v94l275 35q51 6 58 -39t-7 -113l-8 -71 q23 45 59.5 89t117.5 91t173 47q147 0 228 -80t83 -278v-381z" glyph-name="n" horiz-adv-x="1193" unicode="n"/><glyph d="M524.5 942q186.5 0 325.5 -129t139 -340q0 -217 -138 -351t-322.5 -134t-326 132t-141.5 337q0 221 138.5 353t325 132zM760 408q0 195 -72 306t-184 111q-213 0 -213 -303q0 -184 71.5 -295.5t182.5 -111.5q215 0 215 293z" glyph-name="o" horiz-adv-x="1050" unicode="o"/><glyph d="M610 942q186 0 324.5 -129t138.5 -340q0 -217 -138 -351t-323 -134q-123 0 -235 80v-316q0 -35 23.5 -46t78.5 -11v-72h-413v72q51 0 73.5 11t22.5 46v989q0 96 -121 80v84l281 35q37 6 43 -21.5t-9 -68.5q119 92 254 92zM635 115q209 0 209 293q0 195 -72 306t-184 111 q-211 0 -211 -303q0 -184 73.5 -295.5t184.5 -111.5z" glyph-name="p" horiz-adv-x="1134" unicode="p"/><glyph d="M1094 -221q23 6 22 -19v-36q-158 -35 -311 -158q-23 -16 -41.5 -6t-18.5 30v383l11 93q-100 -78 -228 -78q-184 0 -325.5 132t-141.5 337q0 221 138.5 353t324.5 132q168 0 281 -119q37 45 49 101h102v-1106q0 -70 62 -56zM545 115q215 0 215 293q0 195 -72 306t-184 111 q-213 0 -213 -303q0 -184 71.5 -295.5t182.5 -111.5z" glyph-name="q" horiz-adv-x="1095" unicode="q"/><glyph d="M752 741q-20 -27 -41 -28.5t-37.5 12.5t-45 28.5t-59.5 14.5q-53 0 -95 -48t-61.5 -100.5t-27.5 -105.5v-375q0 -35 25.5 -46t85.5 -11v-82h-426v82q55 0 79.5 12t24.5 45v592q0 51 -28.5 68.5t-94.5 9.5v94l275 35q49 6 57 -39t-6 -115l-19 -172q41 170 117 246t197 76 q88 0 131 -36t0 -91z" glyph-name="r" horiz-adv-x="856" unicode="r"/><glyph d="M872 262q0 -125 -119.5 -199.5t-295.5 -74.5q-139 0 -255 55t-130 96q-57 176 39 191q113 18 125 -56q27 -186 221 -186q100 0 153.5 38t53.5 101q0 43 -38 75t-78 46t-122 39q-63 18 -110.5 37.5t-105.5 54.5t-90 86t-32 117q0 119 95.5 189.5t277.5 70.5 q131 0 242.5 -56.5t115.5 -94.5q8 -98 -10 -133t-59 -40q-59 -4 -85 13.5t-20 50.5q10 68 -41 119t-143 51q-84 0 -128 -30.5t-44 -84.5q0 -35 16.5 -61.5t52 -46t64.5 -30.5t78 -26q180 -53 241 -92q131 -80 131 -219z" glyph-name="s" horiz-adv-x="923" unicode="s"/><glyph d="M547 137q29 20 56.5 -17.5t-1.5 -58.5q-94 -74 -219 -73q-254 0 -254 299v518h-98v104q43 0 77.5 17.5t65.5 57.5t45 65.5t45 83.5q16 31 50 27.5t34 -34.5v-202h225v-70q0 -49 -45 -49h-180v-553q0 -156 88 -156q50 0 111 41z" glyph-name="t" horiz-adv-x="657" unicode="t"/><glyph d="M997 195q0 -92 115 -74v-84l-158 -43q-66 -18 -111.5 29t-58.5 178v4q-16 -49 -44.5 -92t-97.5 -84t-163 -41q-154 0 -247 88t-93 256v422q0 66 -57 65h-31v80l250 37q53 4 53 -43v-539q0 -125 47.5 -178t141.5 -53q98 0 152.5 54t88.5 161v416q0 35 -12 50t-43 15h-31 v80l248 37q51 10 51 -43v-698z" glyph-name="u" horiz-adv-x="1163" unicode="u"/><glyph d="M535 -8q-57 0 -84 61l-269 627q-55 133 -119 158l-43 16v70q217 -16 433 0v-70l-41 -16q-37 -14 -39 -37t33 -121l190 -498l162 492q23 66 24.5 98.5t-8.5 43.5t-37 22l-45 16v70q193 -14 389 0v-70l-47 -16q-82 -27 -137 -162l-281 -684h-81z" glyph-name="v" horiz-adv-x="1101" unicode="v"/><glyph d="M1235 924q203 -16 389 0v-70l-47 -16q-86 -29 -137 -162l-269 -682h-86q-57 0 -77 57l-195 504l-219 -561h-86q-57 0 -78 57l-248 629q-53 133 -119 158l-43 16v70q217 -16 433 0v-70l-43 -16q-37 -14 -40 -36t31 -122l172 -477l168 530q-41 88 -86 105l-53 16v70 q223 -16 442 0v-70l-53 -16q-37 -14 -40 -36t30 -122l172 -477l147 471q27 100 23 124.5t-43 39.5l-45 16v70z" glyph-name="w" horiz-adv-x="1644" unicode="w"/><glyph d="M1006 102l55 -4v-98q-221 16 -447 0v98l56 2q35 4 43 13.5t-13 44.5l-182 223l-184 -213q-23 -27 -12.5 -45.5t38.5 -22.5l43 -2v-98q-182 16 -362 0v98l55 4q43 6 99 68l256 295l-234 289q-25 31 -47.5 48t-34.5 22t-39 12l-41 10v76q223 -14 447 0v-76l-56 -8 q-53 -8 -12 -62l146 -182l147 170q53 59 -10 74l-43 8v76q180 -12 360 0v-76l-47 -10q-76 -14 -153 -109l-187 -219l275 -342q45 -58 84 -64z" glyph-name="x" horiz-adv-x="1101" unicode="x"/><glyph d="M1118 924v-70l-28 -12q-8 -4 -21.5 -9.5t-22 -8.5t-17.5 -8t-15 -12t-10 -18l-422 -960q-61 -145 -115.5 -205.5t-161.5 -60.5q-102 0 -166.5 44t-64.5 120q0 49 29.5 79.5t84.5 30.5q49 0 73 -24.5t25 -54t10 -54.5t36 -25q43 0 71.5 36t63.5 116l59 147l-391 811 q-20 39 -67 56l-37 12v70h434v-70l-51 -10q-66 -12 -45 -58l266 -555l227 555q8 20 -7 36t-42 22l-57 10v70h362z" glyph-name="y" horiz-adv-x="1138" unicode="y"/><glyph d="M885 229l-37 -229q-365 14 -729 0q-41 -2 -53.5 30.5t12.5 67.5l518 717l-375 -12q-35 -2 -63 -68l-11 -30h-81l36 223q399 -14 801 0l-594 -813l418 12q10 0 18.5 3t14.5 11.5t9 14.5t7 19t6 18l13 36h90z" glyph-name="z" horiz-adv-x="954" unicode="z"/><glyph d="M418 88q0 -170 19.5 -254t84.5 -119l-59 -55q-98 39 -153.5 109.5t-71 142.5t-15.5 176v363q0 45 -24.5 66.5t-106.5 57.5v60q82 37 106.5 58.5t24.5 66.5v362q0 104 15.5 176t71 142.5t153.5 109.5l59 -55q-66 -35 -85 -119t-19 -254v-336q0 -131 -162 -178v-6 q162 -47 162 -178v-336z" glyph-name="braceleft" horiz-adv-x="573" unicode="{"/><glyph d="M184 1638h156v-2078h-156v2078z" glyph-name="bar" horiz-adv-x="524" unicode="|"/><glyph d="M156 88v336q0 131 161 178v6q-162 47 -161 178v336q0 170 -19.5 254t-85.5 119l60 55q98 -39 153 -109.5t70.5 -142t15.5 -176.5v-362q0 -45 24.5 -66.5t106.5 -58.5v-60q-82 -37 -106.5 -58t-24.5 -66v-363q0 -104 -15.5 -176t-70.5 -142.5t-153 -109.5l-60 55 q66 35 85.5 119t19.5 254z" glyph-name="braceright" horiz-adv-x="573" unicode="}"/><glyph d="M961 612q-20 -104 -93 -168.5t-155 -64.5q-70 0 -135.5 36t-116.5 70.5t-90 34.5t-72 -50t-68 -50h-88q29 100 98.5 162.5t161.5 62.5q86 0 180.5 -60.5t149.5 -60.5q37 0 78 44t63 44h87z" glyph-name="asciitilde" horiz-adv-x="1103" unicode="~"/><glyph d="M241.5 1153q53.5 0 91.5 -39t38 -92q0 -51 -38 -90t-91.5 -39t-91 39t-37.5 90q0 53 37.5 92t91 39zM188 733h86q4 -174 50.5 -435t46.5 -347q0 -70 -40 -113t-99.5 -43t-99.5 43t-40 113q0 86 46 347t50 435z" glyph-name="exclamdown" horiz-adv-x="514" unicode="¡"/><glyph d="M780 215q33 37 62 12l49 -45q-39 -74 -134 -134t-249 -60q-45 0 -84 8l-33 -121h-117l43 158q-115 55 -185.5 168.5t-70.5 261.5q0 219 135.5 349t319.5 130q33 0 49 -2l33 123h117l-39 -143q102 -31 160.5 -95.5t58.5 -136.5q0 -43 -25.5 -69.5t-76.5 -26.5 q-53 0 -82 23.5t-29 58.5q0 104 -37 131l-182 -668q53 -29 112 -26q20 0 39 3t32 5t29.5 11t24 12t22.5 16.5t19 16.5t20.5 20.5t18.5 19.5zM293 500q0 -168 78 -277l164 606q-129 0 -185.5 -77.5t-56.5 -251.5z" glyph-name="cent" horiz-adv-x="1005" unicode="¢"/><glyph d="M956 256h121l-51 -209q-12 -47 -65 -47h-861v135q197 119 197 250q0 57 -35 127h-170v123h103q-86 150 -86 280q0 160 133 275t364 115q213 0 342 -113t129 -287q0 -61 -31.5 -105t-99.5 -44q-84 0 -123 82q-2 18 11.5 59t13.5 72q0 211 -252 211q-129 0 -194.5 -69 t-65.5 -169q0 -51 14.5 -98t30.5 -74t48 -71t44 -64h250v-123h-201q6 -31 6 -72q0 -199 -184 -305q41 2 132 2t151.5 1t132 8.5t116 23.5t58.5 43z" glyph-name="sterling" horiz-adv-x="1177" unicode="£"/><glyph d="M1085 70l-81 -80l-138 135q-117 -86 -258 -86t-254 84l-135 -133l-82 80l137 133q-90 117 -90 264q0 141 86 258l-131 131l80 84l133 -133q117 86 256 86q145 0 260 -88l136 135l79 -84l-133 -133q86 -117 86 -256q0 -145 -90 -262zM309 467q0 -127 88 -221t213 -94 t216.5 94t91.5 221t-91.5 219t-216.5 92q-127 0 -214 -92t-87 -219z" glyph-name="currency" horiz-adv-x="1222" unicode="¤"/><glyph d="M901 1272h379v-94q-61 -8 -95 -34t-77 -87l-248 -367h230v-123h-312l-8 -10v-90h320v-123h-320v-176q0 -16 11.5 -28.5t37 -19.5t45 -10.5t56.5 -9.5v-100h-517v100q39 6 57.5 9.5t45 10.5t38 19.5t11.5 28.5v176h-305v123h305v37l-43 63h-262v123h182l-211 316 q-78 119 -106 141q-31 25 -84 31v94h465v-94q-47 -8 -70 -25.5t-6 -42.5l297 -448l282 428q25 37 -3.5 58t-94.5 30v94z" glyph-name="yen" horiz-adv-x="1306" unicode="¥"/><glyph d="M184 924v714h156v-714h-156zM184 -440v714h156v-714h-156z" glyph-name="brokenbar" horiz-adv-x="524" unicode="¦"/><glyph d="M1004 158q14 -115 -53.5 -201t-173 -125t-226.5 -39q-51 0 -100.5 6t-81 13.5t-69.5 20.5t-54.5 21.5t-48 24t-37.5 19.5l-92 319l59 23q59 23 72 -29q10 -20 37 -109q63 -201 303 -200q82 0 135 11t90 55t24 124q-2 20 -9 39t-15 33t-24.5 26.5t-27 21.5t-33 18.5 t-33.5 13.5t-39.5 11t-39 10t-41 9.5t-39.5 8.5q-4 0 -51 10t-61.5 14t-58.5 17.5t-63.5 23.5t-52 31.5t-50 44t-34 56.5t-22.5 73q-23 133 72 242q-53 59 -64 137q-27 156 86 264.5t308 108.5q119 0 192.5 -20.5t134 -57.5t84.5 -45l23 -260l-62 -15q-51 -14 -61 29 q-4 25 -35 113q-23 82 -85 116.5t-191 34.5q-102 0 -162 -56.5t-47 -146.5q6 -39 22.5 -63.5t46 -37.5t53 -19.5t67.5 -13.5t67 -11q4 0 36.5 -6t49 -9t53.5 -12.5t59.5 -17.5t57.5 -22.5t57.5 -29t50 -37t45 -46t30.5 -55t17 -66.5q14 -143 -71 -240q64 -63 76 -153z M283 612q4 -23 14 -40t19.5 -29.5t30 -24.5t31.5 -17t41 -12.5t39 -10.5t44 -8t41 -7t58 -12.5t96 -22.5t85 -29q8 35 2 86q-2 23 -8 42.5t-20.5 36t-24.5 27.5t-33.5 21.5t-36 17.5t-43 14t-42 10t-46 10.5t-43.5 9.5q-16 4 -55 11t-72.5 14.5t-62.5 17.5q-22 -54 -14 -105 z" glyph-name="section" horiz-adv-x="1067" unicode="§"/><glyph d="M272.5 1133q-57.5 0 -98.5 40.5t-41 98t41 98.5t98.5 41t98.5 -41t41 -98.5t-41 -98t-98.5 -40.5zM716.5 1133q-57.5 0 -98 40.5t-40.5 98t40.5 98.5t98 41t97.5 -41t40 -98.5t-40 -98t-97.5 -40.5z" glyph-name="dieresis" horiz-adv-x="987" unicode="¨"/><glyph d="M782 1188q293 0 486.5 -194.5t193.5 -502t-193.5 -502t-486.5 -194.5t-488.5 194.5t-195.5 502t195.5 502t488.5 194.5zM1303 491.5q0 264.5 -138.5 430t-382 165.5t-382 -165.5t-138.5 -430t138.5 -430t382 -165.5t382 165.5t138.5 430zM1098 248q-29 -63 -103.5 -114.5 t-203.5 -51.5q-139 0 -237.5 111.5t-98.5 283.5q0 182 100 289.5t244 107.5q135 0 213 -65.5t78 -153.5q0 -29 -20.5 -50t-59.5 -21q-84 0 -84 65q0 45 -1 60.5t-10.5 39t-32 30.5t-63.5 7q-106 0 -152 -64.5t-46 -211.5q0 -131 64.5 -228.5t164.5 -97.5q43 0 74.5 14.5 t43 28t36.5 45.5q29 37 59 11z" glyph-name="copyright" horiz-adv-x="1560" unicode="©"/><glyph d="M590 805q0 -33 14 -36t58 17v-77l-99 -31q-37 -12 -65.5 14.5t-40.5 79.5q-61 -96 -181 -98q-86 -2 -145 37t-59 114q0 82 79.5 136.5t294.5 85.5v12q0 164 -108 153q-29 -2 -62 -12q-14 -4 -17 -16.5t-3 -35t-4 -36.5q-4 -20 -34 -32.5t-60 -8.5q-70 10 -49 90 q10 43 69.5 77t130.5 40q131 12 206 -45t75 -172v-256zM301 752q39 0 69.5 21.5t43 39.5t32.5 55v117q-96 -16 -149 -46t-64.5 -54.5t-11.5 -57.5q0 -75 80 -75zM111 553h510v-104h-510v104z" glyph-name="ordfeminine" horiz-adv-x="733" unicode="ª"/><glyph d="M98 469l365 338v-141l-137 -197l137 -197v-141zM508 469l364 338v-141l-137 -197l137 -197v-141z" glyph-name="guillemotleft" horiz-adv-x="937" unicode="«"/><glyph d="M1032 770v-477h-141v336h-748v141h889z" glyph-name="logicalnot" horiz-adv-x="1175" unicode="¬"/><glyph d="M102 578h553v-129h-553v129z" glyph-name="uni00AD" horiz-adv-x="778" unicode="­"/><glyph d="M782 1194q297 0 491.5 -196.5t194.5 -506t-194.5 -506t-491.5 -196.5q-295 0 -492.5 196.5t-197.5 506t197.5 506t492.5 196.5zM782 -111q244 0 384.5 168t140.5 434.5t-140.5 434.5t-384.5 168q-246 0 -385 -168t-139 -434.5t139 -434.5t385 -168zM1012 336 q12 -53 46 -102.5t66 -49.5v-59h-94q-119 0 -170 194q-20 78 -46 104t-85 26h-49v-203q0 -27 11 -38t46 -24v-57h-272v57q35 10 44 21.5t9 40.5v497q0 31 -11 44.5t-42 23.5v55h319q121 0 200 -60.5t79 -148.5q0 -152 -176 -178q59 -14 85 -49t40 -94zM791 522 q109 0 108 135q0 59 -24.5 96.5t-73.5 37.5h-121v-269h111z" glyph-name="registered" horiz-adv-x="1560" unicode="®"/><glyph d="M119 1303q0 35 41 34h579q41 0 41 -34v-72q0 -35 -41 -35h-579q-41 0 -41 35v72z" glyph-name="macron" horiz-adv-x="899" unicode="¯"/><glyph d="M313.5 1298q96.5 0 163 -67.5t66.5 -167.5t-66.5 -168t-163 -68t-164 68t-67.5 168t67.5 167.5t164 67.5zM422 1062.5q0 61.5 -30 102.5t-81 41t-79.5 -41t-28.5 -102.5t28.5 -102t79.5 -40.5t81 40.5t30 102z" glyph-name="degree" horiz-adv-x="624" unicode="°"/><glyph d="M594 793h307v-142h-307v-311h-141v311h-310v142h310v307h141v-307zM143 -8v141h758v-141h-758z" glyph-name="plusminus" horiz-adv-x="1044" unicode="±"/><glyph d="M530 926l-20 -105q-6 -29 -43 -28h-375q31 152 201 256q94 57 94 114q0 35 -21.5 58.5t-54.5 23.5q-63 0 -78 -49q-4 -20 1.5 -44t3.5 -34q-14 -31 -46 -35t-57.5 13.5t-25.5 40.5q0 76 52 126t150 50q92 0 141.5 -42t49.5 -114q0 -16 -3 -30.5t-10.5 -27t-12.5 -22.5 t-17.5 -21.5t-18.5 -17.5t-23.5 -17t-22.5 -14t-24.5 -14.5t-21.5 -13.5q-41 -23 -56.5 -33t-32.5 -27.5t-23 -35.5h176q33 0 43 16l18 27h57z" glyph-name="uni00B2" horiz-adv-x="622" unicode="²"/><glyph d="M457 1102q94 -35 94 -135q0 -78 -62.5 -130.5t-154.5 -52.5q-96 0 -153.5 48.5t-57.5 113.5q0 51 53 51q31 0 43 -11t16.5 -41t6.5 -36q20 -61 90 -61q41 0 68.5 30.5t27.5 73.5q0 66 -44 79t-95 -15l-27 57l49 23q76 27 76 90t-65 63q-45 0 -61.5 -40t-4.5 -81l-90 13 q-25 10 -25 28q-2 63 48.5 104.5t138.5 41.5q86 0 135 -40t49 -85q0 -59 -55 -88z" glyph-name="uni00B3" horiz-adv-x="653" unicode="³"/><glyph d="M121 1178l217 233q80 88 149 10q33 -45 19 -86t-62 -69l-276 -160q-37 -23 -57 8q-23 31 10 64z" glyph-name="acute" horiz-adv-x="616" unicode="´"/><glyph d="M1221 1176q-33 -6 -49.5 -11.5t-30 -20t-13.5 -36.5v-1081q0 -37 19.5 -53.5t73.5 -24.5v-86h-775v86q74 8 97.5 24.5t23.5 53.5v465h-35q-219 0 -355 105t-136 283.5t144.5 285t365.5 106.5h670v-96zM504 598h63v565h-45q-244 0 -243.5 -282.5t225.5 -282.5zM922 27 v1079q0 35 -10.5 46t-37.5 11h-100v-1136q0 -37 16.5 -52.5t57.5 -15.5t57.5 15.5t16.5 52.5z" glyph-name="paragraph" horiz-adv-x="1312" unicode="¶"/><glyph d="M200.5 473q-53.5 0 -91 38t-37.5 93q0 51 37.5 89t91 38t91.5 -38t38 -89q0 -55 -38 -93t-91.5 -38z" glyph-name="periodcentered" horiz-adv-x="462" unicode="·"/><glyph d="M162 -256q4 -29 7 -38t11 -30.5t25.5 -31t42.5 -9.5q94 -4 110 93q8 49 -18.5 75.5t-79.5 22.5q-16 -2 -41.5 -7t-34.5 -5q-35 -6 -50 17.5t1 45.5q27 43 62 123h139l-43 -94q90 12 158.5 -44.5t52.5 -148.5q-14 -86 -92 -129t-176 -39q-94 4 -153.5 47t-70.5 97 q-6 35 18.5 60.5t60.5 25.5t71 -31z" glyph-name="cedilla" horiz-adv-x="528" unicode="¸"/><glyph d="M264 897q0 -33 60 -37v-57h-238v57q59 4 59 37v313l-63 -20v70l115 51q27 12 48 -0.5t19 -30.5v-383z" glyph-name="uni00B9" horiz-adv-x="395" unicode="¹"/><glyph d="M365 1278q119 -2 205.5 -84t86.5 -213q0 -135 -87 -220t-205 -85q-117 0 -205 83t-88 212q0 137 87 221t206 86zM512 956q0 98 -47 173t-100 75q-147 0 -148 -209q0 -96 47 -169.5t101 -73.5q74 0 110.5 46.5t36.5 157.5zM111 553h510v-104h-510v104z" glyph-name="ordmasculine" horiz-adv-x="729" unicode="º"/><glyph d="M430 469l-364 -338v141l137 197l-137 197v141zM840 469l-365 -338v141l137 197l-137 197v141z" glyph-name="guillemotright" horiz-adv-x="937" unicode="»"/><glyph d="M145 897v313l-63 -20v70l115 51q27 12 48 -0.5t19 -30.5v-383q0 -33 60 -37v-57h-238v57q59 4 59 37zM963 1303h141l-885 -1313h-141zM1255 137h-69v-65q0 -37 51 -37v-47h-225v47q49 0 49 37v65h-203v70l246 295q18 23 50 14.5t32 -33.5v-272h69v-74zM954 211h107v127z " glyph-name="onequarter" horiz-adv-x="1357" unicode="¼"/><glyph d="M264 897q0 -33 60 -37v-57h-238v57q59 4 59 37v313l-63 -20v70l115 51q27 12 48 -0.5t19 -30.5v-383zM963 1303h141l-885 -1313h-141zM1276 121l-21 -105q-6 -29 -43 -28h-374q31 152 200 256q94 57 95 114q0 35 -21.5 58.5t-54.5 23.5q-63 0 -78 -49q-4 -20 1 -43.5 t3 -34.5q-14 -31 -46 -35t-57.5 13.5t-25.5 40.5q0 76 52 126t151 50q92 0 141 -42t49 -114q0 -16 -3 -30.5t-10 -26.5t-12 -22.5t-17.5 -21.5t-18.5 -17.5t-23.5 -17.5t-22.5 -14t-24.5 -14.5t-21.5 -13.5q-41 -23 -56.5 -33t-33 -27.5t-23.5 -35.5h176q33 0 43 16l19 27 h57z" glyph-name="onehalf" horiz-adv-x="1368" unicode="½"/><glyph d="M551 967q0 -78 -62.5 -130.5t-154.5 -52.5q-96 0 -153.5 48.5t-57.5 113.5q0 51 53 51q31 0 43 -11t16.5 -41t6.5 -36q20 -61 90 -61q41 0 68.5 30.5t27.5 73.5q0 66 -44 79t-95 -15l-27 57l49 23q76 27 76 90t-65 63q-45 0 -61.5 -40t-4.5 -81l-90 13q-25 10 -25 28 q-2 63 48.5 104.5t138.5 41.5q86 0 135 -40t49 -85q0 -59 -55 -88q94 -35 94 -135zM1145 1303h141l-885 -1313h-141zM1415 137h-69v-65q0 -37 51 -37v-47h-223v47q49 0 49 37v65h-205v70l246 295q18 23 50 14.5t32 -33.5v-272h69v-74zM1114 211h109v127z" glyph-name="threequarters" horiz-adv-x="1548" unicode="¾"/><glyph d="M534.5 1153q53.5 0 91.5 -39t38 -92q0 -51 -39 -90t-90.5 -39t-90 39t-38.5 90q0 53 37.5 92t91 39zM915 131q0 -150 -117.5 -248t-310.5 -98q-119 0 -216 57.5t-144 140.5t-30.5 184t108.5 183q51 47 112.5 89t90 63.5t30.5 42.5l21 164h100l23 -164q16 -133 -95 -223 q-121 -96 -153.5 -148.5t-30.5 -122.5q0 -72 49 -119t133 -47q147 0 199 107q18 35 -18.5 142.5t16.5 141.5q45 35 96 37t94 -48t43 -134z" glyph-name="questiondown" horiz-adv-x="1007" unicode="¿"/><glyph d="M520 1614q-47 29 -61.5 69.5t18.5 85.5q70 78 150 -10l217 -233q33 -33 10 -64q-20 -31 -57 -8zM1221 262q45 -102 75.5 -129t106.5 -43v-90h-479v90q82 14 97 29.5t-3 52.5l-117 270h-467l-106 -260q-14 -35 12.5 -55.5t103.5 -36.5v-90h-403v90q78 18 101.5 35.5 t52.5 85.5l452 1077l80 -22q55 -18 74 -64zM477 549h379l-194 448z" glyph-name="Agrave" horiz-adv-x="1443" unicode="À"/><glyph d="M686 1454q-37 -23 -57 8q-23 31 10 64l217 233q80 88 150 10q33 -45 18.5 -86t-61.5 -69zM1221 262q45 -102 75.5 -129t106.5 -43v-90h-479v90q82 14 97 29.5t-3 52.5l-117 270h-467l-106 -260q-14 -35 12.5 -55.5t103.5 -36.5v-90h-403v90q78 18 101.5 35.5t52.5 85.5 l452 1077l80 -22q55 -18 74 -64zM477 549h379l-194 448z" glyph-name="Aacute" horiz-adv-x="1443" unicode="Á"/><glyph d="M719 1579l-197 -137h-141l338 364l338 -364h-142zM1221 262q45 -102 75.5 -129t106.5 -43v-90h-479v90q82 14 97 29.5t-3 52.5l-117 270h-467l-106 -260q-14 -35 12.5 -55.5t103.5 -36.5v-90h-403v90q78 18 101.5 35.5t52.5 85.5l452 1077l80 -22q55 -18 74 -64zM477 549 h379l-194 448z" glyph-name="Acircumflex" horiz-adv-x="1443" unicode="Â"/><glyph d="M420 1497h-84q-25 92 50 156.5t175 64.5q82 0 168 -59.5t145 -59.5q47 0 84 32t33 55h105q-10 -104 -81 -167t-179 -63q-78 0 -171.5 69.5t-136.5 69.5q-55 0 -83.5 -36.5t-24.5 -61.5zM1221 262q45 -102 75.5 -129t106.5 -43v-90h-479v90q82 14 97 29.5t-3 52.5 l-117 270h-467l-106 -260q-14 -35 12.5 -55.5t103.5 -36.5v-90h-403v90q78 18 101.5 35.5t52.5 85.5l452 1077l80 -22q55 -18 74 -64zM477 549h379l-194 448z" glyph-name="Atilde" horiz-adv-x="1443" unicode="Ã"/><glyph d="M479.5 1481q-57.5 0 -98.5 41t-41 98t41 98t98.5 41t98 -41t40.5 -98t-40.5 -98t-98 -41zM923.5 1481q-57.5 0 -98.5 41t-41 98t41 98t98.5 41t97.5 -41t40 -98t-40 -98t-97.5 -41zM1221 262q45 -102 75.5 -129t106.5 -43v-90h-479v90q82 14 97 29.5t-3 52.5l-117 270 h-467l-106 -260q-14 -35 12.5 -55.5t103.5 -36.5v-90h-403v90q78 18 101.5 35.5t52.5 85.5l452 1077l80 -22q55 -18 74 -64zM477 549h379l-194 448z" glyph-name="Adieresis" horiz-adv-x="1443" unicode="Ä"/><glyph d="M713 1458q-84 0 -145.5 58.5t-61.5 138.5q0 82 61.5 140t145.5 58q86 0 145.5 -58t59.5 -140q0 -80 -59.5 -138.5t-145.5 -58.5zM713 1751q-33 0 -56.5 -29.5t-23.5 -66.5q0 -39 23.5 -67.5t56.5 -28.5q27 0 50 29.5t23 66.5t-23 66.5t-50 29.5zM1221 262 q45 -102 75.5 -129t106.5 -43v-90h-479v90q82 14 97 29.5t-3 52.5l-117 270h-467l-106 -260q-14 -35 12.5 -55.5t103.5 -36.5v-90h-403v90q78 18 101.5 35.5t52.5 85.5l452 1077l80 -22q55 -18 74 -64zM477 549h379l-194 448z" glyph-name="Aring" horiz-adv-x="1443" unicode="Å"/><glyph d="M1862 252h108q-29 -57 -65 -205q-12 -47 -62 -47h-964v92q63 14 92.5 33.5t29.5 60.5v246h-448l-180 -239q-31 -39 2 -64t125 -41v-88h-459v88q82 14 117 36.5t86 88.5l655 860q57 76 2 103l-22 6v90h940q20 0 27 -7.5t7 -29.5v-221h-90l-30 67q-18 41 -55.5 54.5 t-108.5 13.5h-326v-442h344q33 0 52.5 13t27.5 27.5t25 57.5h55v-313h-55q-31 74 -52 86q-18 14 -53 14h-344v-471l428 4q57 0 83 11t54 48zM635 539h366v483z" glyph-name="AE" horiz-adv-x="2031" unicode="Æ"/><glyph d="M1206 309q6 -25 -24 -78q-137 -233 -443 -249l-34 -76q90 12 158.5 -44.5t51.5 -148.5q-14 -86 -92 -129t-176 -39q-94 4 -153.5 47t-69.5 97q-6 35 18.5 60.5t60.5 25.5t70 -31q4 -29 7.5 -38t11.5 -30.5t25.5 -31t41.5 -9.5q94 -4 111 93q8 49 -18.5 75.5t-79.5 22.5 q-16 -2 -42 -7t-34 -5q-35 -6 -50.5 17.5t1.5 45.5q23 33 55 109q-229 33 -385 218t-156 460q0 276 172.5 458.5t421.5 182.5q231 0 371 -168q18 0 30.5 17t16.5 32.5t10 52.5q10 39 39 33l60 -10l24 -373l-98 -33q-35 -10 -47 23q-4 12 -29 73q-92 236 -325 236 q-172 0 -276.5 -126t-104.5 -372q0 -244 121.5 -408.5t297.5 -164.5q182 0 306 168q10 12 22 30.5t18.5 26.5t15.5 15.5t19 7.5q20 0 48 -19t32 -37z" glyph-name="Ccedilla" horiz-adv-x="1269" unicode="Ç"/><glyph d="M721 1526q33 -33 10 -64q-20 -31 -57 -8l-277 160q-47 29 -61 69.5t18 85.5q70 78 150 -10zM1153 252q-29 -57 -66 -205q-12 -47 -61 -47h-965v92q63 14 93 33.5t30 60.5v901q0 41 -29.5 60.5t-93.5 34.5v90h940q20 0 27.5 -7.5t7.5 -29.5v-221h-90l-31 67 q-18 41 -55 54.5t-108 13.5h-326v-442h344q33 0 52.5 13t27.5 27.5t24 57.5h56v-313h-56q-31 74 -51 86q-18 14 -53 14h-344v-471l428 4q57 0 83 11t54 48l53 68h109z" glyph-name="Egrave" unicode="È"/><glyph d="M514 1526l217 233q80 88 150 10q33 -45 18.5 -86t-61.5 -69l-277 -160q-37 -23 -57 8q-23 31 10 64zM1153 252q-29 -57 -66 -205q-12 -47 -61 -47h-965v92q63 14 93 33.5t30 60.5v901q0 41 -29.5 60.5t-93.5 34.5v90h940q20 0 27.5 -7.5t7.5 -29.5v-221h-90l-31 67 q-18 41 -55 54.5t-108 13.5h-326v-442h344q33 0 52.5 13t27.5 27.5t24 57.5h56v-313h-56q-31 74 -51 86q-18 14 -53 14h-344v-471l428 4q57 0 83 11t54 48l53 68h109z" glyph-name="Eacute" unicode="É"/><glyph d="M594 1806l338 -364h-141l-197 137l-197 -137h-141zM1153 252q-29 -57 -66 -205q-12 -47 -61 -47h-965v92q63 14 93 33.5t30 60.5v901q0 41 -29.5 60.5t-93.5 34.5v90h940q20 0 27.5 -7.5t7.5 -29.5v-221h-90l-31 67q-18 41 -55 54.5t-108 13.5h-326v-442h344 q33 0 52.5 13t27.5 27.5t24 57.5h56v-313h-56q-31 74 -51 86q-18 14 -53 14h-344v-471l428 4q57 0 83 11t54 48l53 68h109z" glyph-name="Ecircumflex" unicode="Ê"/><glyph d="M356.5 1481q-57.5 0 -98.5 41t-41 98t41 98t98.5 41t98.5 -41t41 -98t-41 -98t-98.5 -41zM800.5 1481q-57.5 0 -98 41t-40.5 98t40.5 98t98 41t97.5 -41t40 -98t-40 -98t-97.5 -41zM1153 252q-29 -57 -66 -205q-12 -47 -61 -47h-965v92q63 14 93 33.5t30 60.5v901 q0 41 -29.5 60.5t-93.5 34.5v90h940q20 0 27.5 -7.5t7.5 -29.5v-221h-90l-31 67q-18 41 -55 54.5t-108 13.5h-326v-442h344q33 0 52.5 13t27.5 27.5t24 57.5h56v-313h-56q-31 74 -51 86q-18 14 -53 14h-344v-471l428 4q57 0 83 11t54 48l53 68h109z" glyph-name="Edieresis" unicode="Ë"/><glyph d="M440 1526q33 -33 11 -64q-20 -31 -58 -8l-276 160q-47 29 -61.5 69.5t18.5 85.5q70 78 149 -10zM424 180q0 -41 30.5 -60.5t94.5 -33.5v-86h-488v86q63 14 94 33.5t31 60.5v907q0 41 -30.5 60.5t-94.5 34.5v90h488v-90q-63 -14 -94 -34t-31 -61v-907z" glyph-name="Igrave" horiz-adv-x="610" unicode="Ì"/><glyph d="M233 1526l218 233q80 88 149 10q33 -45 18.5 -86t-61.5 -69l-276 -160q-37 -23 -58 8q-23 31 10 64zM424 180q0 -41 30.5 -60.5t94.5 -33.5v-86h-488v86q63 14 94 33.5t31 60.5v907q0 41 -30.5 60.5t-94.5 34.5v90h488v-90q-63 -14 -94 -34t-31 -61v-907z" glyph-name="Iacute" horiz-adv-x="610" unicode="Í"/><glyph d="M315 1806l338 -364h-141l-197 137l-196 -137h-142zM424 180q0 -41 30.5 -60.5t94.5 -33.5v-86h-488v86q63 14 94 33.5t31 60.5v907q0 41 -30.5 60.5t-94.5 34.5v90h488v-90q-63 -14 -94 -34t-31 -61v-907z" glyph-name="Icircumflex" horiz-adv-x="610" unicode="Î"/><glyph d="M75.5 1481q-57.5 0 -98 41t-40.5 98t40.5 98t98 41t98.5 -41t41 -98t-41 -98t-98.5 -41zM520.5 1481q-57.5 0 -98.5 41t-41 98t41 98t98.5 41t97 -41t39.5 -98t-39.5 -98t-97 -41zM424 180q0 -41 30.5 -60.5t94.5 -33.5v-86h-488v86q63 14 94 33.5t31 60.5v907 q0 41 -30.5 60.5t-94.5 34.5v90h488v-90q-63 -14 -94 -34t-31 -61v-907z" glyph-name="Idieresis" horiz-adv-x="610" unicode="Ï"/><glyph d="M535 1272q354 0 544.5 -150.5t190.5 -484.5q0 -158 -47 -276.5t-120 -187.5t-172.5 -109.5t-194.5 -52t-197 -5.5q-276 16 -478 -6v102q133 29 134 99v379h-132v112h132v393q0 70 -132 95v92h472zM606 121q205 -12 301.5 121t96.5 395q0 256 -110 392t-321 136h-141v-473 h184v-112h-184v-373q0 -78 66 -80z" glyph-name="Eth" horiz-adv-x="1341" unicode="Ð"/><glyph d="M1096 1686q-10 -104 -81 -167t-179 -63q-78 0 -171.5 69.5t-136.5 69.5q-55 0 -83.5 -36.5t-24.5 -61.5h-84q-25 92 50 156.5t175 64.5q82 0 168 -59.5t145 -59.5q47 0 84 32t33 55h105zM1356 1272v-86q-127 -27 -127 -94v-1092q0 -16 -39 -16t-51 16l-822 981v-799 q0 -70 127 -94v-88h-383v88q127 25 127 94v910q0 70 -127 94v86h338l682 -862v682q0 70 -125 94v86h400z" glyph-name="Ntilde" horiz-adv-x="1417" unicode="Ñ"/><glyph d="M817 1526q33 -33 10 -64q-20 -31 -57 -8l-276 160q-47 29 -61.5 69.5t18.5 85.5q70 78 149 -10zM1309 653q0 -287 -179.5 -480t-443.5 -193q-270 0 -447.5 186t-177.5 487q0 285 178.5 468.5t446.5 183.5q264 0 443.5 -186.5t179.5 -465.5zM729 119q70 0 123 20.5 t99 69.5t71 145.5t25 235.5q0 268 -112 431t-288 163q-324 0 -323 -471q0 -264 114.5 -429t290.5 -165z" glyph-name="Ograve" horiz-adv-x="1370" unicode="Ò"/><glyph d="M612 1526l217 233q80 88 150 10q33 -45 18.5 -86t-61.5 -69l-277 -160q-37 -23 -57 8q-23 31 10 64zM1309 653q0 -287 -179.5 -480t-443.5 -193q-270 0 -447.5 186t-177.5 487q0 285 178.5 468.5t446.5 183.5q264 0 443.5 -186.5t179.5 -465.5zM729 119q70 0 123 20.5 t99 69.5t71 145.5t25 235.5q0 268 -112 431t-288 163q-324 0 -323 -471q0 -264 114.5 -429t290.5 -165z" glyph-name="Oacute" horiz-adv-x="1370" unicode="Ó"/><glyph d="M692 1806l338 -364h-141l-197 137l-196 -137h-142zM1309 653q0 -287 -179.5 -480t-443.5 -193q-270 0 -447.5 186t-177.5 487q0 285 178.5 468.5t446.5 183.5q264 0 443.5 -186.5t179.5 -465.5zM729 119q70 0 123 20.5t99 69.5t71 145.5t25 235.5q0 268 -112 431 t-288 163q-324 0 -323 -471q0 -264 114.5 -429t290.5 -165z" glyph-name="Ocircumflex" horiz-adv-x="1370" unicode="Ô"/><glyph d="M1069 1686q-10 -104 -80.5 -167t-179.5 -63q-78 0 -171 69.5t-136 69.5q-55 0 -84 -36.5t-25 -61.5h-84q-25 92 50 156.5t176 64.5q82 0 167.5 -59.5t145.5 -59.5q47 0 84 32t33 55h104zM1309 653q0 -287 -179.5 -480t-443.5 -193q-270 0 -447.5 186t-177.5 487 q0 285 178.5 468.5t446.5 183.5q264 0 443.5 -186.5t179.5 -465.5zM729 119q70 0 123 20.5t99 69.5t71 145.5t25 235.5q0 268 -112 431t-288 163q-324 0 -323 -471q0 -264 114.5 -429t290.5 -165z" glyph-name="Otilde" horiz-adv-x="1370" unicode="Õ"/><glyph d="M452.5 1481q-57.5 0 -98.5 41t-41 98t41 98t98.5 41t98.5 -41t41 -98t-41 -98t-98.5 -41zM897 1481q-57 0 -98 41t-41 98t41 98t98 41t97 -41t40 -98t-40 -98t-97 -41zM1309 653q0 -287 -179.5 -480t-443.5 -193q-270 0 -447.5 186t-177.5 487q0 285 178.5 468.5 t446.5 183.5q264 0 443.5 -186.5t179.5 -465.5zM729 119q70 0 123 20.5t99 69.5t71 145.5t25 235.5q0 268 -112 431t-288 163q-324 0 -323 -471q0 -264 114.5 -429t290.5 -165z" glyph-name="Odieresis" horiz-adv-x="1370" unicode="Ö"/><glyph d="M793 739l-224 -223l224 -225l-101 -103l-223 226l-225 -226l-101 103l224 225l-224 223l101 103l225 -226l223 226z" glyph-name="multiply" horiz-adv-x="935" unicode="×"/><glyph d="M1130 1118q178 -188 179 -465q0 -287 -179.5 -480t-443.5 -193q-193 0 -344 98l-82 -109l-102 82l84 111q-180 190 -181 491q0 285 178.5 468.5t446.5 183.5q193 0 342 -103l78 103l102 -82zM324 713q0 -205 69 -351l520 689q-109 133 -266 133q-323 0 -323 -471z M729 119q70 0 123 20.5t99 69.5t71 145.5t25 235.5q0 193 -62 338l-516 -684q108 -125 260 -125z" glyph-name="Oslash" horiz-adv-x="1370" unicode="Ø"/><glyph d="M840 1526q33 -33 10 -64q-20 -31 -57 -8l-277 160q-47 29 -61.5 69.5t18.5 85.5q70 78 150 -10zM1282 1272v-88q-31 -4 -48 -10.5t-30.5 -19.5t-13.5 -36v-598q0 -248 -133 -394t-359 -146q-264 0 -410.5 146t-146.5 404v588q0 33 -22.5 45.5t-67.5 20.5v88h424v-88 q-31 -4 -48 -10.5t-31.5 -19.5t-14.5 -36v-526q0 -242 84 -361.5t233 -119.5q162 0 259.5 101t97.5 331v575q0 33 -23.5 46.5t-73.5 19.5v88h324z" glyph-name="Ugrave" horiz-adv-x="1333" unicode="Ù"/><glyph d="M635 1526l217 233q80 88 149 10q33 -45 19 -86t-62 -69l-276 -160q-37 -23 -57 8q-23 31 10 64zM1282 1272v-88q-31 -4 -48 -10.5t-30.5 -19.5t-13.5 -36v-598q0 -248 -133 -394t-359 -146q-264 0 -410.5 146t-146.5 404v588q0 33 -22.5 45.5t-67.5 20.5v88h424v-88 q-31 -4 -48 -10.5t-31.5 -19.5t-14.5 -36v-526q0 -242 84 -361.5t233 -119.5q162 0 259.5 101t97.5 331v575q0 33 -23.5 46.5t-73.5 19.5v88h324z" glyph-name="Uacute" horiz-adv-x="1333" unicode="Ú"/><glyph d="M715 1806l338 -364h-142l-196 137l-197 -137h-141zM1282 1272v-88q-31 -4 -48 -10.5t-30.5 -19.5t-13.5 -36v-598q0 -248 -133 -394t-359 -146q-264 0 -410.5 146t-146.5 404v588q0 33 -22.5 45.5t-67.5 20.5v88h424v-88q-31 -4 -48 -10.5t-31.5 -19.5t-14.5 -36v-526 q0 -242 84 -361.5t233 -119.5q162 0 259.5 101t97.5 331v575q0 33 -23.5 46.5t-73.5 19.5v88h324z" glyph-name="Ucircumflex" horiz-adv-x="1333" unicode="Û"/><glyph d="M475 1481q-57 0 -98 41t-41 98t41 98t98 41t98 -41t41 -98t-41 -98t-98 -41zM919.5 1481q-57.5 0 -98.5 41t-41 98t41 98t98.5 41t97.5 -41t40 -98t-40 -98t-97.5 -41zM1282 1272v-88q-31 -4 -48 -10.5t-30.5 -19.5t-13.5 -36v-598q0 -248 -133 -394t-359 -146 q-264 0 -410.5 146t-146.5 404v588q0 33 -22.5 45.5t-67.5 20.5v88h424v-88q-31 -4 -48 -10.5t-31.5 -19.5t-14.5 -36v-526q0 -242 84 -361.5t233 -119.5q162 0 259.5 101t97.5 331v575q0 33 -23.5 46.5t-73.5 19.5v88h324z" glyph-name="Udieresis" horiz-adv-x="1333" unicode="Ü"/><glyph d="M629 1526l217 233q80 88 149 10q33 -45 18.5 -86t-61.5 -69l-276 -160q-37 -23 -58 8q-22 31 11 64zM901 1272h379v-94q-61 -8 -95 -34t-77 -87l-338 -500v-389q0 -16 11.5 -28.5t37 -19.5t45 -10.5t56.5 -9.5v-100h-517v100q39 6 57.5 9.5t45 10.5t38 19.5t11.5 28.5 v336l-334 502q-78 119 -106 141q-31 25 -84 31v94h465v-94q-47 -8 -70 -25.5t-6 -42.5l297 -448l282 428q25 37 -3.5 58t-94.5 30v94z" glyph-name="Yacute" horiz-adv-x="1310" unicode="Ý"/><glyph d="M596 1049q242 0 394.5 -111t152.5 -289q0 -174 -149.5 -273.5t-395.5 -99.5h-174v-96q0 -41 30.5 -60.5t94.5 -33.5v-86h-488v86q63 14 94 33.5t31 60.5v907q0 41 -30.5 60.5t-94.5 34.5v90h488v-90q-63 -14 -94 -34t-31 -61v-38h172zM625 383q270 0 270 276 q0 129 -64.5 207t-205.5 78h-201v-561h201z" glyph-name="Thorn" horiz-adv-x="1193" unicode="Þ"/><glyph d="M766 764q123 -37 207 -138.5t84 -246.5q0 -174 -157 -277.5t-406 -103.5v119q328 0 327 262q0 68 -11 115t-42 92t-97.5 67.5t-166.5 24.5v102q86 0 147.5 66.5t61.5 161t-46 171t-143 76.5q-156 0 -155 -229v-813q0 -213 -230 -213h-78v86q59 8 77 20.5t18 47.5v858 q0 166 98 260t270 94q176 0 279.5 -100.5t103.5 -257.5q0 -144 -141 -244z" glyph-name="germandbls" horiz-adv-x="1128" unicode="ß"/><glyph d="M633 1178q33 -33 10 -64q-20 -31 -57 -8l-277 160q-47 29 -61.5 69.5t18.5 85.5q70 78 150 -10zM864 193q0 -49 27 -66.5t86 -7.5l-6 -82q-117 -49 -180 -49q-115 0 -136 200q-84 -201 -280 -200q-139 0 -231.5 66.5t-92.5 191.5q0 137 125 215t471 125v41q0 113 -36 166 t-119 53q-86 0 -122 -32t-36 -124q0 -31 -37 -48t-86 -17q-45 0 -73.5 27.5t-28.5 70.5q0 102 114.5 160.5t276.5 58.5q365 0 364 -358v-391zM424 121q143 0 223 201v174q-121 -18 -199.5 -47t-113.5 -64t-46.5 -63.5t-11.5 -65.5q0 -57 42.5 -96t105.5 -39z" glyph-name="agrave" horiz-adv-x="1007" unicode="à"/><glyph d="M426 1178l217 233q80 88 150 10q33 -45 18.5 -86t-61.5 -69l-277 -160q-37 -23 -57 8q-23 31 10 64zM864 193q0 -49 27 -66.5t86 -7.5l-6 -82q-117 -49 -180 -49q-115 0 -136 200q-84 -201 -280 -200q-139 0 -231.5 66.5t-92.5 191.5q0 137 125 215t471 125v41 q0 113 -36 166t-119 53q-86 0 -122 -32t-36 -124q0 -31 -37 -48t-86 -17q-45 0 -73.5 27.5t-28.5 70.5q0 102 114.5 160.5t276.5 58.5q365 0 364 -358v-391zM424 121q143 0 223 201v174q-121 -18 -199.5 -47t-113.5 -64t-46.5 -63.5t-11.5 -65.5q0 -57 42.5 -96t105.5 -39z " glyph-name="aacute" horiz-adv-x="1007" unicode="á"/><glyph d="M506 1458l338 -364h-142l-196 137l-197 -137h-141zM864 193q0 -49 27 -66.5t86 -7.5l-6 -82q-117 -49 -180 -49q-115 0 -136 200q-84 -201 -280 -200q-139 0 -231.5 66.5t-92.5 191.5q0 137 125 215t471 125v41q0 113 -36 166t-119 53q-86 0 -122 -32t-36 -124 q0 -31 -37 -48t-86 -17q-45 0 -73.5 27.5t-28.5 70.5q0 102 114.5 160.5t276.5 58.5q365 0 364 -358v-391zM424 121q143 0 223 201v174q-121 -18 -199.5 -47t-113.5 -64t-46.5 -63.5t-11.5 -65.5q0 -57 42.5 -96t105.5 -39z" glyph-name="acircumflex" horiz-adv-x="1007" unicode="â"/><glyph d="M883 1337q-10 -104 -81 -166.5t-179 -62.5q-78 0 -171.5 69.5t-136.5 69.5q-55 0 -83.5 -36.5t-24.5 -61.5h-84q-25 92 50 156.5t175 64.5q82 0 168 -59.5t146 -59.5q47 0 83.5 32t32.5 54h105zM864 193q0 -49 27 -66.5t86 -7.5l-6 -82q-117 -49 -180 -49 q-115 0 -136 200q-84 -201 -280 -200q-139 0 -231.5 66.5t-92.5 191.5q0 137 125 215t471 125v41q0 113 -36 166t-119 53q-86 0 -122 -32t-36 -124q0 -31 -37 -48t-86 -17q-45 0 -73.5 27.5t-28.5 70.5q0 102 114.5 160.5t276.5 58.5q365 0 364 -358v-391zM424 121 q143 0 223 201v174q-121 -18 -199.5 -47t-113.5 -64t-46.5 -63.5t-11.5 -65.5q0 -57 42.5 -96t105.5 -39z" glyph-name="atilde" horiz-adv-x="1007" unicode="ã"/><glyph d="M268.5 1133q-57.5 0 -98.5 40.5t-41 98t41 98.5t98.5 41t98.5 -41t41 -98.5t-41 -98t-98.5 -40.5zM712.5 1133q-57.5 0 -98.5 40.5t-41 98t41 98.5t98.5 41t97.5 -41t40 -98.5t-40 -98t-97.5 -40.5zM864 193q0 -49 27 -66.5t86 -7.5l-6 -82q-117 -49 -180 -49 q-115 0 -136 200q-84 -201 -280 -200q-139 0 -231.5 66.5t-92.5 191.5q0 137 125 215t471 125v41q0 113 -36 166t-119 53q-86 0 -122 -32t-36 -124q0 -31 -37 -48t-86 -17q-45 0 -73.5 27.5t-28.5 70.5q0 102 114.5 160.5t276.5 58.5q365 0 364 -358v-391zM424 121 q143 0 223 201v174q-121 -18 -199.5 -47t-113.5 -64t-46.5 -63.5t-11.5 -65.5q0 -57 42.5 -96t105.5 -39z" glyph-name="adieresis" horiz-adv-x="1007" unicode="ä"/><glyph d="M500 1110q-84 0 -145.5 58.5t-61.5 138.5q0 82 61.5 140t145.5 58q86 0 145.5 -58t59.5 -140q0 -80 -59.5 -138.5t-145.5 -58.5zM500 1210q27 0 50 30t23 66.5t-23.5 66.5t-49.5 30q-33 0 -56.5 -30t-23.5 -66q0 -39 23.5 -68t56.5 -29zM864 193q0 -49 27 -66.5t86 -7.5 l-6 -82q-117 -49 -180 -49q-115 0 -136 200q-84 -201 -280 -200q-139 0 -231.5 66.5t-92.5 191.5q0 137 125 215t471 125v41q0 113 -36 166t-119 53q-86 0 -122 -32t-36 -124q0 -31 -37 -48t-86 -17q-45 0 -73.5 27.5t-28.5 70.5q0 102 114.5 160.5t276.5 58.5 q365 0 364 -358v-391zM424 121q143 0 223 201v174q-121 -18 -199.5 -47t-113.5 -64t-46.5 -63.5t-11.5 -65.5q0 -57 42.5 -96t105.5 -39z" glyph-name="aring" horiz-adv-x="1007" unicode="å"/><glyph d="M1505 559q0 -59 -29.5 -94t-84.5 -35h-527q0 -139 76 -231.5t199 -92.5q137 0 247 134l76 -80q-131 -172 -356 -172q-233 0 -375 180q-125 -178 -373 -182q-135 -2 -226 64.5t-91 191.5q0 90 45 150.5t177 110.5t368 85v39q0 141 -63.5 189t-200.5 11q-29 -8 -37 -26.5 t-8 -56t-5 -54.5q-8 -33 -47 -54.5t-88 -14.5q-51 8 -75.5 48t-10.5 95q16 70 108.5 119t219.5 59q256 20 356 -115q127 115 301 115q170 0 297 -111.5t127 -271.5zM1286 537q2 141 -50 222t-154.5 81t-160 -82t-57.5 -221h422zM631 322v167q-119 -20 -197 -49.5 t-110.5 -64.5t-43 -62.5t-10.5 -62.5q0 -53 38 -91t98 -38q155 0 225 201z" glyph-name="ae" horiz-adv-x="1566" unicode="æ"/><glyph d="M780 215q33 37 62 12l49 -45q-31 -61 -104.5 -115.5t-188.5 -72.5l-41 -88q90 12 158.5 -44.5t52.5 -148.5q-14 -86 -92 -129t-176 -39q-94 4 -153.5 47t-70.5 97q-6 35 18.5 60.5t60.5 25.5t71 -31q4 -29 7 -38t11.5 -30.5t25.5 -31t42 -9.5q94 -4 111 93 q8 49 -18.5 75.5t-80.5 22.5q-16 -2 -41.5 -7t-33.5 -5q-35 -6 -50.5 17.5t0.5 45.5q33 55 58 115q-164 18 -280 149t-116 322q0 219 135.5 349t319.5 130q170 0 274.5 -78t104.5 -176q0 -43 -25.5 -69.5t-76.5 -26.5q-53 0 -82 23.5t-29 58.5q0 41 -3 61.5t-14.5 46 t-42 36.5t-81.5 11q-133 0 -190.5 -76.5t-57.5 -252.5q0 -164 78 -277.5t204 -111.5q20 0 39 3t32 5t29.5 11t24 12t22.5 16.5t19 16.5t20.5 20.5t18.5 19.5z" glyph-name="ccedilla" horiz-adv-x="978" unicode="ç"/><glyph d="M645 1178q33 -33 10 -64q-20 -31 -57 -8l-276 160q-47 29 -61.5 69.5t18.5 85.5q70 78 149 -10zM934 559q0 -59 -30 -94t-85 -35h-524q0 -139 74.5 -231.5t197.5 -92.5q137 0 248 134l78 -80q-131 -172 -356 -172q-199 0 -337.5 136t-138.5 345q0 215 133.5 344 t315.5 129q170 0 297 -111.5t127 -271.5zM717 537q0 143 -52.5 223t-154.5 80t-158.5 -81t-56.5 -222h422z" glyph-name="egrave" horiz-adv-x="995" unicode="è"/><glyph d="M438 1178l217 233q80 88 150 10q33 -45 18.5 -86t-61.5 -69l-277 -160q-37 -23 -57 8q-23 31 10 64zM934 559q0 -59 -30 -94t-85 -35h-524q0 -139 74.5 -231.5t197.5 -92.5q137 0 248 134l78 -80q-131 -172 -356 -172q-199 0 -337.5 136t-138.5 345q0 215 133.5 344 t315.5 129q170 0 297 -111.5t127 -271.5zM717 537q0 143 -52.5 223t-154.5 80t-158.5 -81t-56.5 -222h422z" glyph-name="eacute" horiz-adv-x="995" unicode="é"/><glyph d="M518 1458l338 -364h-141l-197 137l-196 -137h-142zM934 559q0 -59 -30 -94t-85 -35h-524q0 -139 74.5 -231.5t197.5 -92.5q137 0 248 134l78 -80q-131 -172 -356 -172q-199 0 -337.5 136t-138.5 345q0 215 133.5 344t315.5 129q170 0 297 -111.5t127 -271.5zM717 537 q0 143 -52.5 223t-154.5 80t-158.5 -81t-56.5 -222h422z" glyph-name="ecircumflex" horiz-adv-x="995" unicode="ê"/><glyph d="M280.5 1133q-57.5 0 -98.5 40.5t-41 98t41 98.5t98.5 41t98.5 -41t41 -98.5t-41 -98t-98.5 -40.5zM725 1133q-57 0 -98 40.5t-41 98t41 98.5t98 41t97 -41t40 -98.5t-40 -98t-97 -40.5zM934 559q0 -59 -30 -94t-85 -35h-524q0 -139 74.5 -231.5t197.5 -92.5 q137 0 248 134l78 -80q-131 -172 -356 -172q-199 0 -337.5 136t-138.5 345q0 215 133.5 344t315.5 129q170 0 297 -111.5t127 -271.5zM717 537q0 143 -52.5 223t-154.5 80t-158.5 -81t-56.5 -222h422z" glyph-name="edieresis" horiz-adv-x="995" unicode="ë"/><glyph d="M379 1178q33 -33 10 -64q-20 -31 -57 -8l-277 160q-47 29 -61 69.5t18 85.5q70 78 150 -10zM383 141q0 -57 88 -57v-84h-391v84q90 0 90 57v611q0 35 -13.5 49t-43.5 14h-41v94l245 19q66 6 66 -64v-723z" glyph-name="igrave" horiz-adv-x="542" unicode="ì"/><glyph d="M172 1178l217 233q80 88 150 10q33 -45 18.5 -86t-61.5 -69l-277 -160q-37 -23 -57 8q-23 31 10 64zM383 141q0 -57 88 -57v-84h-391v84q90 0 90 57v611q0 35 -13.5 49t-43.5 14h-41v94l245 19q66 6 66 -64v-723z" glyph-name="iacute" horiz-adv-x="542" unicode="í"/><glyph d="M254 1458l338 -364h-141l-197 137l-197 -137h-141zM383 141q0 -57 88 -57v-84h-391v84q90 0 90 57v611q0 35 -13.5 49t-43.5 14h-41v94l245 19q66 6 66 -64v-723z" glyph-name="icircumflex" horiz-adv-x="542" unicode="î"/><glyph d="M14.5 1133q-57.5 0 -98.5 40.5t-41 98t41 98.5t98.5 41t98.5 -41t41 -98.5t-41 -98t-98.5 -40.5zM458.5 1133q-57.5 0 -98.5 40.5t-41 98t41 98.5t98.5 41t97.5 -41t40 -98.5t-40 -98t-97.5 -40.5zM383 141q0 -57 88 -57v-84h-391v84q90 0 90 57v611q0 35 -13.5 49 t-43.5 14h-41v94l245 19q66 6 66 -64v-723z" glyph-name="idieresis" horiz-adv-x="542" unicode="ï"/><glyph d="M1071 1159l-166 -47q35 -82 35 -199v-266q0 -330 -111.5 -494.5t-349.5 -164.5q-195 0 -306.5 122.5t-111.5 362.5q0 221 102.5 347t256.5 126q27 0 51.5 -3t48 -11t42 -15.5t37.5 -20.5t31.5 -21.5t31 -24.5t24.5 -22.5t22.5 -23l18.5 -18.5v179q0 43 -4 96l-178 -49 l-33 104l180 49q-39 70 -164 80l-63 4v97l20 -3h32.5t39.5 -3t46.5 -7t48 -10t52 -16.5t49 -23.5t49 -32.5t44.5 -42.5l192 56zM479 109q70 0 116 25.5t72.5 64.5t40 113.5t16.5 143t3 183.5q0 53 -72.5 128t-205.5 75q-180 0 -181 -369q0 -186 49 -275t162 -89z" glyph-name="eth" horiz-adv-x="1153" unicode="ð"/><glyph d="M971 1337q-10 -104 -81 -166.5t-179 -62.5q-78 0 -171.5 69.5t-136.5 69.5q-55 0 -83.5 -36.5t-24.5 -61.5h-84q-25 92 50 156.5t175 64.5q82 0 168 -59.5t146 -59.5q47 0 83.5 32t32.5 54h105zM1030 205q0 -57 25.5 -81t97.5 -7l-27 -97q-57 -20 -141 -20q-80 0 -124 42 t-44 105v412q0 121 -32.5 181.5t-118.5 60.5q-154 0 -281 -174v-486q0 -35 23.5 -46t78.5 -11v-84h-411v84q51 0 73.5 11t22.5 46v590q0 96 -121 80v94l275 35q51 6 58 -39t-7 -113l-8 -71q23 45 59.5 89t117.5 91t173 47q147 0 228 -80t83 -278v-381z" glyph-name="ntilde" horiz-adv-x="1193" unicode="ñ"/><glyph d="M662 1178q33 -33 10 -64q-20 -31 -58 -8l-276 160q-47 29 -61.5 69.5t18.5 85.5q70 78 149 -10zM524.5 942q186.5 0 325.5 -129t139 -340q0 -217 -138 -351t-322.5 -134t-326 132t-141.5 337q0 221 138.5 353t325 132zM760 408q0 195 -72 306t-184 111q-213 0 -213 -303 q0 -184 71.5 -295.5t182.5 -111.5q215 0 215 293z" glyph-name="ograve" horiz-adv-x="1050" unicode="ò"/><glyph d="M455 1178l217 233q80 88 149 10q33 -45 18.5 -86t-61.5 -69l-276 -160q-37 -23 -58 8q-22 31 11 64zM524.5 942q186.5 0 325.5 -129t139 -340q0 -217 -138 -351t-322.5 -134t-326 132t-141.5 337q0 221 138.5 353t325 132zM760 408q0 195 -72 306t-184 111 q-213 0 -213 -303q0 -184 71.5 -295.5t182.5 -111.5q215 0 215 293z" glyph-name="oacute" horiz-adv-x="1050" unicode="ó"/><glyph d="M537 1458l337 -364h-141l-196 137l-197 -137h-141zM524.5 942q186.5 0 325.5 -129t139 -340q0 -217 -138 -351t-322.5 -134t-326 132t-141.5 337q0 221 138.5 353t325 132zM760 408q0 195 -72 306t-184 111q-213 0 -213 -303q0 -184 71.5 -295.5t182.5 -111.5 q215 0 215 293z" glyph-name="ocircumflex" horiz-adv-x="1050" unicode="ô"/><glyph d="M913 1337q-10 -104 -80.5 -166.5t-179.5 -62.5q-78 0 -171 69.5t-136 69.5q-55 0 -84 -36.5t-24 -61.5h-84q-25 92 50 156.5t175 64.5q82 0 168 -59.5t145 -59.5q47 0 84 32t33 54h104zM524.5 942q186.5 0 325.5 -129t139 -340q0 -217 -138 -351t-322.5 -134t-326 132 t-141.5 337q0 221 138.5 353t325 132zM760 408q0 195 -72 306t-184 111q-213 0 -213 -303q0 -184 71.5 -295.5t182.5 -111.5q215 0 215 293z" glyph-name="otilde" horiz-adv-x="1050" unicode="õ"/><glyph d="M297 1133q-57 0 -98 40.5t-41 98t41 98.5t98 41t98 -41t41 -98.5t-41 -98t-98 -40.5zM741.5 1133q-57.5 0 -98.5 40.5t-41 98t41 98.5t98.5 41t97.5 -41t40 -98.5t-40 -98t-97.5 -40.5zM524.5 942q186.5 0 325.5 -129t139 -340q0 -217 -138 -351t-322.5 -134t-326 132 t-141.5 337q0 221 138.5 353t325 132zM760 408q0 195 -72 306t-184 111q-213 0 -213 -303q0 -184 71.5 -295.5t182.5 -111.5q215 0 215 293z" glyph-name="odieresis" horiz-adv-x="1050" unicode="ö"/><glyph d="M526 723q-43 0 -74.5 30.5t-31.5 75.5q0 43 31.5 74t74.5 31t74 -31t31 -74q0 -45 -31 -75.5t-74 -30.5zM143 586h758v-142h-758v142zM526 96q-43 0 -74.5 31t-31.5 76q0 43 31.5 73.5t74.5 30.5t74 -30.5t31 -73.5q0 -45 -31 -76t-74 -31z" glyph-name="divide" horiz-adv-x="1044" unicode="÷"/><glyph d="M866 797q123 -129 123 -324q0 -217 -138 -351t-323 -134q-121 0 -227 59l-47 -63l-104 82l47 59q-135 135 -136 332q0 221 138.5 353t324.5 132q127 0 238 -63l35 45l102 -82zM291 522q0 -131 37 -223l336 449q-66 78 -160 77q-213 0 -213 -303zM545 115q215 0 215 293 q0 119 -29 210l-332 -440q64 -63 146 -63z" glyph-name="oslash" horiz-adv-x="1050" unicode="ø"/><glyph d="M383 1266q-47 29 -61.5 69.5t18.5 85.5q70 78 149 -10l218 -233q33 -33 10 -64q-20 -31 -58 -8zM997 195q0 -92 115 -74v-84l-158 -43q-66 -18 -111.5 29t-58.5 178v4q-16 -49 -44.5 -92t-97.5 -84t-163 -41q-154 0 -247 88t-93 256v422q0 66 -57 65h-31v80l250 37 q53 4 53 -43v-539q0 -125 47.5 -178t141.5 -53q98 0 152.5 54t88.5 161v416q0 35 -12 50t-43 15h-31v80l248 37q51 10 51 -43v-698z" glyph-name="ugrave" horiz-adv-x="1163" unicode="ù"/><glyph d="M549 1106q-37 -23 -57 8q-23 31 10 64l217 233q80 88 149 10q33 -45 18.5 -86t-61.5 -69zM997 195q0 -92 115 -74v-84l-158 -43q-66 -18 -111.5 29t-58.5 178v4q-16 -49 -44.5 -92t-97.5 -84t-163 -41q-154 0 -247 88t-93 256v422q0 66 -57 65h-31v80l250 37q53 4 53 -43 v-539q0 -125 47.5 -178t141.5 -53q98 0 152.5 54t88.5 161v416q0 35 -12 50t-43 15h-31v80l248 37q51 10 51 -43v-698z" glyph-name="uacute" horiz-adv-x="1163" unicode="ú"/><glyph d="M582 1231l-197 -137h-141l338 364l338 -364h-142zM997 195q0 -92 115 -74v-84l-158 -43q-66 -18 -111.5 29t-58.5 178v4q-16 -49 -44.5 -92t-97.5 -84t-163 -41q-154 0 -247 88t-93 256v422q0 66 -57 65h-31v80l250 37q53 4 53 -43v-539q0 -125 47.5 -178t141.5 -53 q98 0 152.5 54t88.5 161v416q0 35 -12 50t-43 15h-31v80l248 37q51 10 51 -43v-698z" glyph-name="ucircumflex" horiz-adv-x="1163" unicode="û"/><glyph d="M342 1133q-57 0 -98 40.5t-41 98t41 98.5t98 41t98 -41t41 -98.5t-41 -98t-98 -40.5zM786.5 1133q-57.5 0 -98.5 40.5t-41 98t41 98.5t98.5 41t97.5 -41t40 -98.5t-40 -98t-97.5 -40.5zM997 195q0 -92 115 -74v-84l-158 -43q-66 -18 -111.5 29t-58.5 178v4 q-16 -49 -44.5 -92t-97.5 -84t-163 -41q-154 0 -247 88t-93 256v422q0 66 -57 65h-31v80l250 37q53 4 53 -43v-539q0 -125 47.5 -178t141.5 -53q98 0 152.5 54t88.5 161v416q0 35 -12 50t-43 15h-31v80l248 37q51 10 51 -43v-698z" glyph-name="udieresis" horiz-adv-x="1163" unicode="ü"/><glyph d="M537 1178l217 233q80 88 149 10q33 -45 18.5 -86t-61.5 -69l-276 -160q-37 -23 -58 8q-22 31 11 64zM1118 924v-70l-28 -12q-8 -4 -21.5 -9.5t-22 -8.5t-17.5 -8t-15 -12t-10 -18l-422 -960q-61 -145 -115.5 -205.5t-161.5 -60.5q-102 0 -166.5 44t-64.5 120 q0 49 29.5 79.5t84.5 30.5q49 0 73 -24.5t25 -54t10 -54.5t36 -25q43 0 71.5 36t63.5 116l59 147l-391 811q-20 39 -67 56l-37 12v70h434v-70l-51 -10q-66 -12 -45 -58l266 -555l227 555q8 20 -7 36t-42 22l-57 10v70h362z" glyph-name="yacute" horiz-adv-x="1138" unicode="ý"/><glyph d="M672 940q174 0 284.5 -127t110.5 -348q0 -219 -121 -348t-280 -129q-164 0 -285 155v-391q0 -35 23.5 -46t78.5 -11v-72h-415v72q51 0 73.5 11t22.5 46v1442q0 68 -55 68h-58v73l279 31q49 6 49 -39v-340q0 -129 -33 -254l35 45q135 162 291 162zM645 104q90 0 142.5 85 t52.5 249q0 152 -50.5 253.5t-142.5 101.5t-152.5 -31t-113.5 -90v-371q31 -86 99.5 -141.5t164.5 -55.5z" glyph-name="thorn" horiz-adv-x="1138" unicode="þ"/><glyph d="M379 1133q-57 0 -98 40.5t-41 98t41 98.5t98 41t98 -41t41 -98.5t-41 -98t-98 -40.5zM823.5 1133q-57.5 0 -98.5 40.5t-41 98t41 98.5t98.5 41t97.5 -41t40 -98.5t-40 -98t-97.5 -40.5zM1118 924v-70l-28 -12q-8 -4 -21.5 -9.5t-22 -8.5t-17.5 -8t-15 -12t-10 -18 l-422 -960q-61 -145 -115.5 -205.5t-161.5 -60.5q-102 0 -166.5 44t-64.5 120q0 49 29.5 79.5t84.5 30.5q49 0 73 -24.5t25 -54t10 -54.5t36 -25q43 0 71.5 36t63.5 116l59 147l-391 811q-20 39 -67 56l-37 12v70h434v-70l-51 -10q-66 -12 -45 -58l266 -555l227 555 q8 20 -7 36t-42 22l-57 10v70h362z" glyph-name="ydieresis" horiz-adv-x="1138" unicode="ÿ"/><glyph d="M426 1544q-41 0 -41 35v72q0 35 41 35h580q41 0 41 -35v-72q0 -35 -41 -35h-580zM1221 262q45 -102 75.5 -129t106.5 -43v-90h-479v90q82 14 97 29.5t-3 52.5l-117 270h-467l-106 -260q-14 -35 12.5 -55.5t103.5 -36.5v-90h-403v90q78 18 101.5 35.5t52.5 85.5l452 1077 l80 -22q55 -18 74 -64zM477 549h379l-194 448z" glyph-name="Amacron" horiz-adv-x="1443" unicode="Ā"/><glyph d="M172 1303q0 35 41 34h580q41 0 41 -34v-72q0 -35 -41 -35h-580q-41 0 -41 35v72zM864 193q0 -49 27 -66.5t86 -7.5l-6 -82q-117 -49 -180 -49q-115 0 -136 200q-84 -201 -280 -200q-139 0 -231.5 66.5t-92.5 191.5q0 137 125 215t471 125v41q0 113 -36 166t-119 53 q-86 0 -122 -32t-36 -124q0 -31 -37 -48t-86 -17q-45 0 -73.5 27.5t-28.5 70.5q0 102 114.5 160.5t276.5 58.5q365 0 364 -358v-391zM424 121q143 0 223 201v174q-121 -18 -199.5 -47t-113.5 -64t-46.5 -63.5t-11.5 -65.5q0 -57 42.5 -96t105.5 -39z" glyph-name="amacron" horiz-adv-x="1007" unicode="ā"/><glyph d="M706.5 1468q-122.5 0 -203.5 76t-87 197q0 23 20 22h60q20 0 22 -22q6 -47 57.5 -79t131 -32t131 32t57.5 79q2 23 23 22h59q20 0 20 -22q-6 -121 -87 -197t-203.5 -76zM1221 262q45 -102 75.5 -129t106.5 -43v-90h-479v90q82 14 97 29.5t-3 52.5l-117 270h-467 l-106 -260q-14 -35 12.5 -55.5t103.5 -36.5v-90h-403v90q78 18 101.5 35.5t52.5 85.5l452 1077l80 -22q55 -18 74 -64zM477 549h379l-194 448z" glyph-name="Abreve" horiz-adv-x="1443" unicode="Ă"/><glyph d="M493.5 1120q-122.5 0 -203.5 76t-87 197q0 23 20 22h60q20 0 22 -22q6 -47 57.5 -79t131 -32t131 32t57.5 79q2 23 23 22h59q20 0 20 -22q-6 -121 -87 -197t-203.5 -76zM864 193q0 -49 27 -66.5t86 -7.5l-6 -82q-117 -49 -180 -49q-115 0 -136 200q-84 -201 -280 -200 q-139 0 -231.5 66.5t-92.5 191.5q0 137 125 215t471 125v41q0 113 -36 166t-119 53q-86 0 -122 -32t-36 -124q0 -31 -37 -48t-86 -17q-45 0 -73.5 27.5t-28.5 70.5q0 102 114.5 160.5t276.5 58.5q365 0 364 -358v-391zM424 121q143 0 223 201v174q-121 -18 -199.5 -47 t-113.5 -64t-46.5 -63.5t-11.5 -65.5q0 -57 42.5 -96t105.5 -39z" glyph-name="abreve" horiz-adv-x="1007" unicode="ă"/><glyph d="M1221 0q-170 -115 -170 -231q0 -49 32.5 -82t81.5 -33q109 0 152 113h72q-8 -33 -25.5 -65t-50.5 -71t-91.5 -62.5t-134.5 -23.5q-96 0 -167.5 48.5t-71.5 142.5q0 96 81 164.5t181 99.5h-186v90q82 14 97 29.5t-3 52.5l-117 270h-467l-106 -260q-14 -35 12.5 -55.5 t103.5 -36.5v-90h-403v90q78 18 101.5 35.5t52.5 85.5l452 1077l80 -22q55 -18 74 -64l420 -940q45 -102 75.5 -129t106.5 -43v-90h-182zM477 549h379l-194 448z" glyph-name="Aogonek" horiz-adv-x="1443" unicode="Ą"/><glyph d="M909 -201h74q-20 -78 -91 -152.5t-198 -74.5q-96 0 -161.5 47t-65.5 143q0 174 254 252q-53 51 -66 174q-84 -201 -280 -200q-139 0 -231.5 66.5t-92.5 191.5q0 137 125 215t471 125v41q0 113 -36 166t-119 53q-86 0 -122 -32t-36 -124q0 -31 -37 -48t-86 -17 q-45 0 -73.5 27.5t-28.5 70.5q0 102 114.5 160.5t276.5 58.5q365 0 364 -358v-391q0 -49 27 -66.5t86 -7.5l-6 -82q-51 -23 -76 -29v-4q-223 -61 -223 -203q0 -57 28.5 -88.5t79.5 -31.5q86 -1 129 118zM647 322v174q-121 -18 -199.5 -47t-113.5 -64t-46.5 -63.5 t-11.5 -65.5q0 -57 42 -96t106 -39q143 0 223 201z" glyph-name="aogonek" horiz-adv-x="1013" unicode="ą"/><glyph d="M604 1526l217 233q80 88 150 10q33 -45 18.5 -86t-61.5 -69l-277 -160q-37 -23 -57 8q-23 31 10 64zM1108 856q-35 -10 -47 23q-4 12 -29 73q-92 236 -325 236q-172 0 -276.5 -126t-104.5 -372q0 -244 121.5 -408.5t297.5 -164.5q182 0 306 168q10 12 22 30.5t18.5 26.5 t15.5 15.5t19 7.5q20 0 48 -18.5t32 -37.5q6 -25 -24 -78q-147 -252 -492 -251q-258 0 -443.5 190t-185.5 494q0 276 172.5 458.5t421.5 182.5q231 0 371 -168q18 0 30.5 17t16.5 32.5t10 52.5q10 39 39 33l60 -10l24 -373z" glyph-name="Cacute" horiz-adv-x="1269" unicode="Ć"/><glyph d="M465 1178l217 233q80 88 149 10q33 -45 19 -86t-62 -69l-276 -160q-37 -23 -57 8q-23 31 10 64zM891 182q-39 -74 -134 -134t-249 -60q-178 0 -312.5 134t-134.5 341q0 219 135.5 349t319.5 130q170 0 274.5 -78t104.5 -176q0 -43 -25.5 -69.5t-76.5 -26.5 q-53 0 -82 23.5t-29 58.5q0 41 -3 61.5t-14.5 46t-42 36.5t-81.5 11q-133 0 -190.5 -76.5t-57.5 -252.5q0 -164 78 -277.5t204 -111.5q20 0 39 3t32 5t29.5 11t24 12t22.5 16.5t19 16.5t20.5 20.5t18.5 19.5q33 37 62 12z" glyph-name="cacute" horiz-adv-x="978" unicode="ć"/><glyph d="M657.5 1479q-55.5 0 -95.5 40t-40 95t40 94t95.5 39t95.5 -39t40 -94t-40 -95t-95.5 -40zM1108 856q-35 -10 -47 23q-4 12 -29 73q-92 236 -325 236q-172 0 -276.5 -126t-104.5 -372q0 -244 121.5 -408.5t297.5 -164.5q182 0 306 168q10 12 22 30.5t18.5 26.5t15.5 15.5 t19 7.5q20 0 48 -18.5t32 -37.5q6 -25 -24 -78q-147 -252 -492 -251q-258 0 -443.5 190t-185.5 494q0 276 172.5 458.5t421.5 182.5q231 0 371 -168q18 0 30.5 17t16.5 32.5t10 52.5q10 39 39 33l60 -10l24 -373z" glyph-name="Cdotaccent" horiz-adv-x="1269" unicode="Ċ"/><glyph d="M518 1130q-55 0 -95 40t-40 95.5t40 94.5t95 39t95 -39t40 -94.5t-40 -95.5t-95 -40zM891 182q-39 -74 -134 -134t-249 -60q-178 0 -312.5 134t-134.5 341q0 219 135.5 349t319.5 130q170 0 274.5 -78t104.5 -176q0 -43 -25.5 -69.5t-76.5 -26.5q-53 0 -82 23.5t-29 58.5 q0 41 -3 61.5t-14.5 46t-42 36.5t-81.5 11q-133 0 -190.5 -76.5t-57.5 -252.5q0 -164 78 -277.5t204 -111.5q20 0 39 3t32 5t29.5 11t24 12t22.5 16.5t19 16.5t20.5 20.5t18.5 19.5q33 37 62 12z" glyph-name="cdotaccent" horiz-adv-x="978" unicode="ċ"/><glyph d="M653 1415l-338 365h142l196 -138l197 138h141zM1108 856q-35 -10 -47 23q-4 12 -29 73q-92 236 -325 236q-172 0 -276.5 -126t-104.5 -372q0 -244 121.5 -408.5t297.5 -164.5q182 0 306 168q10 12 22 30.5t18.5 26.5t15.5 15.5t19 7.5q20 0 48 -18.5t32 -37.5 q6 -25 -24 -78q-147 -252 -492 -251q-258 0 -443.5 190t-185.5 494q0 276 172.5 458.5t421.5 182.5q231 0 371 -168q18 0 30.5 17t16.5 32.5t10 52.5q10 39 39 33l60 -10l24 -373z" glyph-name="Ccaron" horiz-adv-x="1269" unicode="Č"/><glyph d="M514 1067l-338 365h141l197 -138l197 138h141zM891 182q-39 -74 -134 -134t-249 -60q-178 0 -312.5 134t-134.5 341q0 219 135.5 349t319.5 130q170 0 274.5 -78t104.5 -176q0 -43 -25.5 -69.5t-76.5 -26.5q-53 0 -82 23.5t-29 58.5q0 41 -3 61.5t-14.5 46t-42 36.5 t-81.5 11q-133 0 -190.5 -76.5t-57.5 -252.5q0 -164 78 -277.5t204 -111.5q20 0 39 3t32 5t29.5 11t24 12t22.5 16.5t19 16.5t20.5 20.5t18.5 19.5q33 37 62 12z" glyph-name="ccaron" horiz-adv-x="978" unicode="č"/><glyph d="M641 1415l-338 365h141l197 -138l197 138h141zM535 1272q354 0 544.5 -150.5t190.5 -484.5q0 -158 -47 -276.5t-120 -187.5t-172.5 -109.5t-194.5 -52t-197 -5.5q-276 16 -478 -6v102q133 29 134 99v884q0 70 -132 95v92h472zM606 121q205 -12 301.5 121t96.5 395 q0 256 -110 392t-321 136h-141v-958q0 -78 66 -80z" glyph-name="Dcaron" horiz-adv-x="1341" unicode="Ď"/><glyph d="M1133 1352q51 0 76.5 -34t2.5 -93l-69 -191q-18 -51 -60 -51q-25 0 -39 14.5t-12 38.5l6 211q5 105 95 105zM950 193q0 -49 27 -66.5t86 -7.5l-6 -84l-166 -39q-49 -12 -96 38t-60 154q-27 -76 -95.5 -138t-184.5 -62q-156 0 -275 129t-119 346q0 201 121 339t293 138 q90 0 157.5 -42t102.5 -97v332q0 49 -26.5 69.5t-85.5 18.5v84l268 38q16 2 27.5 0t17.5 -10t10 -16t5 -24.5t1 -29t-1 -35t-1 -36.5v-999zM735 295v401q-102 123 -221 123q-104 0 -164.5 -95t-60.5 -235q0 -158 60.5 -257t164.5 -99q147 0 221 162z" glyph-name="dcaron" horiz-adv-x="1245" unicode="ď"/><glyph d="M535 1272q354 0 544.5 -150.5t190.5 -484.5q0 -158 -47 -276.5t-120 -187.5t-172.5 -109.5t-194.5 -52t-197 -5.5q-276 16 -478 -6v102q133 29 134 99v379h-132v112h132v393q0 70 -132 95v92h472zM606 121q205 -12 301.5 121t96.5 395q0 256 -110 392t-321 136h-141v-473 h184v-112h-184v-373q0 -78 66 -80z" glyph-name="Dcroat" horiz-adv-x="1341" unicode="Đ"/><glyph d="M1040 1114q41 0 41 -35v-71q0 -35 -41 -35h-90v-780q0 -49 27 -66.5t86 -7.5l-6 -84l-166 -39q-49 -12 -96 38t-60 154q-27 -76 -95.5 -138t-184.5 -62q-156 0 -275 129t-119 346q0 201 121 339t293 138q90 0 157.5 -42t102.5 -97v172h-274q-41 0 -41 35v71q0 35 41 35 h274v19q0 49 -26.5 69.5t-85.5 18.5v84l268 38q16 2 27.5 0t17.5 -10t10 -16t5 -24.5t1 -29t-1 -35t-1 -36.5v-78h90zM735 295v401q-102 123 -221 123q-104 0 -164.5 -95t-60.5 -235q0 -158 60.5 -257t164.5 -99q147 0 221 162z" glyph-name="dcroat" horiz-adv-x="1126" unicode="đ"/><glyph d="M260 1651q0 35 41 35h580q41 0 41 -35v-72q0 -35 -41 -35h-580q-41 0 -41 35v72zM1153 252q-29 -57 -66 -205q-12 -47 -61 -47h-965v92q63 14 93 33.5t30 60.5v901q0 41 -29.5 60.5t-93.5 34.5v90h940q20 0 27.5 -7.5t7.5 -29.5v-221h-90l-31 67q-18 41 -55 54.5 t-108 13.5h-326v-442h344q33 0 52.5 13t27.5 27.5t24 57.5h56v-313h-56q-31 74 -51 86q-18 14 -53 14h-344v-471l428 4q57 0 83 11t54 48l53 68h109z" glyph-name="Emacron" unicode="Ē"/><glyph d="M184 1303q0 35 41 34h580q41 0 41 -34v-72q0 -35 -41 -35h-580q-41 0 -41 35v72zM934 559q0 -59 -30 -94t-85 -35h-524q0 -139 74.5 -231.5t197.5 -92.5q137 0 248 134l78 -80q-131 -172 -356 -172q-199 0 -337.5 136t-138.5 345q0 215 133.5 344t315.5 129 q170 0 297 -111.5t127 -271.5zM717 537q0 143 -52.5 223t-154.5 80t-158.5 -81t-56.5 -222h422z" glyph-name="emacron" horiz-adv-x="995" unicode="ē"/><glyph d="M567.5 1479q-55.5 0 -95.5 40t-40 95t40 94t95.5 39t95 -39t39.5 -94t-39.5 -95t-95 -40zM1153 252q-29 -57 -66 -205q-12 -47 -61 -47h-965v92q63 14 93 33.5t30 60.5v901q0 41 -29.5 60.5t-93.5 34.5v90h940q20 0 27.5 -7.5t7.5 -29.5v-221h-90l-31 67q-18 41 -55 54.5 t-108 13.5h-326v-442h344q33 0 52.5 13t27.5 27.5t24 57.5h56v-313h-56q-31 74 -51 86q-18 14 -53 14h-344v-471l428 4q57 0 83 11t54 48l53 68h109z" glyph-name="Edotaccent" unicode="Ė"/><glyph d="M491.5 1130q-55.5 0 -95.5 40t-40 95.5t40 94.5t95.5 39t95.5 -39t40 -94.5t-40 -95.5t-95.5 -40zM934 559q0 -59 -30 -94t-85 -35h-524q0 -139 74.5 -231.5t197.5 -92.5q137 0 248 134l78 -80q-131 -172 -356 -172q-199 0 -337.5 136t-138.5 345q0 215 133.5 344 t315.5 129q170 0 297 -111.5t127 -271.5zM717 537q0 143 -52.5 223t-154.5 80t-158.5 -81t-56.5 -222h422z" glyph-name="edotaccent" horiz-adv-x="995" unicode="ė"/><glyph d="M891 -346q109 0 151 113h72q-8 -33 -25.5 -65t-50 -71t-91 -62.5t-134.5 -23.5q-96 0 -168 48.5t-72 142.5q0 96 81 164.5t182 99.5h-775v92q63 14 93 33.5t30 60.5v901q0 41 -29.5 60.5t-93.5 34.5v90h940q20 0 27.5 -7.5t7.5 -29.5v-221h-90l-31 67q-18 41 -55 54.5 t-108 13.5h-326v-442h344q33 0 52.5 13t27.5 27.5t24 57.5h56v-313h-56q-31 74 -51 86q-18 14 -53 14h-344v-471l428 4q57 0 83 11t54 48l53 68h109q-29 -57 -66 -205q-12 -47 -61 -47h-80q-170 -115 -170 -231q0 -49 33 -82t82 -33z" glyph-name="Eogonek" unicode="Ę"/><glyph d="M934 559q0 -59 -30 -94t-85 -35h-524q0 -139 74.5 -231.5t197.5 -92.5q137 0 248 134l78 -80q-74 -92 -160 -131v-9q-100 -47 -151.5 -95t-51.5 -124q0 -55 30 -86.5t79 -31.5q88 0 131 118h74q-10 -33 -27.5 -65.5t-51.5 -72.5t-91.5 -64.5t-128.5 -24.5 q-88 0 -152.5 46t-64.5 140q0 141 172 230q-186 12 -312.5 146t-126.5 333q0 215 133.5 344t315.5 129q170 0 297 -111.5t127 -271.5zM717 537q0 143 -52.5 223t-154.5 80t-158.5 -81t-56.5 -222h422z" glyph-name="eogonek" horiz-adv-x="995" unicode="ę"/><glyph d="M563 1415l-338 365h142l196 -138l197 138h141zM1153 252q-29 -57 -66 -205q-12 -47 -61 -47h-965v92q63 14 93 33.5t30 60.5v901q0 41 -29.5 60.5t-93.5 34.5v90h940q20 0 27.5 -7.5t7.5 -29.5v-221h-90l-31 67q-18 41 -55 54.5t-108 13.5h-326v-442h344q33 0 52.5 13 t27.5 27.5t24 57.5h56v-313h-56q-31 74 -51 86q-18 14 -53 14h-344v-471l428 4q57 0 83 11t54 48l53 68h109z" glyph-name="Ecaron" unicode="Ě"/><glyph d="M487 1067l-337 365h141l196 -138l197 138h141zM934 559q0 -59 -30 -94t-85 -35h-524q0 -139 74.5 -231.5t197.5 -92.5q137 0 248 134l78 -80q-131 -172 -356 -172q-199 0 -337.5 136t-138.5 345q0 215 133.5 344t315.5 129q170 0 297 -111.5t127 -271.5zM717 537 q0 143 -52.5 223t-154.5 80t-158.5 -81t-56.5 -222h422z" glyph-name="ecaron" horiz-adv-x="995" unicode="ě"/><glyph d="M672 1468q-123 0 -204 76t-87 197q0 23 20 22h60q20 0 22 -22q6 -47 57.5 -79t131.5 -32t131 32t57 79q2 23 23 22h59q20 0 21 -22q-6 -121 -87 -197t-204 -76zM829 604q238 -14 506 2v-106h-63q-66 0 -66 -66v-424q0 -20 -35.5 -24t-40.5 14l-49 160q-90 -86 -180 -133 t-219 -47q-279 0 -450 183t-171 501q0 276 172.5 458.5t421.5 182.5q231 0 371 -168q18 0 30.5 17t16.5 32.5t10 52.5q10 39 39 33l60 -10l24 -373l-98 -33q-35 -10 -47 23q-4 12 -29 73q-92 236 -325 236q-172 0 -276.5 -126t-104.5 -372q0 -272 107.5 -422.5t299.5 -150.5 q100 0 177 44t77 105v168q0 66 -65 66h-93v104z" glyph-name="Gbreve" horiz-adv-x="1396" unicode="Ğ"/><glyph d="M569 1120q-123 0 -203.5 76t-86.5 197q0 23 20 22h59q20 0 23 -22q6 -47 57 -79t131 -32t131.5 32t57.5 79q2 23 22 22h60q20 0 20 -22q-6 -121 -87 -197t-204 -76zM975 758q-39 10 -53.5 -15.5t-14.5 -113.5q2 -127 -99 -217t-280 -90q-72 0 -145 22q-102 10 -121 -39 q-14 -45 57 -80q35 -16 82 -24l203 -31q221 -37 314.5 -95.5t93.5 -189.5q0 -152 -142.5 -244t-361.5 -92q-217 0 -337 69t-120 189q0 100 65.5 163t164.5 87q-164 31 -211 144q-39 90 26 157q57 57 164 50q-123 92 -123 227q0 129 96.5 216t278.5 87q115 0 200 -39 t105 -106q18 145 144 145q117 0 116 -94q0 -45 -31.5 -72.5t-70.5 -13.5zM520 428q57 0 96 18.5t55.5 52t21.5 64.5t5 74q0 41 -5 69.5t-21.5 59.5t-54 47t-97.5 16q-174 0 -174 -192q0 -209 174 -209zM381 37q-55 -23 -84 -81t-29 -118q0 -86 64.5 -136t195.5 -50 q145 0 213 44t68 161q0 66 -36 94.5t-128 44.5z" glyph-name="gbreve" horiz-adv-x="1118" unicode="ğ"/><glyph d="M657.5 1479q-55.5 0 -95.5 40t-40 95t40 94t95.5 39t95.5 -39t40 -94t-40 -95t-95.5 -40zM829 604q238 -14 506 2v-106h-63q-66 0 -66 -66v-424q0 -20 -35.5 -24t-40.5 14l-49 160q-90 -86 -180 -133t-219 -47q-279 0 -450 183t-171 501q0 276 172.5 458.5t421.5 182.5 q231 0 371 -168q18 0 30.5 17t16.5 32.5t10 52.5q10 39 39 33l60 -10l24 -373l-98 -33q-35 -10 -47 23q-4 12 -29 73q-92 236 -325 236q-172 0 -276.5 -126t-104.5 -372q0 -272 107.5 -422.5t299.5 -150.5q100 0 177 44t77 105v168q0 66 -65 66h-93v104z" glyph-name="Gdotaccent" horiz-adv-x="1396" unicode="Ġ"/><glyph d="M555 1130q-55 0 -95 40t-40 95.5t40 94.5t95 39t95 -39t40 -94.5t-40 -95.5t-95 -40zM975 758q-39 10 -53.5 -15.5t-14.5 -113.5q2 -127 -99 -217t-280 -90q-72 0 -145 22q-102 10 -121 -39q-14 -45 57 -80q35 -16 82 -24l203 -31q221 -37 314.5 -95.5t93.5 -189.5 q0 -152 -142.5 -244t-361.5 -92q-217 0 -337 69t-120 189q0 100 65.5 163t164.5 87q-164 31 -211 144q-39 90 26 157q57 57 164 50q-123 92 -123 227q0 129 96.5 216t278.5 87q115 0 200 -39t105 -106q18 145 144 145q117 0 116 -94q0 -45 -31.5 -72.5t-70.5 -13.5zM520 428 q57 0 96 18.5t55.5 52t21.5 64.5t5 74q0 41 -5 69.5t-21.5 59.5t-54 47t-97.5 16q-174 0 -174 -192q0 -209 174 -209zM381 37q-55 -23 -84 -81t-29 -118q0 -86 64.5 -136t195.5 -50q145 0 213 44t68 161q0 66 -36 94.5t-128 44.5z" glyph-name="gdotaccent" horiz-adv-x="1118" unicode="ġ"/><glyph d="M829 604q238 -14 506 2v-106h-63q-66 0 -66 -66v-424q0 -20 -35.5 -24t-40.5 14l-49 160q-90 -86 -180 -133t-219 -47q-279 0 -450 183t-171 501q0 276 172.5 458.5t421.5 182.5q231 0 371 -168q18 0 30.5 17t16.5 32.5t10 52.5q10 39 39 33l60 -10l24 -373l-98 -33 q-35 -10 -47 23q-4 12 -29 73q-92 236 -325 236q-172 0 -276.5 -126t-104.5 -372q0 -272 107.5 -422.5t299.5 -150.5q100 0 177 44t77 105v168q0 66 -65 66h-93v104zM831 -465q-31 -102 -112 -174q-23 -14 -41 4l-37 41q63 72 76 102q18 53 10 82q-25 -6 -57 -4 q-45 6 -76 48t-23 92q6 55 48.5 88.5t95.5 27.5q51 -6 83.5 -44t41.5 -85q16 -92 -9 -178z" glyph-name="Gcommaaccent" horiz-adv-x="1396" unicode="Ģ"/><glyph d="M516 1085q-51 6 -83 43t-40 84q-18 94 8 181q31 102 113 174q25 14 39 -4l39 -43q-61 -66 -76 -103q-23 -53 -10 -80q18 4 57 2q45 -6 76 -48t23 -91q-6 -55 -48.5 -88t-97.5 -27zM975 758q-39 10 -53.5 -15.5t-14.5 -113.5q2 -127 -99 -217t-280 -90q-72 0 -145 22 q-102 10 -121 -39q-14 -45 57 -80q35 -16 82 -24l203 -31q221 -37 314.5 -95.5t93.5 -189.5q0 -152 -142.5 -244t-361.5 -92q-217 0 -337 69t-120 189q0 100 65.5 163t164.5 87q-164 31 -211 144q-39 90 26 157q57 57 164 50q-123 92 -123 227q0 129 96.5 216t278.5 87 q115 0 200 -39t105 -106q18 145 144 145q117 0 116 -94q0 -45 -31.5 -72.5t-70.5 -13.5zM520 428q57 0 96 18.5t55.5 52t21.5 64.5t5 74q0 41 -5 69.5t-21.5 59.5t-54 47t-97.5 16q-174 0 -174 -192q0 -209 174 -209zM381 37q-55 -23 -84 -81t-29 -118q0 -86 64.5 -136 t195.5 -50q145 0 213 44t68 161q0 66 -36 94.5t-128 44.5z" glyph-name="gcommaaccent" horiz-adv-x="1128" unicode="ģ"/><glyph d="M1337 1182q-63 -14 -93 -34t-30 -61v-907q0 -41 30 -60.5t93 -33.5v-86h-485v86q63 14 93 33.5t30 60.5v406h-551v-406q0 -41 29.5 -60.5t93.5 -33.5v-86h-486v86q63 14 93 33.5t30 60.5v907q0 41 -29.5 60.5t-93.5 34.5v90h486v-90q-63 -14 -93 -34t-30 -61v-143h551 v143q0 41 -30 60.5t-93 34.5v90h485v-90zM424 702h551v123h-551v-123z" glyph-name="Hbar" horiz-adv-x="1398" unicode="Ħ"/><glyph d="M1040 205q0 -57 26 -81t97 -7l-26 -97q-55 -20 -142 -20q-80 0 -124 42t-44 105v412q0 123 -31.5 182.5t-119.5 59.5q-131 0 -281 -174v-486q0 -35 23.5 -46t79.5 -11v-84h-412v84q51 0 73.5 11t22.5 46v875h-131v102h131v15q0 96 -121 79v93l273 36q49 6 57 -39t-2 -112 v-72h354v-102h-354v-225l-10 -74q131 227 342 227q156 0 236.5 -79t82.5 -279v-381z" glyph-name="hbar" unicode="ħ"/><glyph d="M-20 1651q0 35 40 35h580q41 0 41 -35v-72q0 -35 -41 -35h-580q-41 0 -40 35v72zM424 180q0 -41 30.5 -60.5t94.5 -33.5v-86h-488v86q63 14 94 33.5t31 60.5v907q0 41 -30.5 60.5t-94.5 34.5v90h488v-90q-63 -14 -94 -34t-31 -61v-907z" glyph-name="Imacron" horiz-adv-x="610" unicode="Ī"/><glyph d="M-82 1303q0 35 41 34h580q41 0 41 -34v-72q0 -35 -41 -35h-580q-41 0 -41 35v72zM383 141q0 -57 88 -57v-84h-391v84q90 0 90 57v611q0 35 -13.5 49t-43.5 14h-41v94l245 19q66 6 66 -64v-723z" glyph-name="imacron" horiz-adv-x="542" unicode="ī"/><glyph d="M549 1182q-63 -14 -94 -34t-31 -61v-907q0 -41 30.5 -60.5t94.5 -33.5v-86h-187q-170 -115 -169 -231q0 -49 32.5 -82t81.5 -33q109 0 152 113h71q-8 -33 -25.5 -65t-50 -71t-91 -62.5t-134.5 -23.5q-96 0 -167.5 48.5t-71.5 142.5q0 96 81 164.5t181 99.5h-191v86 q63 14 94 33.5t31 60.5v907q0 41 -30.5 60.5t-94.5 34.5v90h488v-90z" glyph-name="Iogonek" horiz-adv-x="610" unicode="Į"/><glyph d="M225.5 1130q-55.5 0 -95.5 40t-40 95.5t40 94.5t95.5 39t95 -39t39.5 -94.5t-39.5 -95.5t-95 -40zM426 -233h72q-8 -33 -25.5 -65t-50.5 -71t-91.5 -62.5t-133.5 -23.5q-96 0 -168 48.5t-72 142.5q0 96 81 164.5t181 99.5h-139v84q90 0 90 57v611q0 35 -13.5 49t-43.5 14 h-41v94l245 19q66 6 66 -64v-723q0 -57 88 -57v-84h-141q-170 -115 -170 -231q0 -49 32.5 -82t81.5 -33q109 0 152 113z" glyph-name="iogonek" horiz-adv-x="542" unicode="į"/><glyph d="M286.5 1479q-55.5 0 -95 40t-39.5 95t39.5 94t95 39t95.5 -39t40 -94t-40 -95t-95.5 -40zM424 180q0 -41 30.5 -60.5t94.5 -33.5v-86h-488v86q63 14 94 33.5t31 60.5v907q0 41 -30.5 60.5t-94.5 34.5v90h488v-90q-63 -14 -94 -34t-31 -61v-907z" glyph-name="Idotaccent" horiz-adv-x="610" unicode="İ"/><glyph d="M383 141q0 -57 88 -57v-84h-391v84q90 0 90 57v611q0 35 -13.5 49t-43.5 14h-41v94l245 19q66 6 66 -64v-723z" glyph-name="dotlessi" horiz-adv-x="542" unicode="ı"/><glyph d="M424 180q0 -41 30.5 -60.5t94.5 -33.5v-86h-488v86q63 14 94 33.5t31 60.5v907q0 41 -30.5 60.5t-94.5 34.5v90h488v-90q-63 -14 -94 -34t-31 -61v-907zM1311 1272v-90q-63 -14 -93 -34t-30 -61v-1103q0 -176 -81 -252t-237 -76q-121 0 -195.5 56.5t-74.5 137.5 q0 125 121 125q96 0 96 -106q0 -111 68 -111q63 0 63 109v1220q0 41 -29.5 60.5t-93.5 34.5v90h486z" glyph-name="IJ" horiz-adv-x="1372" unicode="Ĳ"/><glyph d="M260 1108q-55 0 -94 39t-39 92t39 92t94 39q53 0 92 -39t39 -92t-39 -92t-92 -39zM825 1108q-55 0 -94 39t-39 92t39 92t94 39q53 0 92 -39t39 -92t-39 -92t-92 -39zM383 141q0 -57 88 -57v-84h-391v84q90 0 90 57v607q0 35 -13.5 49t-43.5 14h-41v94l245 35q66 8 66 -76 v-723zM883 928q66 6 65 -64v-1016q0 -188 -168 -258q-111 -43 -204 -17t-132 103q-23 41 -12.5 89.5t51.5 68.5q49 20 83 8t50 -47q8 -16 20.5 -59t23 -63.5t26.5 -14.5q49 20 49 102v992q0 35 -13 49t-44 14h-41v94z" glyph-name="ij" horiz-adv-x="1089" unicode="ĳ"/><glyph d="M1094 244q57 -61 107 -97t74.5 -45.5t72.5 -19.5v-82h-531v82q78 23 84 33q4 10 -8 24l-408 424h-61v-383q0 -41 30.5 -60.5t94.5 -33.5v-86h-488v86q63 14 94 33.5t31 60.5v907q0 41 -30.5 60.5t-94.5 34.5v90h488v-90q-63 -14 -94 -34t-31 -61v-393h35q55 0 98 43 l369 389q27 27 4 39.5t-68 18.5v88h387v-88q-129 -14 -168 -56l-411 -430zM678 -158q51 -6 84 -44t41 -85q16 -92 -8 -178q-31 -102 -113 -174q-23 -14 -41 4l-37 41q63 72 76 102q18 53 10 82q-25 -6 -57 -4q-45 6 -76 48t-22 92q6 55 48 88.5t95 27.5z" glyph-name="Kcommaaccent" horiz-adv-x="1409" unicode="Ķ"/><glyph d="M967 133q33 -33 52 -42t62 -9v-82h-403v82q72 0 65 27q-2 6 -8 12l-356 336v-318q0 -57 65 -57v-82h-354v82q74 0 74 57v1014q0 68 -55 68h-58v84l279 41q49 6 49 -39v-779l299 254q33 29 0 45q-18 10 -60 11v86q186 -16 373 0v-86q-96 0 -143 -41l-293 -254zM590 -158 q51 -6 84 -44t41 -85q16 -92 -8 -178q-31 -102 -113 -174q-23 -14 -41 4l-37 41q63 72 76 102q18 53 10 82q-25 -6 -57 -4q-45 6 -76 48t-23 92q6 55 48.5 88.5t95.5 27.5z" glyph-name="kcommaaccent" horiz-adv-x="1112" unicode="ķ"/><glyph d="M258 1526l217 233q80 88 150 10q33 -45 18.5 -86t-61.5 -69l-277 -160q-37 -23 -57 8q-23 31 10 64zM1149 260l-49 -213q-12 -47 -62 -47h-977v86q63 14 94 33.5t31 60.5v907q0 41 -30.5 60.5t-94.5 34.5v90h488v-90q-63 -14 -94 -34t-31 -61v-886q0 -37 24.5 -62.5 t61.5 -23.5l332 16q53 2 76.5 5t48 17.5t39.5 41.5l32 65h111z" glyph-name="Lacute" horiz-adv-x="1210" unicode="Ĺ"/><glyph d="M211 1526l217 233q80 88 150 10q33 -45 18.5 -86t-61.5 -69l-277 -160q-37 -23 -57 8q-23 31 10 64zM379 139q0 -57 65 -57v-82h-354v82q74 0 74 57v1014q0 68 -55 68h-58v84l279 41q49 6 49 -39v-1168z" glyph-name="lacute" horiz-adv-x="516" unicode="ĺ"/><glyph d="M1149 260l-49 -213q-12 -47 -62 -47h-977v86q63 14 94 33.5t31 60.5v907q0 41 -30.5 60.5t-94.5 34.5v90h488v-90q-63 -14 -94 -34t-31 -61v-886q0 -37 24.5 -62.5t61.5 -23.5l332 16q53 2 76.5 5t48 17.5t39.5 41.5l32 65h111zM735 -465q-31 -102 -112 -174 q-23 -14 -41 4l-37 41q63 72 76 102q18 53 10 82q-25 -6 -58 -4q-45 6 -75.5 48t-22.5 92q6 55 48 88.5t95 27.5q51 -6 84 -44t41 -85q17 -92 -8 -178z" glyph-name="Lcommaaccent" horiz-adv-x="1210" unicode="Ļ"/><glyph d="M379 139q0 -57 65 -57v-82h-354v82q74 0 74 57v1014q0 68 -55 68h-58v84l279 41q49 6 49 -39v-1168zM387 -465q-31 -102 -113 -174q-23 -14 -41 4l-36 41q63 72 75 102q18 53 11 82q-25 -6 -58 -4q-45 6 -75.5 48t-22.5 92q6 55 48 88.5t95 27.5q51 -6 84 -44t41 -85 q17 -92 -8 -178z" glyph-name="lcommaaccent" horiz-adv-x="516" unicode="ļ"/><glyph d="M915 965q-31 -104 -114 -174q-23 -12 -39 4l-37 41q63 72 76 104q18 51 10 80q-18 -4 -57 -2q-45 6 -76 48t-25 91q6 55 49 88t97 27q51 -6 83.5 -43t41.5 -84q16 -96 -9 -180zM1149 260l-49 -213q-12 -47 -62 -47h-977v86q63 14 94 33.5t31 60.5v907q0 41 -30.5 60.5 t-94.5 34.5v90h488v-90q-63 -14 -94 -34t-31 -61v-886q0 -37 24.5 -62.5t61.5 -23.5l332 16q53 2 76.5 5t48 17.5t39.5 41.5l32 65h111z" glyph-name="Lcaron" horiz-adv-x="1220" unicode="Ľ"/><glyph d="M432 1036l6 211q4 104 94 105q51 0 77 -34t3 -93l-69 -191q-18 -51 -60 -51q-25 0 -39 14t-12 39zM379 139q0 -57 65 -57v-82h-354v82q74 0 74 57v1014q0 68 -55 68h-58v84l279 41q49 6 49 -39v-1168z" glyph-name="lcaron" horiz-adv-x="645" unicode="ľ"/><glyph d="M1149 260l-49 -213q-12 -47 -62 -47h-977v86q63 14 94 33.5t31 60.5v907q0 41 -30.5 60.5t-94.5 34.5v90h488v-90q-63 -14 -94 -34t-31 -61v-886q0 -37 24.5 -62.5t61.5 -23.5l332 16q53 2 76.5 5t48 17.5t39.5 41.5l32 65h111zM719 680q-53 0 -91 39t-38 92t39 91t90 38 t90 -38t39 -91t-38 -92t-91 -39z" glyph-name="Ldot" horiz-adv-x="1220" unicode="Ŀ"/><glyph d="M379 139q0 -57 65 -57v-82h-354v82q74 0 74 57v1014q0 68 -55 68h-58v84l279 41q49 6 49 -39v-1168zM592 676q-53 0 -91 39t-38 92t39 91t90 38t90 -38t39 -91t-38 -92t-91 -39z" glyph-name="ldot" horiz-adv-x="780" unicode="ŀ"/><glyph d="M1059 260h110l-49 -213q-10 -47 -61 -47h-977v86q63 14 94 33.5t31 60.5v336l-146 -49v129l146 49v442q0 41 -31 60.5t-94 34.5v90h487v-90q-63 -14 -94 -34t-31 -61v-362l361 121v-129l-361 -121v-395q2 -37 26 -62.5t62 -23.5l330 16q53 2 77 5t48.5 17.5t38.5 41.5z " glyph-name="Lslash" horiz-adv-x="1241" unicode="Ł"/><glyph d="M584 653l-174 -55v-459q0 -57 65 -57v-82h-354v82q74 0 74 57v393l-175 -53v158l175 55v461q0 68 -56 68h-57v84l278 41q49 6 50 -39v-549l174 53v-158z" glyph-name="lslash" horiz-adv-x="604" unicode="ł"/><glyph d="M637 1526l217 233q80 88 150 10q33 -45 18.5 -86t-61.5 -69l-277 -160q-37 -23 -57 8q-23 31 10 64zM1356 1272v-86q-127 -27 -127 -94v-1092q0 -16 -39 -16t-51 16l-822 981v-799q0 -70 127 -94v-88h-383v88q127 25 127 94v910q0 70 -127 94v86h338l682 -862v682 q0 70 -125 94v86h400z" glyph-name="Nacute" horiz-adv-x="1417" unicode="Ń"/><glyph d="M512 1178l217 233q80 88 150 10q33 -45 18.5 -86t-61.5 -69l-277 -160q-37 -23 -57 8q-23 31 10 64zM1030 205q0 -57 25.5 -81t97.5 -7l-27 -97q-57 -20 -141 -20q-80 0 -124 42t-44 105v412q0 121 -32.5 181.5t-118.5 60.5q-154 0 -281 -174v-486q0 -35 23.5 -46 t78.5 -11v-84h-411v84q51 0 73.5 11t22.5 46v590q0 96 -121 80v94l275 35q51 6 58 -39t-7 -113l-8 -71q23 45 59.5 89t117.5 91t173 47q147 0 228 -80t83 -278v-381z" glyph-name="nacute" horiz-adv-x="1193" unicode="ń"/><glyph d="M1356 1272v-86q-127 -27 -127 -94v-1092q0 -16 -39 -16t-51 16l-822 981v-799q0 -70 127 -94v-88h-383v88q127 25 127 94v910q0 70 -127 94v86h338l682 -862v682q0 70 -125 94v86h400zM874 -465q-31 -102 -112 -174q-23 -14 -41 4l-37 41q63 72 76 102q18 53 10 82 q-25 -6 -57 -4q-45 6 -76 48t-23 92q6 55 48.5 88.5t95.5 27.5q51 -6 83.5 -44t41.5 -85q16 -92 -9 -178z" glyph-name="Ncommaaccent" horiz-adv-x="1417" unicode="Ņ"/><glyph d="M1030 205q0 -57 25.5 -81t97.5 -7l-27 -97q-57 -20 -141 -20q-80 0 -124 42t-44 105v412q0 121 -32.5 181.5t-118.5 60.5q-154 0 -281 -174v-486q0 -35 23.5 -46t78.5 -11v-84h-411v84q51 0 73.5 11t22.5 46v590q0 96 -121 80v94l275 35q51 6 58 -39t-7 -113l-8 -71 q23 45 59.5 89t117.5 91t173 47q147 0 228 -80t83 -278v-381zM750 -465q-31 -102 -113 -174q-23 -14 -41 4l-37 41q63 72 76 102q18 53 10 82q-25 -6 -57 -4q-45 6 -76 48t-23 92q6 55 48.5 88.5t95.5 27.5q51 -6 84 -44t41 -85q17 -92 -8 -178z" glyph-name="ncommaaccent" horiz-adv-x="1193" unicode="ņ"/><glyph d="M686 1415l-338 365h141l197 -138l197 138h141zM1356 1272v-86q-127 -27 -127 -94v-1092q0 -16 -39 -16t-51 16l-822 981v-799q0 -70 127 -94v-88h-383v88q127 25 127 94v910q0 70 -127 94v86h338l682 -862v682q0 70 -125 94v86h400z" glyph-name="Ncaron" horiz-adv-x="1417" unicode="Ň"/><glyph d="M561 1067l-338 365h142l196 -138l197 138h141zM1030 205q0 -57 25.5 -81t97.5 -7l-27 -97q-57 -20 -141 -20q-80 0 -124 42t-44 105v412q0 121 -32.5 181.5t-118.5 60.5q-154 0 -281 -174v-486q0 -35 23.5 -46t78.5 -11v-84h-411v84q51 0 73.5 11t22.5 46v590 q0 96 -121 80v94l275 35q51 6 58 -39t-7 -113l-8 -71q23 45 59.5 89t117.5 91t173 47q147 0 228 -80t83 -278v-381z" glyph-name="ncaron" horiz-adv-x="1193" unicode="ň"/><glyph d="M956 1272h400v-86q-127 -27 -127 -94v-1092v-35q0 -211 -195 -266q-150 -41 -250 -17.5t-125 103.5q-14 53 0.5 90t51.5 53q35 14 68.5 4t45.5 -34q2 -4 13.5 -33t22.5 -50.5t34 -38t49 -12.5q47 10 47 103v309l-674 805v-799q0 -70 127 -94v-88h-383v88q127 25 127 94 v910q0 70 -127 94v86h338l682 -862v682q0 70 -125 94v86z" glyph-name="Eng" horiz-adv-x="1417" unicode="Ŋ"/><glyph d="M715 944q156 0 238.5 -79t82.5 -279v-738q0 -186 -172 -258q-111 -43 -205 -17t-131 103q-23 41 -13.5 89.5t50.5 68.5q49 20 84 8t51 -47q8 -16 20.5 -59t23 -63.5t26.5 -14.5q49 20 49 102v799q0 123 -30.5 182.5t-118.5 59.5q-131 0 -281 -174v-486q0 -35 23.5 -46 t79.5 -11v-84h-416v84q51 0 73.5 11t22.5 46v590q0 96 -121 80v94l279 35q51 6 58 -39t-7 -113l-8 -71q131 227 342 227z" glyph-name="eng" horiz-adv-x="1159" unicode="ŋ"/><glyph d="M358 1651q0 35 41 35h580q41 0 41 -35v-72q0 -35 -41 -35h-580q-41 0 -41 35v72zM1309 653q0 -287 -179.5 -480t-443.5 -193q-270 0 -447.5 186t-177.5 487q0 285 178.5 468.5t446.5 183.5q264 0 443.5 -186.5t179.5 -465.5zM729 119q70 0 123 20.5t99 69.5t71 145.5 t25 235.5q0 268 -112 431t-288 163q-324 0 -323 -471q0 -264 114.5 -429t290.5 -165z" glyph-name="Omacron" horiz-adv-x="1370" unicode="Ō"/><glyph d="M201 1303q0 35 41 34h579q41 0 41 -34v-72q0 -35 -41 -35h-579q-41 0 -41 35v72zM524.5 942q186.5 0 325.5 -129t139 -340q0 -217 -138 -351t-322.5 -134t-326 132t-141.5 337q0 221 138.5 353t325 132zM760 408q0 195 -72 306t-184 111q-213 0 -213 -303 q0 -184 71.5 -295.5t182.5 -111.5q215 0 215 293z" glyph-name="omacron" horiz-adv-x="1050" unicode="ō"/><glyph d="M350 1526l217 233q80 88 150 10q33 -45 18.5 -86t-61.5 -69l-277 -160q-37 -23 -57 8q-23 31 10 64zM774 1526l217 233q80 88 150 10q33 -45 18.5 -86t-61.5 -69l-277 -160q-37 -23 -57 8q-23 31 10 64zM1309 653q0 -287 -179.5 -480t-443.5 -193q-270 0 -447.5 186 t-177.5 487q0 285 178.5 468.5t446.5 183.5q264 0 443.5 -186.5t179.5 -465.5zM729 119q70 0 123 20.5t99 69.5t71 145.5t25 235.5q0 268 -112 431t-288 163q-324 0 -323 -471q0 -264 114.5 -429t290.5 -165z" glyph-name="Ohungarumlaut" horiz-adv-x="1370" unicode="Ő"/><glyph d="M195 1178l217 233q80 88 149 10q33 -45 18.5 -86t-61.5 -69l-276 -160q-37 -23 -58 8q-22 31 11 64zM618 1178l218 233q80 88 149 10q33 -45 18.5 -86t-61.5 -69l-276 -160q-37 -23 -58 8q-23 31 10 64zM524.5 942q186.5 0 325.5 -129t139 -340q0 -217 -138 -351 t-322.5 -134t-326 132t-141.5 337q0 221 138.5 353t325 132zM760 408q0 195 -72 306t-184 111q-213 0 -213 -303q0 -184 71.5 -295.5t182.5 -111.5q215 0 215 293z" glyph-name="ohungarumlaut" horiz-adv-x="1050" unicode="ő"/><glyph d="M1860 252h106q-29 -57 -65 -205q-12 -47 -62 -47h-948q-92 -31 -193 -31q-272 0 -454.5 187.5t-182.5 490.5q0 289 183.5 473.5t453.5 184.5q100 0 203 -33h916q20 0 27 -7.5t7 -29.5v-221h-92l-30 67q-18 41 -55.5 54.5t-108.5 13.5h-326v-442h346q33 0 52.5 13 t27.5 27.5t25 57.5h53v-313h-53q-31 74 -52 86q-18 14 -53 14h-346v-471l430 4q57 0 83 11t54 48zM326 709q0 -260 115.5 -429t267.5 -169q207 0 288 133v700q-49 115 -130 178.5t-169 63.5q-180 0 -276 -109.5t-96 -367.5z" glyph-name="OE" horiz-adv-x="2017" unicode="Œ"/><glyph d="M1630 561q0 -59 -29.5 -94t-84.5 -35h-527q0 -139 76 -231t199 -92q137 0 247 133l78 -80q-131 -172 -356 -172q-221 0 -359 160q-137 -162 -346 -162q-184 0 -325.5 132t-141.5 337q0 221 138.5 353t324.5 132q207 0 346 -149q129 152 336 151q170 0 297 -111.5 t127 -271.5zM1411 539q2 141 -50 222t-154.5 81t-160 -82t-57.5 -221h422zM760 408v22q-2 10 -2 33q-10 170 -80 266t-174 96q-213 0 -213 -303q0 -184 71.5 -295.5t182.5 -111.5q215 0 215 293z" glyph-name="oe" horiz-adv-x="1691" unicode="œ"/><glyph d="M588 1526l217 233q80 88 149 10q33 -45 18.5 -86t-61.5 -69l-276 -160q-37 -23 -57 8q-23 31 10 64zM1292 94v-94h-135q-133 0 -209 77t-133 253q-41 125 -97 175t-159 50h-137v-375q0 -41 29.5 -60.5t93.5 -33.5v-86h-484v86q63 14 93 33.5t30 60.5v901q0 78 -123 105 v86h617q217 0 347 -97.5t130 -250.5q0 -127 -91 -216.5t-271 -109.5q229 -31 305 -254q16 -53 25.5 -80.5t25.5 -65.5t31.5 -56.5t40 -32t53.5 -15.5h18zM676 670q123 0 175 71.5t52 182t-52 181.5t-159 71h-270v-506h254z" glyph-name="Racute" horiz-adv-x="1333" unicode="Ŕ"/><glyph d="M399 1178l217 233q80 88 150 10q33 -45 18.5 -86t-61.5 -69l-277 -160q-37 -23 -57 8q-23 31 10 64zM752 741q-20 -27 -41 -28.5t-37.5 12.5t-45 28.5t-59.5 14.5q-53 0 -95 -48t-61.5 -100.5t-27.5 -105.5v-375q0 -35 25.5 -46t85.5 -11v-82h-426v82q55 0 79.5 12 t24.5 45v592q0 51 -28.5 68.5t-94.5 9.5v94l275 35q49 6 57 -39t-6 -115l-19 -172q41 170 117 246t197 76q88 0 131 -36t0 -91z" glyph-name="racute" horiz-adv-x="856" unicode="ŕ"/><glyph d="M1292 94v-94h-135q-133 0 -209 77t-133 253q-41 125 -97 175t-159 50h-137v-375q0 -41 29.5 -60.5t93.5 -33.5v-86h-484v86q63 14 93 33.5t30 60.5v901q0 78 -123 105v86h617q217 0 347 -97.5t130 -250.5q0 -127 -91 -216.5t-271 -109.5q229 -31 305 -254 q16 -53 25.5 -80.5t25.5 -65.5t31.5 -56.5t40 -32t53.5 -15.5h18zM676 670q123 0 175 71.5t52 182t-52 181.5t-159 71h-270v-506h254zM813 -465q-31 -102 -113 -174q-23 -14 -41 4l-36 41q63 72 75 102q18 53 11 82q-25 -6 -58 -4q-45 6 -75.5 48t-22.5 92q6 55 48 88.5 t95 27.5q51 -6 84 -44t41 -85q17 -92 -8 -178z" glyph-name="Rcommaaccent" horiz-adv-x="1333" unicode="Ŗ"/><glyph d="M752 741q-20 -27 -41 -28.5t-37.5 12.5t-45 28.5t-59.5 14.5q-53 0 -95 -48t-61.5 -100.5t-27.5 -105.5v-375q0 -35 25.5 -46t85.5 -11v-82h-426v82q55 0 79.5 12t24.5 45v592q0 51 -28.5 68.5t-94.5 9.5v94l275 35q49 6 57 -39t-6 -115l-19 -172q41 170 117 246t197 76 q88 0 131 -36t0 -91zM408 -465q-31 -102 -113 -174q-23 -14 -41 4l-37 41q63 72 76 102q18 53 10 82q-25 -6 -57 -4q-45 6 -76 48t-23 92q6 55 48.5 88.5t95.5 27.5q51 -6 84 -44t41 -85q17 -92 -8 -178z" glyph-name="rcommaaccent" horiz-adv-x="856" unicode="ŗ"/><glyph d="M637 1415l-338 365h141l197 -138l197 138h141zM1292 94v-94h-135q-133 0 -209 77t-133 253q-41 125 -97 175t-159 50h-137v-375q0 -41 29.5 -60.5t93.5 -33.5v-86h-484v86q63 14 93 33.5t30 60.5v901q0 78 -123 105v86h617q217 0 347 -97.5t130 -250.5q0 -127 -91 -216.5 t-271 -109.5q229 -31 305 -254q16 -53 25.5 -80.5t25.5 -65.5t31.5 -56.5t40 -32t53.5 -15.5h18zM676 670q123 0 175 71.5t52 182t-52 181.5t-159 71h-270v-506h254z" glyph-name="Rcaron" horiz-adv-x="1333" unicode="Ř"/><glyph d="M449 1067l-338 365h141l197 -138l196 138h141zM752 741q-20 -27 -41 -28.5t-37.5 12.5t-45 28.5t-59.5 14.5q-53 0 -95 -48t-61.5 -100.5t-27.5 -105.5v-375q0 -35 25.5 -46t85.5 -11v-82h-426v82q55 0 79.5 12t24.5 45v592q0 51 -28.5 68.5t-94.5 9.5v94l275 35 q49 6 57 -39t-6 -115l-19 -172q41 170 117 246t197 76q88 0 131 -36t0 -91z" glyph-name="rcaron" horiz-adv-x="856" unicode="ř"/><glyph d="M543 1526l217 233q80 88 149 10q33 -45 18.5 -86t-61.5 -69l-276 -160q-37 -23 -58 8q-22 31 11 64zM940 883q-41 -6 -49 24l-23 82q-20 84 -110 145.5t-195 61.5q-129 0 -191.5 -67.5t-49.5 -161.5q4 -35 23.5 -65t40 -47t64.5 -37.5t71.5 -30t86.5 -27.5q4 -2 48 -14.5 t62.5 -18.5t64.5 -22.5t72 -32t66 -38t63.5 -48t50 -57t41 -71.5t18.5 -83q10 -100 -32 -181t-117 -128.5t-163 -72t-178 -24.5q-106 0 -233 46t-193 24l-106 321l90 33q45 14 67 -26q43 -80 45 -84q98 -195 326 -195q119 0 193.5 51t64.5 156q-4 39 -24.5 71.5t-42 53 t-71.5 42t-74.5 30t-88.5 26.5q-18 6 -27 8q-59 18 -100 33.5t-102.5 47.5t-101.5 69t-73.5 95t-43.5 128q-20 166 105.5 286t346.5 120q115 0 198 -31t144.5 -69t106.5 -46l26 -260z" glyph-name="Sacute" horiz-adv-x="1157" unicode="Ś"/><glyph d="M412 1178l217 233q80 88 149 10q33 -45 18.5 -86t-61.5 -69l-276 -160q-37 -23 -58 8q-22 31 11 64zM872 262q0 -125 -119.5 -199.5t-295.5 -74.5q-139 0 -255 55t-130 96q-57 176 39 191q113 18 125 -56q27 -186 221 -186q100 0 153.5 38t53.5 101q0 43 -38 75t-78 46 t-122 39q-63 18 -110.5 37.5t-105.5 54.5t-90 86t-32 117q0 119 95.5 189.5t277.5 70.5q131 0 242.5 -56.5t115.5 -94.5q8 -98 -10 -133t-59 -40q-59 -4 -85 13.5t-20 50.5q10 68 -41 119t-143 51q-84 0 -128 -30.5t-44 -84.5q0 -35 16.5 -61.5t52 -46t64.5 -30.5t78 -26 q180 -53 241 -92q131 -80 131 -219z" glyph-name="sacute" horiz-adv-x="923" unicode="ś"/><glyph d="M1094 375q10 -92 -24 -168t-99.5 -123t-143 -75.5t-161.5 -37.5l-31 -65q90 12 158.5 -44.5t52.5 -148.5q-14 -86 -92 -129t-176 -39q-94 4 -153.5 47t-70.5 97q-6 35 18.5 60.5t60.5 25.5t71 -31q4 -29 7 -38t11 -30.5t25.5 -31t42.5 -9.5q94 -4 110 93q8 49 -18.5 75.5 t-79.5 22.5q-16 -2 -41.5 -7t-34.5 -5q-35 -6 -50 17.5t1 45.5q23 37 49 96q-57 8 -170.5 47t-177.5 19l-106 321l90 33q45 14 67 -26q43 -80 45 -84q98 -195 326 -195q119 0 193.5 51t64.5 156q-4 39 -24.5 71.5t-42 53t-71.5 42t-74.5 30t-88.5 26.5q-18 6 -27 8 q-59 18 -100 33.5t-102.5 47.5t-101.5 69t-73.5 95t-43.5 128q-20 166 105.5 286t346.5 120q115 0 198 -31t144.5 -69t106.5 -46l26 -260l-96 -16q-41 -6 -49 24l-23 82q-20 84 -110 145.5t-195 61.5q-129 0 -191.5 -67.5t-49.5 -161.5q4 -35 23.5 -65t40 -47t64.5 -37.5 t71.5 -30t86.5 -27.5q4 -2 48 -14.5t62.5 -18.5t64.5 -22.5t72 -32t66 -38t63.5 -48t50 -57t41 -71.5t18.5 -83z" glyph-name="Scedilla" horiz-adv-x="1157" unicode="Ş"/><glyph d="M872 262q0 -109 -92 -179.5t-237 -88.5l-39 -88q90 12 158.5 -44.5t52.5 -148.5q-14 -86 -92 -129t-177 -39q-94 4 -153.5 47t-69.5 97q-6 35 18.5 60.5t60.5 25.5t71 -31q4 -29 7 -38t11 -30.5t25.5 -31t42.5 -9.5q94 -4 110 93q8 49 -18.5 75.5t-79.5 22.5 q-16 -2 -42 -7t-34 -5q-35 -6 -50 17.5t1 45.5q33 53 57 113q-123 10 -221 61t-110 88q-57 176 39 191q113 18 125 -56q27 -186 221 -186q100 0 153.5 38t53.5 101q0 43 -38 75t-78 46t-122 39q-63 18 -110.5 37.5t-105.5 54.5t-90 86t-32 117q0 119 95.5 189.5t277.5 70.5 q131 0 242.5 -56.5t115.5 -94.5q8 -98 -10 -133t-59 -40q-59 -4 -85 13.5t-20 50.5q10 68 -41 119t-143 51q-84 0 -128 -30.5t-44 -84.5q0 -35 16.5 -61.5t52 -46t64.5 -30.5t78 -26q180 -53 241 -92q131 -80 131 -219z" glyph-name="scedilla" horiz-adv-x="923" unicode="ş"/><glyph d="M592 1415l-338 365h141l197 -138l196 138h142zM940 883q-41 -6 -49 24l-23 82q-20 84 -110 145.5t-195 61.5q-129 0 -191.5 -67.5t-49.5 -161.5q4 -35 23.5 -65t40 -47t64.5 -37.5t71.5 -30t86.5 -27.5q4 -2 48 -14.5t62.5 -18.5t64.5 -22.5t72 -32t66 -38t63.5 -48 t50 -57t41 -71.5t18.5 -83q10 -100 -32 -181t-117 -128.5t-163 -72t-178 -24.5q-106 0 -233 46t-193 24l-106 321l90 33q45 14 67 -26q43 -80 45 -84q98 -195 326 -195q119 0 193.5 51t64.5 156q-4 39 -24.5 71.5t-42 53t-71.5 42t-74.5 30t-88.5 26.5q-18 6 -27 8 q-59 18 -100 33.5t-102.5 47.5t-101.5 69t-73.5 95t-43.5 128q-20 166 105.5 286t346.5 120q115 0 198 -31t144.5 -69t106.5 -46l26 -260z" glyph-name="Scaron" horiz-adv-x="1157" unicode="Š"/><glyph d="M461 1067l-338 365h141l197 -138l196 138h142zM872 262q0 -125 -119.5 -199.5t-295.5 -74.5q-139 0 -255 55t-130 96q-57 176 39 191q113 18 125 -56q27 -186 221 -186q100 0 153.5 38t53.5 101q0 43 -38 75t-78 46t-122 39q-63 18 -110.5 37.5t-105.5 54.5t-90 86 t-32 117q0 119 95.5 189.5t277.5 70.5q131 0 242.5 -56.5t115.5 -94.5q8 -98 -10 -133t-59 -40q-59 -4 -85 13.5t-20 50.5q10 68 -41 119t-143 51q-84 0 -128 -30.5t-44 -84.5q0 -35 16.5 -61.5t52 -46t64.5 -30.5t78 -26q180 -53 241 -92q131 -80 131 -219z" glyph-name="scaron" horiz-adv-x="923" unicode="š"/><glyph d="M1110 1223l16 -199h-73l-33 68q-33 63 -96 63h-219v-975q0 -41 29.5 -60.5t94.5 -33.5v-86h-163l-43 -94q90 12 158.5 -44.5t52.5 -148.5q-14 -86 -92 -129t-177 -39q-94 4 -153.5 47t-69.5 97q-6 35 18.5 60.5t60.5 25.5t71 -31q4 -29 7 -38t11 -30.5t25.5 -31 t42.5 -9.5q94 -4 110 93q8 49 -18.5 75.5t-79.5 22.5q-16 -2 -42 -7t-34 -5q-35 -6 -50 17.5t1 45.5q27 43 61 123h-186v86q63 14 93 33.5t30 60.5v975h-219q-63 0 -97 -63l-32 -68h-74l16 199q4 49 47 49h959q43 0 47 -49z" glyph-name="Tcommaaccent" horiz-adv-x="1167" unicode="Ţ"/><glyph d="M395 -94q90 12 159 -44.5t52 -148.5q-14 -86 -92 -129t-176 -39q-94 4 -153.5 47t-69.5 97q-6 35 18.5 60.5t60 25.5t70.5 -31q4 -29 7 -38t11.5 -30.5t26 -31t41.5 -9.5q94 -4 111 93q8 49 -19.5 75.5t-79.5 22.5q-16 -2 -41.5 -7t-33.5 -5q-35 -6 -50.5 17.5t1.5 45.5 q29 47 61 121q-170 45 -170 289v518h-98v104q43 0 77.5 17.5t65.5 57.5t45 65.5t45 83.5q16 31 50 27.5t34 -34.5v-202h225v-70q0 -49 -45 -49h-180v-553q0 -156 88 -156q49 0 111 41q29 20 56.5 -17.5t-1.5 -58.5q-74 -59 -168 -71z" glyph-name="tcommaaccent" horiz-adv-x="657" unicode="ţ"/><glyph d="M918 1780l-338 -365l-338 365h141l197 -138l196 138h142zM1110 1223l16 -199h-73l-33 68q-33 63 -96 63h-219v-975q0 -41 29.5 -60.5t94.5 -33.5v-86h-489v86q63 14 93 33.5t30 60.5v975h-219q-63 0 -97 -63l-32 -68h-74l16 199q4 49 47 49h959q43 0 47 -49z" glyph-name="Tcaron" horiz-adv-x="1167" unicode="Ť"/><glyph d="M440 1036l6 211q4 104 95 105q51 0 77.5 -34t4.5 -93l-72 -191q-18 -51 -59 -51q-52 0 -52 53zM547 137q29 20 56.5 -17.5t-1.5 -58.5q-94 -74 -219 -73q-254 0 -254 299v518h-98v104q43 0 77.5 17.5t65.5 57.5t45 65.5t45 83.5q16 31 50 27.5t34 -34.5v-202h225v-70 q0 -49 -45 -49h-180v-553q0 -156 88 -156q50 0 111 41z" glyph-name="tcaron" horiz-adv-x="681" unicode="ť"/><glyph d="M1110 1223l16 -199h-73l-33 68q-33 63 -96 63h-219v-244h208q41 0 41 -34v-72q0 -35 -41 -35h-208v-590q0 -41 29.5 -60.5t94.5 -33.5v-86h-489v86q63 14 93 33.5t30 60.5v590h-170q-41 0 -41 35v72q0 35 41 34h170v244h-219q-63 0 -97 -63l-32 -68h-74l16 199 q4 49 47 49h959q43 0 47 -49z" glyph-name="Tbar" horiz-adv-x="1167" unicode="Ŧ"/><glyph d="M547 137q29 20 56.5 -17.5t-1.5 -58.5q-94 -74 -219 -73q-254 0 -254 299v227h-88v113h88v178h-98v104q43 0 77.5 17.5t65.5 57.5t45 65.5t45 83.5q16 31 50 27.5t34 -34.5v-202h225v-70q0 -49 -45 -49h-180v-178h236v-113h-236v-262q0 -156 88 -156q50 0 111 41z" glyph-name="tbar" horiz-adv-x="647" unicode="ŧ"/><glyph d="M381 1651q0 35 41 35h579q41 0 41 -35v-72q0 -35 -41 -35h-579q-41 0 -41 35v72zM1282 1272v-88q-31 -4 -48 -10.5t-30.5 -19.5t-13.5 -36v-598q0 -248 -133 -394t-359 -146q-264 0 -410.5 146t-146.5 404v588q0 33 -22.5 45.5t-67.5 20.5v88h424v-88q-31 -4 -48 -10.5 t-31.5 -19.5t-14.5 -36v-526q0 -242 84 -361.5t233 -119.5q162 0 259.5 101t97.5 331v575q0 33 -23.5 46.5t-73.5 19.5v88h324z" glyph-name="Umacron" horiz-adv-x="1333" unicode="Ū"/><glyph d="M289 1196q-41 0 -41 35v72q0 35 41 34h579q41 0 41 -34v-72q0 -35 -41 -35h-579zM997 195q0 -92 115 -74v-84l-158 -43q-66 -18 -111.5 29t-58.5 178v4q-16 -49 -44.5 -92t-97.5 -84t-163 -41q-154 0 -247 88t-93 256v422q0 66 -57 65h-31v80l250 37q53 4 53 -43v-539 q0 -125 47.5 -178t141.5 -53q98 0 152.5 54t88.5 161v416q0 35 -12 50t-43 15h-31v80l248 37q51 10 51 -43v-698z" glyph-name="umacron" horiz-adv-x="1163" unicode="ū"/><glyph d="M569 1120q-123 0 -203.5 76t-86.5 197q0 23 20 22h59q20 0 23 -22q6 -47 57 -79t131 -32t131.5 32t57.5 79q2 23 22 22h60q20 0 20 -22q-6 -121 -87 -197t-204 -76zM997 195q0 -92 115 -74v-84l-158 -43q-66 -18 -111.5 29t-58.5 178v4q-16 -49 -44.5 -92t-97.5 -84 t-163 -41q-154 0 -247 88t-93 256v422q0 66 -57 65h-31v80l250 37q53 4 53 -43v-539q0 -125 47.5 -178t141.5 -53q98 0 152.5 54t88.5 161v416q0 35 -12 50t-43 15h-31v80l248 37q51 10 51 -43v-698z" glyph-name="ubreve" horiz-adv-x="1163" unicode="ŭ"/><glyph d="M709 1458q-84 0 -145.5 58.5t-61.5 138.5q0 82 61.5 140t145.5 58q86 0 145 -58t59 -140q0 -80 -59 -138.5t-145 -58.5zM709 1559q27 0 50 29.5t23 66.5t-23.5 66.5t-49.5 29.5q-33 0 -56.5 -29.5t-23.5 -66.5q0 -39 23.5 -67.5t56.5 -28.5zM1282 1272v-88 q-31 -4 -48 -10.5t-30.5 -19.5t-13.5 -36v-598q0 -248 -133 -394t-359 -146q-264 0 -410.5 146t-146.5 404v588q0 33 -22.5 45.5t-67.5 20.5v88h424v-88q-31 -4 -48 -10.5t-31.5 -19.5t-14.5 -36v-526q0 -242 84 -361.5t233 -119.5q162 0 259.5 101t97.5 331v575 q0 33 -23.5 46.5t-73.5 19.5v88h324z" glyph-name="Uring" horiz-adv-x="1333" unicode="Ů"/><glyph d="M575 1110q-84 0 -145 58.5t-61 138.5q0 82 61.5 140t144.5 58q86 0 145.5 -58t59.5 -140q0 -80 -59.5 -138.5t-145.5 -58.5zM575 1403q-33 0 -56 -30t-23 -66q0 -39 23.5 -68t55.5 -29q27 0 50.5 30t23.5 66.5t-23.5 66.5t-50.5 30zM997 195q0 -92 115 -74v-84l-158 -43 q-66 -18 -111.5 29t-58.5 178v4q-16 -49 -44.5 -92t-97.5 -84t-163 -41q-154 0 -247 88t-93 256v422q0 66 -57 65h-31v80l250 37q53 4 53 -43v-539q0 -125 47.5 -178t141.5 -53q98 0 152.5 54t88.5 161v416q0 35 -12 50t-43 15h-31v80l248 37q51 10 51 -43v-698z" glyph-name="uring" horiz-adv-x="1163" unicode="ů"/><glyph d="M373 1526l217 233q80 88 149 10q33 -45 18.5 -86t-61.5 -69l-276 -160q-37 -23 -58 8q-22 31 11 64zM797 1526l217 233q80 88 149 10q33 -45 18.5 -86t-61.5 -69l-276 -160q-37 -23 -58 8q-22 31 11 64zM1282 1272v-88q-31 -4 -48 -10.5t-30.5 -19.5t-13.5 -36v-598 q0 -248 -133 -394t-359 -146q-264 0 -410.5 146t-146.5 404v588q0 33 -22.5 45.5t-67.5 20.5v88h424v-88q-31 -4 -48 -10.5t-31.5 -19.5t-14.5 -36v-526q0 -242 84 -361.5t233 -119.5q162 0 259.5 101t97.5 331v575q0 33 -23.5 46.5t-73.5 19.5v88h324z" glyph-name="Uhungarumlaut" horiz-adv-x="1333" unicode="Ű"/><glyph d="M287 1106q-37 -23 -58 8q-23 31 11 64l217 233q80 88 149 10q33 -45 18.5 -86t-61.5 -69zM711 1106q-37 -23 -58 8q-23 31 11 64l217 233q80 88 149 10q33 -45 18.5 -86t-61.5 -69zM997 195q0 -92 115 -74v-84l-158 -43q-66 -18 -111.5 29t-58.5 178v4q-16 -49 -44.5 -92 t-97.5 -84t-163 -41q-154 0 -247 88t-93 256v422q0 66 -57 65h-31v80l250 37q53 4 53 -43v-539q0 -125 47.5 -178t141.5 -53q98 0 152.5 54t88.5 161v416q0 35 -12 50t-43 15h-31v80l248 37q51 10 51 -43v-698z" glyph-name="uhungarumlaut" horiz-adv-x="1163" unicode="ű"/><glyph d="M958 1272h324v-88q-31 -4 -48 -10.5t-30.5 -19.5t-13.5 -36v-598q0 -201 -89 -337t-249 -183q-172 -115 -172 -231q0 -49 32.5 -82t82.5 -33q109 0 151 113h72q-8 -33 -25.5 -65t-50.5 -71t-91 -62.5t-134 -23.5q-96 0 -168 48.5t-72 142.5q0 82 60.5 144.5t146.5 99.5 q-258 4 -400.5 150t-142.5 400v588q0 33 -22.5 45.5t-67.5 20.5v88h424v-88q-31 -4 -48 -10.5t-31.5 -19.5t-14.5 -36v-526q0 -242 84 -361.5t233 -119.5q162 0 259.5 101t97.5 331v575q0 33 -23.5 46.5t-73.5 19.5v88z" glyph-name="Uogonek" horiz-adv-x="1333" unicode="Ų"/><glyph d="M1112 121v-84l-94 -27q-121 -39 -180.5 -85t-59.5 -124q0 -57 30 -88.5t79 -31.5q86 0 131 118h72q-8 -33 -24.5 -64.5t-48.5 -72.5t-90.5 -65.5t-131.5 -24.5q-92 0 -157 47t-65 143q0 180 273 258q-49 49 -62 181v4q-16 -49 -44.5 -92t-97.5 -84t-163 -41 q-154 0 -247 88t-93 256v422q0 66 -57 65h-31v80l250 37q53 4 53 -43v-539q0 -125 47.5 -178t141.5 -53q98 0 152.5 54t88.5 161v416q0 35 -12 50t-43 15h-31v80l248 37q51 10 51 -43v-698q0 -92 115 -74z" glyph-name="uogonek" horiz-adv-x="1142" unicode="ų"/><glyph d="M1020 1579l-197 -137h-141l338 364l338 -364h-141zM1583 1272h375v-92q-63 -8 -90 -31t-49 -82l-379 -1077h-60q-45 0 -65 49l-305 774l-283 -823h-59q-45 0 -66 49l-385 977q-39 98 -72.5 126.5t-103.5 37.5v92h475v-92q-59 -8 -80.5 -21.5t-13.5 -38.5l301 -803 l221 660l-14 39q-39 98 -73 126.5t-103 37.5v92h475v-92q-55 -8 -79 -22.5t-15 -37.5l301 -803l268 783q12 35 -21.5 53t-99.5 27v92z" glyph-name="Wcircumflex" horiz-adv-x="1998" unicode="Ŵ"/><glyph d="M840 1231l-197 -137h-141l338 364l338 -364h-142zM1235 924q203 -16 389 0v-70l-47 -16q-86 -29 -137 -162l-269 -682h-86q-57 0 -77 57l-195 504l-219 -561h-86q-57 0 -78 57l-248 629q-53 133 -119 158l-43 16v70q217 -16 433 0v-70l-43 -16q-37 -14 -40 -36t31 -122 l172 -477l168 530q-41 88 -86 105l-53 16v70q223 -16 442 0v-70l-53 -16q-37 -14 -40 -36t30 -122l172 -477l147 471q27 100 23 124.5t-43 39.5l-45 16v70z" glyph-name="wcircumflex" horiz-adv-x="1644" unicode="ŵ"/><glyph d="M709 1806l338 -364h-142l-196 137l-197 -137h-141zM901 1272h379v-94q-61 -8 -95 -34t-77 -87l-338 -500v-389q0 -16 11.5 -28.5t37 -19.5t45 -10.5t56.5 -9.5v-100h-517v100q39 6 57.5 9.5t45 10.5t38 19.5t11.5 28.5v336l-334 502q-78 119 -106 141q-31 25 -84 31v94 h465v-94q-47 -8 -70 -25.5t-6 -42.5l297 -448l282 428q25 37 -3.5 58t-94.5 30v94z" glyph-name="Ycircumflex" horiz-adv-x="1310" unicode="Ŷ"/><glyph d="M616 1458l338 -364h-141l-197 137l-196 -137h-141zM1118 924v-70l-28 -12q-8 -4 -21.5 -9.5t-22 -8.5t-17.5 -8t-15 -12t-10 -18l-422 -960q-61 -145 -115.5 -205.5t-161.5 -60.5q-102 0 -166.5 44t-64.5 120q0 49 29.5 79.5t84.5 30.5q49 0 73 -24.5t25 -54t10 -54.5 t36 -25q43 0 71.5 36t63.5 116l59 147l-391 811q-20 39 -67 56l-37 12v70h434v-70l-51 -10q-66 -12 -45 -58l266 -555l227 555q8 20 -7 36t-42 22l-57 10v70h362z" glyph-name="ycircumflex" horiz-adv-x="1138" unicode="ŷ"/><glyph d="M469 1481q-57 0 -98 41t-41 98t41 98t98 41t98 -41t41 -98t-41 -98t-98 -41zM913.5 1481q-57.5 0 -98.5 41t-41 98t41 98t98.5 41t97.5 -41t40 -98t-40 -98t-97.5 -41zM901 1272h379v-94q-61 -8 -95 -34t-77 -87l-338 -500v-389q0 -16 11.5 -28.5t37 -19.5t45 -10.5 t56.5 -9.5v-100h-517v100q39 6 57.5 9.5t45 10.5t38 19.5t11.5 28.5v336l-334 502q-78 119 -106 141q-31 25 -84 31v94h465v-94q-47 -8 -70 -25.5t-6 -42.5l297 -448l282 428q25 37 -3.5 58t-94.5 30v94z" glyph-name="Ydieresis" horiz-adv-x="1310" unicode="Ÿ"/><glyph d="M584 1526l217 233q80 88 149 10q33 -45 18.5 -86t-61.5 -69l-276 -160q-37 -23 -58 8q-22 31 11 64zM1200 266l-67 -266h-1004q-41 0 -52 33t13 67l733 1055l-565 -8q-16 0 -28.5 -11.5t-15.5 -19.5t-11 -33l-21 -65h-131l55 254h1070l-797 -1157l594 10q18 0 31.5 10 t19.5 20.5t14 32.5l31 78h131z" glyph-name="Zacute" horiz-adv-x="1261" unicode="Ź"/><glyph d="M442 1178l217 233q80 88 150 10q33 -45 18.5 -86t-61.5 -69l-277 -160q-37 -23 -57 8q-23 31 10 64zM885 229l-37 -229q-365 14 -729 0q-41 -2 -53.5 30.5t12.5 67.5l518 717l-375 -12q-35 -2 -63 -68l-11 -30h-81l36 223q399 -14 801 0l-594 -813l418 12q10 0 18.5 3 t14.5 11.5t9 14.5t7 19t6 18l13 36h90z" glyph-name="zacute" horiz-adv-x="954" unicode="ź"/><glyph d="M637 1479q-55 0 -95 40t-40 95t40 94t95 39t95 -39t40 -94t-40 -95t-95 -40zM1200 266l-67 -266h-1004q-41 0 -52 33t13 67l733 1055l-565 -8q-16 0 -28.5 -11.5t-15.5 -19.5t-11 -33l-21 -65h-131l55 254h1070l-797 -1157l594 10q18 0 31.5 10t19.5 20.5t14 32.5l31 78 h131z" glyph-name="Zdotaccent" horiz-adv-x="1261" unicode="Ż"/><glyph d="M495.5 1130q-55.5 0 -95.5 40t-40 95.5t40 94.5t95.5 39t95.5 -39t40 -94.5t-40 -95.5t-95.5 -40zM885 229l-37 -229q-365 14 -729 0q-41 -2 -53.5 30.5t12.5 67.5l518 717l-375 -12q-35 -2 -63 -68l-11 -30h-81l36 223q399 -14 801 0l-594 -813l418 12q10 0 18.5 3 t14.5 11.5t9 14.5t7 19t6 18l13 36h90z" glyph-name="zdotaccent" horiz-adv-x="954" unicode="ż"/><glyph d="M633 1415l-338 365h141l197 -138l196 138h142zM1200 266l-67 -266h-1004q-41 0 -52 33t13 67l733 1055l-565 -8q-16 0 -28.5 -11.5t-15.5 -19.5t-11 -33l-21 -65h-131l55 254h1070l-797 -1157l594 10q18 0 31.5 10t19.5 20.5t14 32.5l31 78h131z" glyph-name="Zcaron" horiz-adv-x="1261" unicode="Ž"/><glyph d="M492 1067l-338 365h141l197 -138l196 138h141zM885 229l-37 -229q-365 14 -729 0q-41 -2 -53.5 30.5t12.5 67.5l518 717l-375 -12q-35 -2 -63 -68l-11 -30h-81l36 223q399 -14 801 0l-594 -813l418 12q10 0 18.5 3t14.5 11.5t9 14.5t7 19t6 18l13 36h90z" glyph-name="zcaron" horiz-adv-x="954" unicode="ž"/><glyph d="M1296 1225q18 -25 11 -62t-39 -57q-35 -20 -67 -13t-42 33q-2 4 -7 20.5t-7 22t-7 20.5t-9.5 20t-11.5 17.5t-13 17.5t-16.5 13.5t-20.5 11.5t-24.5 6t-28.5 3q-43 0 -74 -14.5t-47 -30.5t-29.5 -60.5t-17.5 -69t-15 -87.5l-10 -80h277q10 0 17 -5t3 -13l-10 -23 q-10 -18 -14 -25.5t-12.5 -17.5t-17.5 -13t-24 -3h-233l-123 -871q-27 -180 -122 -279.5t-236 -99.5q-92 0 -163 44t-97 106q-16 25 -6 61.5t44 52.5q37 18 68 8t39 -38q2 -4 6 -21.5t5 -23.5t5 -21.5t8.5 -21.5t10.5 -18.5t12 -17.5t15.5 -11.5t20.5 -8.5t23 -2 q86 0 125 68t58 199l127 895h-109q-23 0 -18 20l10 80h131l6 55q53 375 379 375q190 0 270 -141z" glyph-name="florin" horiz-adv-x="1286" unicode="ƒ"/><glyph d="M940 883q-41 -6 -49 24l-23 82q-20 84 -110 145.5t-195 61.5q-129 0 -191.5 -67.5t-49.5 -161.5q4 -35 23.5 -65t40 -47t64.5 -37.5t71.5 -30t86.5 -27.5q4 -2 48 -14.5t62.5 -18.5t64.5 -22.5t72 -32t66 -38t63.5 -48t50 -57t41 -71.5t18.5 -83q10 -100 -32 -181 t-117 -128.5t-163 -72t-178 -24.5q-106 0 -233 46t-193 24l-106 321l90 33q45 14 67 -26q43 -80 45 -84q98 -195 326 -195q119 0 193.5 51t64.5 156q-4 39 -24.5 71.5t-42 53t-71.5 42t-74.5 30t-88.5 26.5q-18 6 -27 8q-59 18 -100 33.5t-102.5 47.5t-101.5 69t-73.5 95 t-43.5 128q-20 166 105.5 286t346.5 120q115 0 198 -31t144.5 -69t106.5 -46l26 -260zM719 -465q-31 -102 -113 -174q-23 -14 -41 4l-37 41q63 72 76 102q18 53 10 82q-25 -6 -57 -4q-45 6 -75.5 48t-22.5 92q6 55 48 88.5t95 27.5q51 -6 84 -44t41 -85q17 -92 -8 -178z" glyph-name="Scommaaccent" horiz-adv-x="1157" unicode="Ș"/><glyph d="M872 262q0 -125 -119.5 -199.5t-295.5 -74.5q-139 0 -255 55t-130 96q-57 176 39 191q113 18 125 -56q27 -186 221 -186q100 0 153.5 38t53.5 101q0 43 -38 75t-78 46t-122 39q-63 18 -110.5 37.5t-105.5 54.5t-90 86t-32 117q0 119 95.5 189.5t277.5 70.5 q131 0 242.5 -56.5t115.5 -94.5q8 -98 -10 -133t-59 -40q-59 -4 -85 13.5t-20 50.5q10 68 -41 119t-143 51q-84 0 -128 -30.5t-44 -84.5q0 -35 16.5 -61.5t52 -46t64.5 -30.5t78 -26q180 -53 241 -92q131 -80 131 -219zM588 -465q-31 -102 -113 -174q-23 -14 -41 4l-37 41 q63 72 76 102q18 53 10 82q-25 -6 -57 -4q-45 6 -76 48t-22 92q6 55 48 88.5t95 27.5q51 -6 84 -44t41 -85q17 -92 -8 -178z" glyph-name="scommaaccent" horiz-adv-x="923" unicode="ș"/><glyph d="M1110 1223l16 -199h-73l-33 68q-33 63 -96 63h-219v-975q0 -41 29.5 -60.5t94.5 -33.5v-86h-489v86q63 14 93 33.5t30 60.5v975h-219q-63 0 -97 -63l-32 -68h-74l16 199q4 49 47 49h959q43 0 47 -49zM590 -158q51 -6 84 -44t41 -85q16 -92 -8 -178q-31 -102 -113 -174 q-23 -14 -41 4l-37 41q63 72 76 102q18 53 10 82q-25 -6 -57 -4q-45 6 -76 48t-23 92q6 55 48.5 88.5t95.5 27.5z" glyph-name="uni021A" horiz-adv-x="1167" unicode="Ț"/><glyph d="M547 137q29 20 56.5 -17.5t-1.5 -58.5q-94 -74 -219 -73q-254 0 -254 299v518h-98v104q43 0 77.5 17.5t65.5 57.5t45 65.5t45 83.5q16 31 50 27.5t34 -34.5v-202h225v-70q0 -49 -45 -49h-180v-553q0 -156 88 -156q50 0 111 41zM479 -465q-31 -102 -112 -174 q-23 -14 -41 4l-37 41q63 72 76 102q18 53 10 82q-25 -6 -58 -4q-45 6 -75.5 48t-22.5 92q6 55 48 88.5t95 27.5q51 -6 84 -44t41 -85q17 -92 -8 -178z" glyph-name="uni021B" horiz-adv-x="657" unicode="ț"/><glyph d="M348 928q66 6 66 -64v-1016q0 -188 -166 -258q-111 -43 -205 -17t-131 103q-23 41 -13.5 89.5t50.5 68.5q49 20 84 8t51 -47q8 -18 19.5 -60t21.5 -62.5t27 -14.5q49 20 49 102v992q0 35 -13.5 49t-44.5 14h-41v94z" glyph-name="uni0237" horiz-adv-x="536" unicode="ȷ"/><glyph d="M451 1458l335 -364h-141l-194 137l-197 -137h-141z" glyph-name="circumflex" horiz-adv-x="899" unicode="ˆ"/><glyph d="M418 1067l-338 365h141l197 -138l196 138h142z" glyph-name="caron" horiz-adv-x="835" unicode="ˇ"/><glyph d="M393 1120q-123 0 -203.5 76t-87.5 197q0 23 21 22h59q20 0 23 -22q6 -47 57 -79t131 -32t131 32t58 79q2 23 22 22h60q20 0 20 -22q-6 -121 -87 -197t-204 -76z" glyph-name="breve" horiz-adv-x="786" unicode="˘"/><glyph d="M239.5 1130q-55.5 0 -95.5 40t-40 95.5t40 94.5t95.5 39t95.5 -39t40 -94.5t-40 -95.5t-95.5 -40z" glyph-name="dotaccent" horiz-adv-x="479" unicode="˙"/><glyph d="M399 1110q-84 0 -145 58.5t-61 138.5q0 82 61 140t145 58q86 0 145.5 -58t59.5 -140q0 -80 -59.5 -138.5t-145.5 -58.5zM399 1210q27 0 50.5 30t23.5 66.5t-23.5 66.5t-50.5 30q-33 0 -56.5 -30t-23.5 -66q0 -39 23.5 -68t56.5 -29z" glyph-name="ring" horiz-adv-x="796" unicode="˚"/><glyph d="M616 -195q-8 -33 -25.5 -64.5t-50 -70.5t-91 -62.5t-134.5 -23.5q-96 0 -167.5 48.5t-71.5 142.5q0 98 84 167.5t186 98.5h107q-174 -113 -174 -234q0 -49 32.5 -81.5t81.5 -32.5q109 0 152 112h71z" glyph-name="ogonek" horiz-adv-x="698" unicode="˛"/><glyph d="M848 1337q-10 -104 -81 -166.5t-179 -62.5q-78 0 -171 69.5t-136 69.5q-55 0 -84 -36.5t-25 -61.5h-84q-25 92 50 156.5t175 64.5q82 0 168 -59.5t146 -59.5q47 0 84 32t32 54h105z" glyph-name="tilde" horiz-adv-x="929" unicode="˜"/><glyph d="M121 1178l217 233q82 86 149 10q35 -45 21 -86t-64 -69l-274 -160q-37 -23 -59.5 8t10.5 64zM545 1178l217 233q82 86 149 10q35 -45 21 -86t-64 -69l-274 -160q-37 -23 -59.5 8t10.5 64z" glyph-name="hungarumlaut" horiz-adv-x="1038" unicode="˝"/><glyph d="M-496 1178l217 233q80 88 150 10q33 -45 18.5 -86t-61.5 -69l-277 -160q-37 -23 -57 8q-23 31 10 64z" glyph-name="acutecomb" horiz-adv-x="0" unicode="́"/><glyph d="M-111 -465q-31 -102 -112 -174q-23 -14 -41 4l-37 41q63 72 76 102q18 53 10 82q-25 -6 -57 -4q-45 6 -76 48t-23 92q6 55 48 88.5t96 27.5q51 -6 83.5 -44t41.5 -85q16 -92 -9 -178z" glyph-name="uni0326" horiz-adv-x="0" unicode="̦"/><glyph d="M1239 0h-1198l588 1298zM219 180h721l-360 791z" glyph-name="Delta" horiz-adv-x="1280" unicode="Δ"/><glyph d="M1303 250h102l-59 -203q-16 -47 -62 -47h-399v289q113 10 178 124.5t65 309.5q0 219 -103 342t-281.5 123t-282 -123t-103.5 -342q0 -195 65.5 -309.5t180.5 -124.5v-289h-401q-45 0 -62 47l-59 203h102l35 -55q23 -39 53.5 -50.5t87.5 -15.5l121 -6q16 -2 22.5 7t6.5 34 q-174 49 -289 197.5t-115 340.5q0 240 182.5 421.5t455 181.5t454.5 -181.5t182 -421.5q0 -182 -116.5 -335.5t-286.5 -202.5q-2 -45 29 -41l110 6q66 4 97.5 15.5t54.5 50.5z" glyph-name="Omega" horiz-adv-x="1486" unicode="Ω"/><glyph d="M997 195q0 -92 115 -74v-84l-158 -43q-66 -18 -111.5 29t-58.5 178v4q-16 -49 -44.5 -92t-97.5 -84t-163 -41q-141 0 -225 69q6 -88 27.5 -152.5t45 -90t40 -48t14.5 -38.5q-12 -88 -94 -125q-78 -37 -123 16q-25 31 -25 84v647v404q0 66 -57 65h-31v80l250 37 q53 4 53 -43v-539q0 -125 47.5 -178t141.5 -53q98 0 152.5 54t88.5 161v416q0 35 -12 50t-43 15h-31v80l248 37q51 10 51 -43v-698z" glyph-name="mu" horiz-adv-x="1163" unicode="μ"/><glyph d="M1307 227q76 -33 45 -143q-20 -72 -117.5 -96.5t-198.5 16.5q-162 63 -162 262v498h-249v-526q0 -113 -73 -181.5t-159 -68.5q-94 0 -151 20l-27 96q82 -18 146.5 29t64.5 141v490h-100q-59 0 -87 -44t-8 -122l-73 49q-25 68 -25 119q0 70 48 114t130 44h314h624h29v-160 h-150q-31 0 -44 -14.5t-13 -49.5v-499q0 -86 49 -107q16 -6 29.5 12.5t27 51t17.5 41.5q41 61 113 28z" glyph-name="pi" horiz-adv-x="1490" unicode="π"/><glyph d="M721 1526q33 -33 10 -64q-20 -31 -57 -8l-277 160q-47 29 -61 69.5t18 85.5q70 78 150 -10zM1153 252q-29 -57 -66 -205q-12 -47 -61 -47h-965v92q63 14 93 33.5t30 60.5v901q0 41 -29.5 60.5t-93.5 34.5v90h940q20 0 27.5 -7.5t7.5 -29.5v-221h-90l-31 67 q-18 41 -55 54.5t-108 13.5h-326v-442h344q33 0 52.5 13t27.5 27.5t24 57.5h56v-313h-56q-31 74 -51 86q-18 14 -53 14h-344v-471l428 4q57 0 83 11t54 48l53 68h109z" glyph-name="uni0400" unicode="Ѐ"/><glyph d="M356.5 1481q-57.5 0 -98.5 41t-41 98t41 98t98.5 41t98.5 -41t41 -98t-41 -98t-98.5 -41zM800.5 1481q-57.5 0 -98 41t-40.5 98t40.5 98t98 41t97.5 -41t40 -98t-40 -98t-97.5 -41zM1153 252q-29 -57 -66 -205q-12 -47 -61 -47h-965v92q63 14 93 33.5t30 60.5v901 q0 41 -29.5 60.5t-93.5 34.5v90h940q20 0 27.5 -7.5t7.5 -29.5v-221h-90l-31 67q-18 41 -55 54.5t-108 13.5h-326v-442h344q33 0 52.5 13t27.5 27.5t24 57.5h56v-313h-56q-31 74 -51 86q-18 14 -53 14h-344v-471l428 4q57 0 83 11t54 48l53 68h109z" glyph-name="afii10023" unicode="Ё"/><glyph d="M557 1454q-37 -23 -57 8q-23 31 10 64l217 233q80 88 150 10q33 -45 18.5 -86t-61.5 -69zM1034 1225l49 -215h-90l-32 65q-37 74 -164 76l-303 6q-66 -4 -66 -47v-928q0 -33 32 -52t107 -38v-92h-506v92q76 18 108 38t32 52v918q0 61 -140 80v92h486h426q51 0 61 -47z " glyph-name="afii10052" horiz-adv-x="1134" unicode="Ѓ"/><glyph d="M1206 309q6 -25 -24 -78q-147 -252 -492 -251q-258 0 -443.5 190t-185.5 494q0 276 172.5 458.5t421.5 182.5q231 0 371 -168q18 0 30.5 17t16.5 32.5t10 52.5q10 39 39 33l60 -10l24 -373l-98 -33q-35 -10 -47 23q-4 12 -29 73q-92 236 -325 236q-168 0 -272.5 -122 t-108.5 -359h467v-119h-461q27 -207 142.5 -339t270.5 -132q182 0 306 168q10 12 22 30.5t18.5 26.5t15.5 15.5t19 7.5q20 0 48 -19t32 -37z" glyph-name="afii10053" horiz-adv-x="1261" unicode="Є"/><glyph d="M940 883q-41 -6 -49 24l-23 82q-20 84 -110 145.5t-195 61.5q-129 0 -191.5 -67.5t-49.5 -161.5q4 -35 23.5 -65t40 -47t64.5 -37.5t71.5 -30t86.5 -27.5q4 -2 48 -14.5t62.5 -18.5t64.5 -22.5t72 -32t66 -38t63.5 -48t50 -57t41 -71.5t18.5 -83q10 -100 -32 -181 t-117 -128.5t-163 -72t-178 -24.5q-106 0 -233 46t-193 24l-106 321l90 33q45 14 67 -26q43 -80 45 -84q98 -195 326 -195q119 0 193.5 51t64.5 156q-4 39 -24.5 71.5t-42 53t-71.5 42t-74.5 30t-88.5 26.5q-18 6 -27 8q-59 18 -100 33.5t-102.5 47.5t-101.5 69t-73.5 95 t-43.5 128q-20 166 105.5 286t346.5 120q115 0 198 -31t144.5 -69t106.5 -46l26 -260z" glyph-name="afii10054" horiz-adv-x="1157" unicode="Ѕ"/><glyph d="M424 180q0 -41 30.5 -60.5t94.5 -33.5v-86h-488v86q63 14 94 33.5t31 60.5v907q0 41 -30.5 60.5t-94.5 34.5v90h488v-90q-63 -14 -94 -34t-31 -61v-907z" glyph-name="afii10055" horiz-adv-x="610" unicode="І"/><glyph d="M75.5 1481q-57.5 0 -98 41t-40.5 98t40.5 98t98 41t98.5 -41t41 -98t-41 -98t-98.5 -41zM520.5 1481q-57.5 0 -98.5 41t-41 98t41 98t98.5 41t97 -41t39.5 -98t-39.5 -98t-97 -41zM424 180q0 -41 30.5 -60.5t94.5 -33.5v-86h-488v86q63 14 94 33.5t31 60.5v907 q0 41 -30.5 60.5t-94.5 34.5v90h488v-90q-63 -14 -94 -34t-31 -61v-907z" glyph-name="afii10056" horiz-adv-x="610" unicode="Ї"/><glyph d="M700 1272v-90q-63 -14 -92.5 -34t-29.5 -61v-1103q0 -176 -81 -252t-237 -76q-121 0 -195.5 56.5t-74.5 137.5q0 125 121 125q96 0 96 -106q0 -111 67 -111q63 0 64 109v1220q0 41 -29.5 60.5t-93.5 34.5v90h485z" glyph-name="afii10057" horiz-adv-x="761" unicode="Ј"/><glyph d="M563 1614q-47 29 -61.5 69.5t18.5 85.5q70 78 150 -10l217 -233q33 -33 10 -64q-20 -31 -57 -8zM1360 1182q-63 -14 -94 -34t-31 -61v-907q0 -41 30.5 -60.5t94.5 -33.5v-86h-488v86q63 14 94 33.5t31 60.5v670l-573 -635v-35q0 -41 30.5 -60.5t94.5 -33.5v-86h-488v86 q63 14 94 33.5t31 60.5v907q0 41 -30.5 60.5t-94.5 34.5v90h488v-90q-63 -14 -94 -34t-31 -61v-704l573 635v69q0 41 -30.5 60.5t-94.5 34.5v90h488v-90z" glyph-name="uni040D" horiz-adv-x="1421" unicode="Ѝ"/><glyph d="M717 1468q-123 0 -204 76t-87 197q0 23 20 22h60q20 0 22 -22q6 -47 57.5 -79t131.5 -32t131 32t57 79q2 23 23 22h59q20 0 21 -22q-6 -121 -87 -197t-204 -76zM1313 1272v-86q-41 -6 -65.5 -22.5t-36 -34t-37.5 -66.5l-379 -727q-113 -217 -183.5 -292t-199.5 -75 q-205 0 -244 125q-16 55 12.5 97t83.5 42q43 0 66.5 -22.5t30 -48t24.5 -48t53 -22.5q16 0 30.5 4t26 9.5t23.5 17.5t18.5 20.5t17.5 29t16 29.5t18.5 35.5t17.5 36.5l-399 738q-57 106 -85 136t-91 38v86h463v-86q-55 -10 -79 -27.5t-9 -42.5l337 -645l314 625 q18 35 -16.5 57.5t-102.5 32.5v86h375z" glyph-name="afii10062" horiz-adv-x="1343" unicode="Ў"/><glyph d="M1221 262q45 -102 75.5 -129t106.5 -43v-90h-479v90q82 14 97 29.5t-3 52.5l-117 270h-467l-106 -260q-14 -35 12.5 -55.5t103.5 -36.5v-90h-403v90q78 18 101.5 35.5t52.5 85.5l452 1077l80 -22q55 -18 74 -64zM477 549h379l-194 448z" glyph-name="afii10017" horiz-adv-x="1443" unicode="А"/><glyph d="M629 780q213 0 352 -105.5t139 -283.5q0 -182 -139 -286.5t-371 -104.5h-147h-402v92q76 18 108 38t32 52v918q0 61 -140 80v92h486h426q51 0 61 -47l49 -215h-90l-32 65q-37 74 -164 76l-303 6q-66 -4 -66 -47v-330h201zM629 92q125 0 184 82t59 217q0 133 -60 216 t-185 83h-199v-508q0 -33 32 -52t107 -38h62z" glyph-name="afii10018" horiz-adv-x="1191" unicode="Б"/><glyph d="M895 688q172 -27 261 -114t89 -212q0 -180 -137 -274t-379 -88l-180 4q-281 18 -488 -4v102q133 29 134 99v884q0 70 -132 91v96h599q514 0 514 -301q0 -92 -70 -171t-211 -112zM432 1165v-430h365q49 0 88 62.5t39 167.5q0 201 -246 200h-246zM698 117q154 0 224.5 52 t70.5 193.5t-104.5 211t-347.5 69.5h-109v-440q0 -86 60 -86h206z" glyph-name="afii10019" horiz-adv-x="1316" unicode="В"/><glyph d="M1034 1225l49 -215h-90l-32 65q-37 74 -164 76l-303 6q-66 -4 -66 -47v-928q0 -33 32 -52t107 -38v-92h-506v92q76 18 108 38t32 52v918q0 61 -140 80v92h486h426q51 0 61 -47z" glyph-name="afii10020" horiz-adv-x="1134" unicode="Г"/><glyph d="M1313 1180q-47 0 -68.5 -1t-48.5 -6.5t-36 -17.5t-9 -33v-940q0 -45 31.5 -60.5t115.5 -17.5q23 0 23 -24l-49 -418h-76q-23 0 -22 23q0 20 1 62t0 56.5t-3.5 46t-9.5 42t-19.5 33t-30.5 29.5t-46 19.5t-65.5 15.5t-87 7t-110.5 4h-260q-98 0 -167 -7t-114 -26.5 t-71.5 -40t-39 -62.5t-15.5 -78t-3 -101q0 -23 -22 -23h-60v422q0 20 21 22q170 31 234.5 281t64.5 733q0 35 -35 47.5t-127 12.5v92h1104v-92zM799 106q61 0 90 15.5t29 62.5v922q0 57 -119 57h-201q-104 0 -104 -53q0 -401 -51.5 -668.5t-143.5 -335.5h500z" glyph-name="afii10021" horiz-adv-x="1382" unicode="Д"/><glyph d="M1153 252q-29 -57 -66 -205q-12 -47 -61 -47h-965v92q63 14 93 33.5t30 60.5v901q0 41 -29.5 60.5t-93.5 34.5v90h940q20 0 27.5 -7.5t7.5 -29.5v-221h-90l-31 67q-18 41 -55 54.5t-108 13.5h-326v-442h344q33 0 52.5 13t27.5 27.5t24 57.5h56v-313h-56q-31 74 -51 86 q-18 14 -53 14h-344v-471l428 4q57 0 83 11t54 48l53 68h109z" glyph-name="afii10022" unicode="Е"/><glyph d="M1733 268q96 -106 141 -138t115 -40v-90h-527v90q49 8 66.5 29.5t-10.5 60.5l-365 406h-12v-408q0 -68 137 -88v-90h-508v90q139 18 139 88v408h-14l-365 -406q-29 -39 -10 -60.5t68 -29.5v-90h-527v90q70 8 115 40t141 138l402 443l-316 391q-16 18 -30.5 26.5t-31.5 2 t-29.5 -12.5t-37 -24.5t-38.5 -26.5q-49 -31 -93.5 4t-44.5 90q0 111 191 111q133 0 254 -156l256 -336q57 -72 110 -84v398q0 70 -139 88v90h508v-90q-72 -12 -104.5 -30.5t-32.5 -57.5v-398q55 12 108 84l258 336q121 156 254 156q190 0 191 -111q0 -55 -45 -90t-95 -4 q-14 8 -38.5 26.5t-36 24.5t-28.5 12.5t-31.5 -2t-30.5 -26.5l-318 -391z" glyph-name="afii10024" horiz-adv-x="2050" unicode="Ж"/><glyph d="M895 743q104 12 195.5 -79t91.5 -242q0 -197 -160 -322t-381 -125q-248 0 -397.5 109t-151.5 268q0 113 101 113q35 0 55 -15.5t28.5 -33t22.5 -64.5t29 -80q43 -96 117.5 -144t199.5 -48q129 0 213 79t84 224q0 115 -63.5 184.5t-151.5 69.5q-41 0 -78 -12l-84 -29 l-37 92l88 35q229 92 230 276q0 94 -57.5 143.5t-159.5 49.5q-229 0 -322 -231q-14 -35 -28 -78q-12 -33 -48 -23l-102 23l23 389h73q33 0 39 -35q16 -86 53 -86q63 72 139 113t197 41q201 0 312.5 -92.5t111.5 -206.5q0 -92 -50 -161t-132 -102z" glyph-name="afii10025" horiz-adv-x="1263" unicode="З"/><glyph d="M1360 1182q-63 -14 -94 -34t-31 -61v-907q0 -41 30.5 -60.5t94.5 -33.5v-86h-488v86q63 14 94 33.5t31 60.5v670l-573 -635v-35q0 -41 30.5 -60.5t94.5 -33.5v-86h-488v86q63 14 94 33.5t31 60.5v907q0 41 -30.5 60.5t-94.5 34.5v90h488v-90q-63 -14 -94 -34t-31 -61 v-704l573 635v69q0 41 -30.5 60.5t-94.5 34.5v90h488v-90z" glyph-name="afii10026" horiz-adv-x="1421" unicode="И"/><glyph d="M747.5 1468q-122.5 0 -203.5 76t-87 197q0 23 20 22h60q20 0 22 -22q6 -47 57.5 -79t131 -32t131 32t57.5 79q2 23 22 22h60q20 0 20 -22q-6 -121 -87 -197t-203.5 -76zM1360 1182q-63 -14 -94 -34t-31 -61v-907q0 -41 30.5 -60.5t94.5 -33.5v-86h-488v86q63 14 94 33.5 t31 60.5v670l-573 -635v-35q0 -41 30.5 -60.5t94.5 -33.5v-86h-488v86q63 14 94 33.5t31 60.5v907q0 41 -30.5 60.5t-94.5 34.5v90h488v-90q-63 -14 -94 -34t-31 -61v-704l573 635v69q0 41 -30.5 60.5t-94.5 34.5v90h488v-90z" glyph-name="afii10027" horiz-adv-x="1421" unicode="Й"/><glyph d="M1073 268q96 -106 141.5 -138t114.5 -40v-90h-526v90q49 8 66.5 29.5t-11.5 60.5l-362 406h-64v-408q0 -70 137 -88v-90h-508v90q137 18 138 88v916q0 39 -34 58t-104 30v90h508v-90q-72 -12 -104.5 -30.5t-32.5 -57.5v-400h29q61 0 131 86l256 336q121 156 252 156 q193 0 192 -109q0 -55 -45 -91t-94 -3q-14 8 -40 25.5t-37 23.5t-29.5 11.5t-32 -2t-27.5 -25.5l-315 -391z" glyph-name="afii10028" horiz-adv-x="1390" unicode="К"/><glyph d="M1323 1182q-63 -14 -94 -34t-31 -61v-907q0 -41 31 -60.5t94 -33.5v-86h-487v86q63 14 94 33.5t31 60.5v907q0 84 -111 84h-344v-604q0 -252 -10 -321q-47 -262 -248 -269q-170 0 -201 103q-29 98 49 135q33 18 72 9t47 -38q4 -14 6 -52t12.5 -51t40.5 -11q43 4 69 29.5 t36 91t12 114.5t2 162v53l-2 592q0 35 -13 46t-54 11h-136v101h1135v-90z" glyph-name="afii10029" horiz-adv-x="1384" unicode="Л"/><glyph d="M1692 1184q-119 -25 -119 -103v-899q0 -41 28.5 -62.5t90.5 -33.5v-86h-480v86q63 12 93 33.5t30 62.5v789l-420 -858q-20 -39 -60 -39t-60 39l-471 819v-750q0 -41 29.5 -61.5t90.5 -34.5v-86h-383v86q63 12 93 33.5t30 62.5v899q0 78 -123 103v88h347l499 -895l451 895 h334v-88z" glyph-name="afii10030" horiz-adv-x="1753" unicode="М"/><glyph d="M1337 1182q-63 -14 -93 -34t-30 -61v-907q0 -41 30 -60.5t93 -33.5v-86h-485v86q63 14 93 33.5t30 60.5v406h-551v-406q0 -41 29.5 -60.5t93.5 -33.5v-86h-486v86q63 14 93 33.5t30 60.5v907q0 41 -29.5 60.5t-93.5 34.5v90h486v-90q-63 -14 -93 -34t-30 -61v-385h551 v385q0 41 -30 60.5t-93 34.5v90h485v-90z" glyph-name="afii10031" horiz-adv-x="1398" unicode="Н"/><glyph d="M1309 653q0 -287 -179.5 -480t-443.5 -193q-270 0 -447.5 186t-177.5 487q0 285 178.5 468.5t446.5 183.5q264 0 443.5 -186.5t179.5 -465.5zM729 119q70 0 123 20.5t99 69.5t71 145.5t25 235.5q0 268 -112 431t-288 163q-324 0 -323 -471q0 -264 114.5 -429t290.5 -165z " glyph-name="afii10032" horiz-adv-x="1370" unicode="О"/><glyph d="M1360 1182q-63 -14 -94 -34t-31 -61v-907q0 -41 30.5 -60.5t94.5 -33.5v-86h-488v86q63 14 94 33.5t31 60.5v907q0 61 -94 89h-387q-92 -25 -92 -89v-907q0 -41 30.5 -60.5t94.5 -33.5v-86h-488v86q63 14 94 33.5t31 60.5v907q0 41 -30.5 60.5t-94.5 34.5v90h488h551h260 v-90z" glyph-name="afii10033" horiz-adv-x="1421" unicode="П"/><glyph d="M657 1272q242 0 382.5 -104.5t140.5 -287t-147.5 -292t-401.5 -109.5h-207v-299q0 -41 30.5 -60.5t94.5 -33.5v-86h-488v86q63 14 94 33.5t31 60.5v907q0 41 -30.5 60.5t-94.5 34.5v90h596zM659 584q272 0 273 297q0 295 -246 295h-262v-592h235z" glyph-name="afii10034" horiz-adv-x="1230" unicode="Р"/><glyph d="M1108 856q-35 -10 -47 23q-4 12 -29 73q-92 236 -325 236q-172 0 -276.5 -126t-104.5 -372q0 -244 121.5 -408.5t297.5 -164.5q182 0 306 168q10 12 22 30.5t18.5 26.5t15.5 15.5t19 7.5q20 0 48 -18.5t32 -37.5q6 -25 -24 -78q-147 -252 -492 -251q-258 0 -443.5 190 t-185.5 494q0 276 172.5 458.5t421.5 182.5q231 0 371 -168q18 0 30.5 17t16.5 32.5t10 52.5q10 39 39 33l60 -10l24 -373z" glyph-name="afii10035" horiz-adv-x="1269" unicode="С"/><glyph d="M1110 1223l16 -199h-73l-33 68q-33 63 -96 63h-219v-975q0 -41 29.5 -60.5t94.5 -33.5v-86h-489v86q63 14 93 33.5t30 60.5v975h-219q-63 0 -97 -63l-32 -68h-74l16 199q4 49 47 49h959q43 0 47 -49z" glyph-name="afii10036" horiz-adv-x="1167" unicode="Т"/><glyph d="M1313 1272v-86q-41 -6 -65.5 -22.5t-36 -34t-37.5 -66.5l-379 -727q-113 -217 -183.5 -292t-199.5 -75q-205 0 -244 125q-16 55 12.5 97t83.5 42q43 0 66.5 -22.5t30 -48t24.5 -48t53 -22.5q16 0 30.5 4t26 9.5t23.5 17.5t18.5 20.5t17.5 29t16 29.5t18.5 35.5t17.5 36.5 l-399 738q-57 106 -85 136t-91 38v86h463v-86q-55 -10 -79 -27.5t-9 -42.5l337 -645l314 625q18 35 -16.5 57.5t-102.5 32.5v86h375z" glyph-name="afii10037" horiz-adv-x="1343" unicode="У"/><glyph d="M969 193h-103v-13q0 -41 31 -60.5t94 -33.5v-86h-487v86q63 14 94 33.5t31 60.5v13h-51q-233 0 -375 124.5t-142 319.5q0 190 143.5 316t370.5 126h54v8q0 41 -31 60.5t-94 34.5v90h487v-90q-63 -14 -94 -34t-31 -61v-8h105q227 0 370.5 -126t143.5 -316 q0 -195 -141.5 -319.5t-374.5 -124.5zM588 285h41v704h-49q-125 0 -198 -105.5t-73 -246.5q0 -147 71 -249.5t208 -102.5zM967 989h-101v-704h92q137 0 208 102t71 250q0 141 -72.5 246.5t-197.5 105.5z" glyph-name="afii10038" horiz-adv-x="1546" unicode="Ф"/><glyph d="M1167 266q12 -14 36 -43.5t32 -39t25.5 -29t26.5 -25.5t24.5 -15.5t31 -12.5t35.5 -5v-96h-483v96q51 6 77.5 23.5t6.5 42.5l-326 395l-288 -375q-25 -35 -0.5 -57.5t86.5 -28.5v-96h-383v96q61 6 97 32t83 87l336 428l-303 369q-92 113 -121 135q-39 27 -92 33v92h485 v-92q-47 -8 -73.5 -25.5t-10.5 -38.5l291 -354l262 334q23 31 -9 53t-98 31v92h396v-92q-104 -12 -183 -117l-299 -385z" glyph-name="afii10039" horiz-adv-x="1439" unicode="Х"/><glyph d="M1423 96q23 0 23 -24l-49 -410h-80q-23 0 -23 23q0 154 -2 165q-12 88 -104 119t-314 31h-325h-488v86q63 14 94 33.5t31 60.5v907q0 41 -30.5 60.5t-94.5 34.5v90h488v-90q-63 -14 -94 -34t-31 -61v-907q0 -59 82 -84h373q33 0 57 6q37 14 51 39q10 20 10 45v174v727 q0 41 -30.5 60.5t-94.5 34.5v90h488v-90q-63 -14 -94 -34t-31 -61v-905q2 -82 188 -86z" glyph-name="afii10040" horiz-adv-x="1497" unicode="Ц"/><glyph d="M1280 1182q-66 -14 -95.5 -34t-29.5 -61v-907q0 -41 29.5 -60.5t95.5 -33.5v-86h-487v86q63 14 94 33.5t31 60.5v432q-137 -211 -361 -211q-383 0 -383 367v305q0 57 -25.5 83t-97.5 9l27 107h434v-98q-119 0 -119 -58v-317q0 -113 50.5 -180.5t150.5 -67.5 q96 0 184 57.5t137 114.5v385q-12 51 -122 74v90h487v-90z" glyph-name="afii10041" horiz-adv-x="1341" unicode="Ч"/><glyph d="M1833 1182q-63 -14 -94 -34t-31 -61v-907q0 -41 30.5 -60.5t94.5 -33.5v-86h-487h-641h-334h-310v86q63 14 94 33.5t31 60.5v907q0 41 -30.5 60.5t-94.5 34.5v90h488v-90q-63 -14 -94 -34t-31 -61v-907q0 -59 82 -84h244q78 27 77 84v907q0 41 -29.5 60.5t-92.5 34.5v90 h485v-90q-63 -14 -93 -34t-30 -61v-907q0 -57 78 -84h246q80 25 79 84v907q0 41 -30.5 60.5t-93.5 34.5v90h487v-90z" glyph-name="afii10042" horiz-adv-x="1894" unicode="Ш"/><glyph d="M1903 96q23 0 22 -24l-49 -410h-80q-23 0 -22 23v59q2 39 1 70.5t-7.5 58.5t-22.5 47.5t-44 35.5t-74 24.5t-111.5 14.5t-155.5 5h-164h-485h-336h-307v86q63 14 92.5 33.5t29.5 60.5v907q0 41 -29.5 60.5t-92.5 34.5v90h485v-90q-63 -14 -93 -34t-30 -61v-907 q0 -59 82 -84h240q82 25 82 84v907q0 41 -30 60.5t-93 34.5v90h485v-90q-63 -14 -93 -34t-30 -61v-907q0 -57 78 -84h195q43 0 77 10q29 12 41.5 31t12.5 49v174v727q0 41 -31 60.5t-94 34.5v90h487v-90q-63 -14 -94 -34t-31 -61v-907v-2q7 -78 189 -82z" glyph-name="afii10043" horiz-adv-x="1976" unicode="Щ"/><glyph d="M901 780q213 0 352.5 -105.5t139.5 -283.5q0 -182 -139.5 -286.5t-370.5 -104.5h-308h-294v86q63 14 94 33.5t31 60.5v907q0 53 -68 80l-39 -2q-70 -2 -101.5 -14t-52.5 -53l-32 -68l-93 4l50 191q12 47 61 47h373h264v-90q-63 -14 -94 -34t-31 -61v-307h258zM899 96 q125 0 185.5 80t60.5 215q0 133 -60.5 216t-185.5 83h-256v-510q0 -33 20.5 -52t63.5 -32h172z" glyph-name="afii10044" horiz-adv-x="1443" unicode="Ъ"/><glyph d="M680 780q215 0 354.5 -105.5t139.5 -283.5q0 -182 -139.5 -286.5t-372.5 -104.5h-306h-295v86q63 14 94 33.5t31 60.5v907q0 41 -30.5 60.5t-94.5 34.5v90h488v-90q-63 -14 -94 -34t-31 -61v-307h256zM1724 1182q-66 -14 -95.5 -34t-29.5 -61v-907q0 -41 30 -60.5 t95 -33.5v-86h-487v86q63 14 94 33.5t31 60.5v907q0 41 -31 60.5t-94 34.5v90h487v-90zM680 96q125 0 185.5 80t60.5 215q0 133 -60.5 216t-185.5 83h-256v-510q0 -61 84 -84h172z" glyph-name="afii10045" horiz-adv-x="1785" unicode="Ы"/><glyph d="M680 780q215 0 354.5 -105.5t139.5 -283.5q0 -182 -139.5 -286.5t-372.5 -104.5h-306h-295v86q63 14 94 33.5t31 60.5v907q0 41 -30.5 60.5t-94.5 34.5v90h488v-90q-63 -14 -94 -34t-31 -61v-307h256zM680 96q125 0 185.5 80t60.5 215q0 133 -60.5 216t-185.5 83h-256 v-510q0 -61 84 -84h172z" glyph-name="afii10046" horiz-adv-x="1234" unicode="Ь"/><glyph d="M606 1305q250 0 422 -182.5t172 -458.5q0 -303 -185.5 -493.5t-443.5 -190.5q-344 0 -491 251q-31 53 -25 78q4 18 32 37t48 19q10 0 19.5 -7.5t15.5 -15.5t18.5 -26.5t22.5 -30.5q123 -168 305 -168q156 0 271.5 132t142.5 339h-461v119h467q-4 238 -108.5 359.5 t-272.5 121.5q-233 0 -326 -236q-25 -61 -28 -73q-12 -33 -47 -23l-97 33l23 373l59 10q29 6 39 -33q6 -37 10.5 -52.5t16.5 -32.5t31 -17q139 168 370 168z" glyph-name="afii10047" horiz-adv-x="1261" unicode="Э"/><glyph d="M1278 1305q264 0 443.5 -186.5t179.5 -465.5q0 -287 -179.5 -480t-443.5 -193q-254 0 -427 166.5t-194 441.5h-233v-408q0 -41 30.5 -60.5t94.5 -33.5v-86h-488v86q63 14 94 33.5t31 60.5v907q0 41 -30.5 60.5t-94.5 34.5v90h488v-90q-63 -14 -94 -34t-31 -61v-380h233 q18 264 192.5 431t428.5 167zM1323 119q70 0 123 20.5t99 69.5t70.5 145.5t24.5 235.5q0 268 -112.5 431t-286.5 163q-147 0 -236.5 -110.5t-89.5 -360.5q0 -264 116 -429t292 -165z" glyph-name="afii10048" horiz-adv-x="1961" unicode="Ю"/><glyph d="M41 94h20q37 2 63 18.5t47.5 58.5t32.5 71.5t34 101.5q72 221 303 254q-180 20 -271.5 109.5t-91.5 216.5q0 154 131 251t346 97h617v-86q-121 -25 -121 -105v-901q0 -41 28.5 -60.5t92.5 -33.5v-86h-484v86q63 14 93 33.5t30 60.5v375h-137q-100 0 -157.5 -50 t-98.5 -175q-57 -176 -132 -253t-210 -77h-135v94zM657 670h254v506h-268q-109 0 -161 -71t-52 -181.5t53 -182t174 -71.5z" glyph-name="afii10049" horiz-adv-x="1335" unicode="Я"/><glyph d="M864 193q0 -49 27 -66.5t86 -7.5l-6 -82q-117 -49 -180 -49q-115 0 -136 200q-84 -201 -280 -200q-139 0 -231.5 66.5t-92.5 191.5q0 137 125 215t471 125v41q0 113 -36 166t-119 53q-86 0 -122 -32t-36 -124q0 -31 -37 -48t-86 -17q-45 0 -73.5 27.5t-28.5 70.5 q0 102 114.5 160.5t276.5 58.5q365 0 364 -358v-391zM424 121q143 0 223 201v174q-121 -18 -199.5 -47t-113.5 -64t-46.5 -63.5t-11.5 -65.5q0 -57 42.5 -96t105.5 -39z" glyph-name="afii10065" horiz-adv-x="1007" unicode="а"/><glyph d="M543 938q186 0 324.5 -128t138.5 -339q0 -219 -138.5 -355t-322.5 -136q-168 0 -298 120.5t-175 358.5q-35 152 -18.5 298t65.5 261t154.5 184.5t248.5 69.5h238q23 0 40 7t34.5 17.5t29.5 14.5h68q-59 -231 -234 -232h-221q-158 0 -226.5 -82t-96.5 -270 q63 100 167.5 155.5t221.5 55.5zM563 106q213 0 213 300q0 195 -71.5 305t-184.5 110q-211 0 -211 -301q0 -188 71.5 -301t182.5 -113z" glyph-name="afii10066" horiz-adv-x="1067" unicode="б"/><glyph d="M723 498q117 -20 183.5 -83t66.5 -153q0 -131 -98.5 -199.5t-280.5 -62.5l-115 4q-223 14 -418 -4v90q117 18 117 72v620q0 27 -29.5 45.5t-87.5 18.5v78h478q385 0 385 -222q0 -63 -53.5 -121t-147.5 -83zM389 846v-307h223q45 0 70 39.5t25 109.5q0 158 -179 158h-139z M569 100q88 -2 138.5 38t50.5 124q0 102 -65.5 150.5t-221.5 48.5h-82v-297q0 -61 43 -62z" glyph-name="afii10067" horiz-adv-x="1024" unicode="в"/><glyph d="M883 877l49 -191l-92 -4l-33 68q-45 92 -164 92h-127q-35 0 -51 -1t-34.5 -5.5t-26 -14.5t-7.5 -28v-633q0 -33 31 -46.5t109 -21.5v-92h-476v92q63 8 91 21.5t28 46.5v631q0 57 -119 57v76h455h305q50 0 62 -47z" glyph-name="afii10068" horiz-adv-x="962" unicode="г"/><glyph d="M1202 848q-162 0 -162 -57v-621q0 -45 32 -60.5t116 -17.5q23 0 22 -24l-49 -344h-69q-23 0 -23 22q0 14 1 46t0 43t-3 36t-9 34t-19.5 27.5t-31 24.5t-46 17.5t-65.5 15.5t-87 7t-111 3h-176q-135 0 -217 -15.5t-117.5 -53t-45 -75.5t-9.5 -110q0 -23 -22 -22h-60v348 q0 20 21 22q289 49 288 694q0 35 -34.5 47.5t-126.5 12.5v76h1003v-76zM705 92q61 0 89.5 15.5t28.5 62.5v614q0 35 -16 47.5t-57 12.5h-215q-39 0 -51.5 -10.5t-12.5 -45.5q0 -575 -201 -696h435z" glyph-name="afii10069" horiz-adv-x="1282" unicode="д"/><glyph d="M934 559q0 -59 -30 -94t-85 -35h-524q0 -139 74.5 -231.5t197.5 -92.5q137 0 248 134l78 -80q-131 -172 -356 -172q-199 0 -337.5 136t-138.5 345q0 215 133.5 344t315.5 129q170 0 297 -111.5t127 -271.5zM717 537q0 143 -52.5 223t-154.5 80t-158.5 -81t-56.5 -222h422 z" glyph-name="afii10070" horiz-adv-x="995" unicode="е"/><glyph d="M1343 193q59 -70 96.5 -91.5t80.5 -29.5v-72h-385v72q68 12 65 26q0 4 -4 8l-258 306h-49v-273q0 -23 15.5 -37t31.5 -19t49 -11v-72h-389v72q33 6 50.5 11t32.5 19.5t15 36.5v273h-51l-258 -306q-14 -14 25 -26q14 -4 36 -8v-72h-385v72q43 8 81 30.5t98 90.5l274 315 l-195 278q-18 16 -32.5 11.5t-50.5 -27.5q-12 -8 -19 -12q-43 -27 -84 -0.5t-41 76.5q0 45 38 68.5t95 23.5q119 0 191 -109l172 -256q37 -57 88 -57h18v282q0 23 -15 37.5t-32.5 19.5t-50.5 11v70h389v-70q-33 -6 -49 -11t-31.5 -19.5t-15.5 -37.5v-282h16q51 0 88 57 l172 256q72 109 191 109q57 0 95 -23.5t38 -68.5q0 -49 -41 -76t-84 0q-70 43 -84 41q-10 0 -18 -13l-195 -278z" glyph-name="afii10072" horiz-adv-x="1581" unicode="ж"/><glyph d="M657 549q80 -14 140.5 -78.5t60.5 -165.5q0 -137 -126 -229t-283 -92q-184 0 -285 78.5t-103 191.5q0 88 99 88q43 0 59.5 -14.5t25.5 -60.5t17 -64q45 -115 191 -115q82 0 137 48t55 140q0 84 -36 130.5t-85 46.5q-39 0 -73 -13l-58 -22l-35 90l72 29q156 61 156 176 q0 57 -35 92t-102 35q-78 0 -137.5 -40t-84.5 -114q0 -2 -4 -13t-5 -13.5l-5 -12.5t-5 -11t-6 -10.5t-8.5 -8.5t-9.5 -5t-11 -2t-13 2l-92 21l16 287h70q33 0 41 -40t22 -49q90 111 246 111q141 0 230 -68.5t89 -150.5q0 -125 -125 -174z" glyph-name="afii10073" horiz-adv-x="909" unicode="з"/><glyph d="M1133 850q-33 -6 -49.5 -11t-32 -19.5t-15.5 -37.5v-632q0 -23 15.5 -37.5t32 -19.5t49.5 -11v-82h-400v82q33 6 50.5 11t32.5 19.5t15 37.5v493l-466 -471v-22q0 -23 15 -37.5t31.5 -19.5t49.5 -11v-82h-400v82q33 6 50.5 11t33 19.5t15.5 37.5v632q0 23 -15.5 37.5 t-33 19.5t-50.5 11v74h400v-74q-33 -6 -49.5 -11t-31.5 -19.5t-15 -37.5v-487l466 479v8q0 23 -15 37.5t-32.5 19.5t-50.5 11v74h400v-74z" glyph-name="afii10074" horiz-adv-x="1193" unicode="и"/><glyph d="M625 1120q-123 0 -204 76t-87 197q0 23 20 22h60q20 0 22 -22q6 -47 57.5 -79t131.5 -32t131 32t57 79q2 23 23 22h59q20 0 20 -22q-6 -121 -86.5 -197t-203.5 -76zM1133 850q-33 -6 -49.5 -11t-32 -19.5t-15.5 -37.5v-632q0 -23 15.5 -37.5t32 -19.5t49.5 -11v-82h-400 v82q33 6 50.5 11t32.5 19.5t15 37.5v493l-466 -471v-22q0 -23 15 -37.5t31.5 -19.5t49.5 -11v-82h-400v82q33 6 50.5 11t33 19.5t15.5 37.5v632q0 23 -15.5 37.5t-33 19.5t-50.5 11v74h400v-74q-33 -6 -49.5 -11t-31.5 -19.5t-15 -37.5v-487l466 479v8q0 23 -15 37.5 t-32.5 19.5t-50.5 11v74h400v-74z" glyph-name="afii10075" horiz-adv-x="1193" unicode="й"/><glyph d="M844 195q63 -70 100 -94.5t78 -28.5v-72h-385v72q70 10 65 30q0 2 -4 7l-268 303h-65v-262q0 -23 15 -37.5t31.5 -19.5t49.5 -11v-82h-400v82q33 6 50.5 11t33 19.5t15.5 37.5v632q0 23 -15.5 37.5t-33 19.5t-50.5 11v74h400v-76q-57 -10 -76.5 -22.5t-19.5 -45.5v-276 h32q49 0 88 57l183 256q76 109 180 109q63 0 103 -23.5t40 -68.5q0 -49 -41 -76t-84 0q-70 43 -84 41q-10 0 -18 -13l-207 -278z" glyph-name="afii10076" horiz-adv-x="1062" unicode="к"/><glyph d="M1157 850q-76 -6 -104.5 -19.5t-28.5 -48.5v-626q0 -25 19.5 -39.5t41 -19.5t72.5 -15v-82h-467v82q47 10 65.5 15t36 19.5t17.5 39.5v626q0 66 -80 66h-225v-291q0 -252 -12 -330q-43 -250 -250 -250q-174 0 -199 117q-12 90 57 121q37 16 71 8t42 -37q4 -14 6 -55 t13.5 -56.5t39.5 -15.5q45 0 71 26t36 98.5t12 120.5t0 171v37l-2 274q0 35 -37 48.5t-133 13.5v76h285h653v-74z" glyph-name="afii10077" horiz-adv-x="1218" unicode="л"/><glyph d="M1249 858q-41 -10 -56 -26.5t-15 -51.5v-635q0 -33 12 -42t59 -23v-80h-342v80q63 20 72 35q6 10 6 30v510l-287 -544q-20 -37 -60 -37t-63 37l-327 544v-510q0 -29 13 -39t54 -22q10 -2 15 -4v-80h-269v80q63 18 72 33q6 10 6 32v635q0 35 -17.5 50.5t-60.5 27.5v66h283 q172 -340 344 -600q156 297 309 600h252v-66z" glyph-name="afii10078" horiz-adv-x="1310" unicode="м"/><glyph d="M1133 850q-33 -6 -49.5 -11t-32 -19.5t-15.5 -37.5v-632q0 -23 15.5 -37.5t32 -19.5t49.5 -11v-82h-400v82q33 6 50.5 11t32.5 19.5t15 37.5v266h-466v-266q0 -23 15 -37.5t31.5 -19.5t49.5 -11v-82h-400v82q33 6 50.5 11t33 19.5t15.5 37.5v632q0 23 -15.5 37.5 t-33 19.5t-50.5 11v74h400v-74q-33 -6 -49.5 -11t-31.5 -19.5t-15 -37.5v-264h466v264q0 23 -15 37.5t-32.5 19.5t-50.5 11v74h400v-74z" glyph-name="afii10079" horiz-adv-x="1193" unicode="н"/><glyph d="M524.5 942q186.5 0 325.5 -129t139 -340q0 -217 -138 -351t-322.5 -134t-326 132t-141.5 337q0 221 138.5 353t325 132zM760 408q0 195 -72 306t-184 111q-213 0 -213 -303q0 -184 71.5 -295.5t182.5 -111.5q215 0 215 293z" glyph-name="afii10080" horiz-adv-x="1050" unicode="о"/><glyph d="M1133 850q-33 -6 -49.5 -11t-32 -19.5t-15.5 -37.5v-632q0 -23 15.5 -37.5t32 -19.5t49.5 -11v-82h-400v82q33 6 50.5 11t32.5 19.5t15 37.5v630q0 59 -61 68h-346q-59 -10 -59 -68v-630q0 -23 15 -37.5t31.5 -19.5t49.5 -11v-82h-400v82q33 6 50.5 11t33 19.5t15.5 37.5 v632q0 23 -15.5 37.5t-33 19.5t-50.5 11v74h379h504h189v-74z" glyph-name="afii10081" horiz-adv-x="1193" unicode="п"/><glyph d="M610 942q186 0 324.5 -129t138.5 -340q0 -217 -138 -351t-323 -134q-123 0 -235 80v-316q0 -35 23.5 -46t78.5 -11v-72h-413v72q51 0 73.5 11t22.5 46v989q0 96 -121 80v84l281 35q37 6 43 -21.5t-9 -68.5q119 92 254 92zM635 115q209 0 209 293q0 195 -72 306t-184 111 q-211 0 -211 -303q0 -184 73.5 -295.5t184.5 -111.5z" glyph-name="afii10082" horiz-adv-x="1134" unicode="р"/><glyph d="M891 182q-39 -74 -134 -134t-249 -60q-178 0 -312.5 134t-134.5 341q0 219 135.5 349t319.5 130q170 0 274.5 -78t104.5 -176q0 -43 -25.5 -69.5t-76.5 -26.5q-53 0 -82 23.5t-29 58.5q0 41 -3 61.5t-14.5 46t-42 36.5t-81.5 11q-133 0 -190.5 -76.5t-57.5 -252.5 q0 -164 78 -277.5t204 -111.5q20 0 39 3t32 5t29.5 11t24 12t22.5 16.5t19 16.5t20.5 20.5t18.5 19.5q33 37 62 12z" glyph-name="afii10083" horiz-adv-x="978" unicode="с"/><glyph d="M928 877l14 -170h-72l-32 67q-35 68 -95 68h-147v-692q0 -23 15.5 -37.5t31.5 -19.5t49 -11v-82h-399v82q33 6 50 11t32.5 19.5t15.5 37.5v692h-149q-61 0 -95 -68l-32 -67h-74l14 170q4 47 45 47h783q41 0 45 -47z" glyph-name="afii10084" horiz-adv-x="983" unicode="т"/><glyph d="M1118 924v-70l-28 -12q-8 -4 -21.5 -9.5t-22 -8.5t-17.5 -8t-15 -12t-10 -18l-422 -960q-61 -145 -115.5 -205.5t-161.5 -60.5q-102 0 -166.5 44t-64.5 120q0 49 29.5 79.5t84.5 30.5q49 0 73 -24.5t25 -54t10 -54.5t36 -25q43 0 71.5 36t63.5 116l59 147l-391 811 q-20 39 -67 56l-37 12v70h434v-70l-51 -10q-66 -12 -45 -58l266 -555l227 555q8 20 -7 36t-42 22l-57 10v70h362z" glyph-name="afii10085" horiz-adv-x="1138" unicode="у"/><glyph d="M1079 936q137 0 239.5 -134t102.5 -333q0 -225 -99 -353t-245 -128q-143 0 -233 186v-401q0 -23 15 -37.5t31.5 -19.5t49.5 -11v-82h-399v82q33 6 50 11t32.5 19.5t15.5 37.5v401q-90 -186 -231 -186q-147 0 -247 128t-100 353q0 199 103.5 333t241.5 134 q68 0 115.5 -28.5t70 -63.5t47.5 -94v395q0 96 -121 80v80l266 38q16 2 27.5 0t18 -10t10.5 -16t5 -24.5t1 -29t-1 -35t-1 -36.5v-442q27 61 48 95t69 62.5t118 28.5zM434 127q117 0 205 147v377q-86 168 -213 168q-63 0 -108.5 -96t-45.5 -254q0 -133 47 -237.5t115 -104.5 zM1051 127q66 0 112.5 104.5t46.5 237.5q0 158 -45 254t-106 96q-129 0 -215 -168v-377q88 -147 207 -147z" glyph-name="afii10086" horiz-adv-x="1482" unicode="ф"/><glyph d="M1006 102l55 -4v-98q-221 16 -447 0v98l56 2q35 4 43 13.5t-13 44.5l-182 223l-184 -213q-23 -27 -12.5 -45.5t38.5 -22.5l43 -2v-98q-182 16 -362 0v98l55 4q43 6 99 68l256 295l-234 289q-25 31 -47.5 48t-34.5 22t-39 12l-41 10v76q223 -14 447 0v-76l-56 -8 q-53 -8 -12 -62l146 -182l147 170q53 59 -10 74l-43 8v76q180 -12 360 0v-76l-47 -10q-76 -14 -153 -109l-187 -219l275 -342q45 -58 84 -64z" glyph-name="afii10087" horiz-adv-x="1101" unicode="х"/><glyph d="M1212 82q25 0 23 -25l-49 -333h-64q-23 0 -22 22q6 59 1 106.5t-32 80t-107.5 50t-228.5 17.5h-661v82q33 6 50 11t32.5 19.5t15.5 37.5v632q0 23 -15.5 37.5t-33 19.5t-49.5 11v74h399v-74q-33 -6 -49 -11t-31.5 -19.5t-15.5 -37.5v-632q0 -33 27.5 -51.5t68.5 -18.5 h281q90 0 90 80v622q0 23 -15.5 37.5t-33 19.5t-50.5 11v74h400v-74q-33 -6 -49.5 -11t-31.5 -19.5t-15 -37.5v-622q0 -47 37.5 -62.5t127.5 -15.5z" glyph-name="afii10088" horiz-adv-x="1286" unicode="ц"/><glyph d="M1104 848q-57 -10 -76.5 -22.5t-19.5 -45.5v-630q0 -23 15 -37.5t31.5 -19.5t49.5 -11v-82h-399v82q33 6 50 11t32.5 19.5t15.5 37.5v292q-16 -70 -92 -136t-203 -66q-174 0 -267.5 79.5t-93.5 284.5v129q0 59 -23.5 84t-92.5 33l20 74h418v-74q-47 -6 -66.5 -11 t-36 -18.5t-16.5 -38.5v-168q0 -117 52.5 -182t140.5 -65q86 0 157.5 53t102.5 106v256q0 23 -15.5 37.5t-33 19.5t-49.5 11v74h399v-76z" glyph-name="afii10089" horiz-adv-x="1165" unicode="ч"/><glyph d="M1546 850q-96 -12 -96 -64v-641q0 -51 96 -63v-82h-379h-542h-387h-177v82q98 12 99 63v641q0 51 -99 64v74h400v-74q-96 -12 -96 -64v-643q0 -63 75 -63h185q78 0 77 65v641q0 51 -98 64v74h400v-74q-96 -12 -97 -64v-643q0 -63 76 -63h184q78 0 78 63v643q0 51 -98 64 v74h399v-74z" glyph-name="afii10090" horiz-adv-x="1607" unicode="ш"/><glyph d="M1616 82q27 0 22 -25l-49 -333h-65q-23 0 -23 22q6 59 1 106.5t-30.5 80t-106.5 50t-228 17.5h-336h-361h-379v82q98 12 99 63v641q0 51 -99 64v74h400v-74q-96 -12 -96 -64v-643q0 -63 75 -63h185q78 0 77 65v641q0 51 -98 64v74h400v-74q-96 -12 -97 -64v-643 q0 -63 76 -63h158q57 0 80.5 15.5t23.5 64.5v626q0 51 -98 64v74h399v-74q-96 -12 -96 -64v-626q0 -45 36 -60.5t130 -17.5z" glyph-name="afii10091" horiz-adv-x="1689" unicode="щ"/><glyph d="M674 698q231 0 366.5 -94t135.5 -254t-135.5 -255t-364.5 -95h-207h-221v82q33 6 50 11t32.5 19.5t15.5 37.5v632q0 29 -2 40.5t-13.5 19.5t-37.5 8q-123 -2 -160 -78l-33 -65h-80l50 170q12 47 61 47h401h19v-226h123zM709 82q117 0 174 73.5t57 194.5t-64.5 194.5 t-209.5 73.5h-115v-468q0 -68 76 -68h82z" glyph-name="afii10092" horiz-adv-x="1226" unicode="ъ"/><glyph d="M487 698q231 0 366.5 -94t135.5 -254t-135 -255t-365 -95h-206h-222v82q33 6 50.5 11t33 19.5t15.5 37.5v632q0 23 -15.5 37.5t-33 19.5t-50.5 11v74h400v-76q-57 -10 -76.5 -22.5t-19.5 -45.5v-82h122zM1470 848q-57 -10 -76.5 -22.5t-19.5 -45.5v-630q0 -23 15.5 -37.5 t32 -19.5t48.5 -11v-82h-399v82q33 6 50.5 11t32.5 19.5t15 37.5v632q0 23 -15 37.5t-32.5 19.5t-50.5 11v74h399v-76zM522 82q117 0 174.5 73.5t57.5 194.5t-64.5 194.5t-210.5 73.5h-114v-468q0 -68 75 -68h82z" glyph-name="afii10093" horiz-adv-x="1531" unicode="ы"/><glyph d="M487 698q231 0 366.5 -94t135.5 -254t-135 -255t-365 -95h-206h-222v82q33 6 50.5 11t33 19.5t15.5 37.5v632q0 23 -15.5 37.5t-33 19.5t-50.5 11v74h400v-76q-57 -10 -76.5 -22.5t-19.5 -45.5v-82h122zM522 82q117 0 174.5 73.5t57.5 194.5t-64.5 194.5t-210.5 73.5 h-114v-468q0 -68 75 -68h82z" glyph-name="afii10094" horiz-adv-x="1052" unicode="ь"/><glyph d="M469 942q195 0 329 -138t134 -331q0 -219 -139.5 -354t-339.5 -135q-268 0 -377 188q-23 29 -18 51.5t48 44.5q14 8 29 9.5t24 -3t20 -16.5t16.5 -19.5t14.5 -23.5t11 -20q37 -57 80 -79t117 -22q104 0 185 87t99 235h-290v102h297q-4 164 -75 243t-177 79 q-88 0 -148.5 -36t-97.5 -130q-4 -8 -9 -23.5t-7 -21.5t-8.5 -16.5t-11.5 -11.5t-16.5 -5t-23.5 2l-84 23l17 297h63q31 0 38 -10.5t10 -37t16 -47.5q96 119 274 119z" glyph-name="afii10095" horiz-adv-x="995" unicode="э"/><glyph d="M1006 942q186 0 325 -129t139 -340q0 -217 -139 -351t-323 -134q-174 0 -311.5 118.5t-151.5 309.5h-180v-266q0 -23 15 -37.5t31.5 -19.5t49.5 -11v-82h-400v82q33 6 50.5 11t33 19.5t15.5 37.5v632q0 23 -15.5 37.5t-33 19.5t-50.5 11v74h400v-74q-33 -6 -49.5 -11 t-31.5 -19.5t-15 -37.5v-264h182q18 195 152.5 309.5t306.5 114.5zM1026 115q215 0 215 293q0 195 -71.5 306t-184.5 111q-213 0 -213 -303q0 -184 71.5 -295.5t182.5 -111.5z" glyph-name="afii10096" horiz-adv-x="1531" unicode="ю"/><glyph d="M948 848q-78 0 -78 -82v-623q0 -16 2 -25t16.5 -17.5t22 -10.5l37.5 -10v-80h-383v80q6 2 19.5 5t18.5 5t14.5 5t13.5 6t9 7.5t7 8.5t4 11t2 15v250h-104q-70 0 -101.5 -31.5t-56.5 -125.5q-27 -104 -77 -166t-105 -70h-178v80h26q41 0 72 48t43 120q27 150 182 174 q-252 47 -252 240q0 119 98.5 190.5t258.5 71.5h489v-76zM653 479v363h-202q-68 0 -102 -49.5t-34 -130.5q0 -182 148 -183h190z" glyph-name="afii10097" horiz-adv-x="1009" unicode="я"/><glyph d="M645 1178q33 -33 10 -64q-20 -31 -57 -8l-276 160q-47 29 -61.5 69.5t18.5 85.5q70 78 149 -10zM934 559q0 -59 -30 -94t-85 -35h-524q0 -139 74.5 -231.5t197.5 -92.5q137 0 248 134l78 -80q-131 -172 -356 -172q-199 0 -337.5 136t-138.5 345q0 215 133.5 344 t315.5 129q170 0 297 -111.5t127 -271.5zM717 537q0 143 -52.5 223t-154.5 80t-158.5 -81t-56.5 -222h422z" glyph-name="uni0450" horiz-adv-x="995" unicode="ѐ"/><glyph d="M280.5 1133q-57.5 0 -98.5 40.5t-41 98t41 98.5t98.5 41t98.5 -41t41 -98.5t-41 -98t-98.5 -40.5zM725 1133q-57 0 -98 40.5t-41 98t41 98.5t98 41t97 -41t40 -98.5t-40 -98t-97 -40.5zM934 559q0 -59 -30 -94t-85 -35h-524q0 -139 74.5 -231.5t197.5 -92.5 q137 0 248 134l78 -80q-131 -172 -356 -172q-199 0 -337.5 136t-138.5 345q0 215 133.5 344t315.5 129q170 0 297 -111.5t127 -271.5zM717 537q0 143 -52.5 223t-154.5 80t-158.5 -81t-56.5 -222h422z" glyph-name="afii10071" horiz-adv-x="995" unicode="ё"/><glyph d="M403 1106q-37 -23 -57 8q-23 31 10 64l217 233q80 88 150 10q33 -45 18.5 -86t-61.5 -69zM883 877l49 -191l-92 -4l-33 68q-45 92 -164 92h-127q-35 0 -51 -1t-34.5 -5.5t-26 -14.5t-7.5 -28v-633q0 -33 31 -46.5t109 -21.5v-92h-476v92q63 8 91 21.5t28 46.5v631 q0 57 -119 57v76h455h305q50 0 62 -47z" glyph-name="afii10100" horiz-adv-x="962" unicode="ѓ"/><glyph d="M889 268q29 -16 39 -30.5t8 -28.5t-16 -37q-113 -188 -377 -188q-203 0 -342.5 135t-139.5 354q0 193 135.5 331t329.5 138q178 0 275 -119q10 16 14 37t4 31t10.5 18.5t34.5 8.5h62l16 -297l-84 -23q-12 0 -20.5 -2t-15.5 3t-11 7t-8 12.5t-6 16.5t-6.5 18.5t-8.5 20.5 q-37 94 -96 130t-149 36q-106 0 -177 -79t-75 -243h299v-102h-293q18 -147 100 -234.5t187 -87.5q74 0 115.5 21.5t78.5 79.5q4 6 12.5 20t14.5 23.5t16 20.5t20.5 15.5t24 3t29.5 -9.5z" glyph-name="afii10101" horiz-adv-x="993" unicode="є"/><glyph d="M872 262q0 -125 -119.5 -199.5t-295.5 -74.5q-139 0 -255 55t-130 96q-57 176 39 191q113 18 125 -56q27 -186 221 -186q100 0 153.5 38t53.5 101q0 43 -38 75t-78 46t-122 39q-63 18 -110.5 37.5t-105.5 54.5t-90 86t-32 117q0 119 95.5 189.5t277.5 70.5 q131 0 242.5 -56.5t115.5 -94.5q8 -98 -10 -133t-59 -40q-59 -4 -85 13.5t-20 50.5q10 68 -41 119t-143 51q-84 0 -128 -30.5t-44 -84.5q0 -35 16.5 -61.5t52 -46t64.5 -30.5t78 -26q180 -53 241 -92q131 -80 131 -219z" glyph-name="afii10102" horiz-adv-x="923" unicode="ѕ"/><glyph d="M260 1108q-55 0 -94 39t-39 92t39 92t94 39q53 0 92 -39t39 -92t-39 -92t-92 -39zM383 141q0 -57 88 -57v-84h-391v84q90 0 90 57v607q0 35 -13.5 49t-43.5 14h-41v94l245 35q66 8 66 -76v-723z" glyph-name="afii10103" horiz-adv-x="532" unicode="і"/><glyph d="M14.5 1133q-57.5 0 -98.5 40.5t-41 98t41 98.5t98.5 41t98.5 -41t41 -98.5t-41 -98t-98.5 -40.5zM458.5 1133q-57.5 0 -98.5 40.5t-41 98t41 98.5t98.5 41t97.5 -41t40 -98.5t-40 -98t-97.5 -40.5zM383 141q0 -57 88 -57v-84h-391v84q90 0 90 57v611q0 35 -13.5 49 t-43.5 14h-41v94l245 19q66 6 66 -64v-723z" glyph-name="afii10104" horiz-adv-x="542" unicode="ї"/><glyph d="M293 1108q-55 0 -94 39t-39 92t39 92t94 39q53 0 92 -39t39 -92t-39 -92t-92 -39zM350 928q66 6 66 -64v-1016q0 -188 -168 -258q-111 -43 -204 -17t-132 103q-23 41 -12.5 89.5t51.5 68.5q49 20 83 8t50 -47q8 -16 20.5 -59t22.5 -63.5t27 -14.5q49 20 49 102v992 q0 35 -13.5 49t-44.5 14h-41v94z" glyph-name="afii10105" horiz-adv-x="557" unicode="ј"/><glyph d="M604 1120q-123 0 -204 76t-87 197q0 23 21 22h59q20 0 23 -22q6 -47 57 -79t131 -32t131 32t58 79q2 23 22 22h59q20 0 21 -22q-6 -121 -87 -197t-204 -76zM1118 924v-70l-28 -12q-8 -4 -21.5 -9.5t-22 -8.5t-17.5 -8t-15 -12t-10 -18l-422 -960q-61 -145 -115.5 -205.5 t-161.5 -60.5q-102 0 -166.5 44t-64.5 120q0 49 29.5 79.5t84.5 30.5q49 0 73 -24.5t25 -54t10 -54.5t36 -25q43 0 71.5 36t63.5 116l59 147l-391 811q-20 39 -67 56l-37 12v70h434v-70l-51 -10q-66 -12 -45 -58l266 -555l227 555q8 20 -7 36t-42 22l-57 10v70h362z" glyph-name="afii10110" horiz-adv-x="1138" unicode="ў"/><glyph d="M932 1423h80v-217q0 -20 -19.5 -33.5t-42.5 -13.5h-448q-74 -4 -74 -49v-928q0 -33 32 -52t107 -38v-92h-506v92q76 18 108 38t32 52v918q0 61 -140 80v92h486h188q121 0 164 84z" glyph-name="afii10050" horiz-adv-x="1062" unicode="Ґ"/><glyph d="M752 1075h92v-168q0 -29 -23.5 -47t-52.5 -18l-307 -2q-63 -4 -64 -47v-633q0 -33 31 -46.5t109 -21.5v-92h-476v92q63 8 91 21.5t28 46.5v631q0 57 -119 57v76h455h39q121 0 164 84z" glyph-name="afii10098" horiz-adv-x="894" unicode="ґ"/><glyph d="M823 1614q-47 29 -61 69.5t18 85.5q70 78 150 -10l217 -233q33 -33 10 -64q-20 -31 -57 -8zM1583 1272h375v-92q-63 -8 -90 -31t-49 -82l-379 -1077h-60q-45 0 -65 49l-305 774l-283 -823h-59q-45 0 -66 49l-385 977q-39 98 -72.5 126.5t-103.5 37.5v92h475v-92 q-59 -8 -80.5 -21.5t-13.5 -38.5l301 -803l221 660l-14 39q-39 98 -73 126.5t-103 37.5v92h475v-92q-55 -8 -79 -22.5t-15 -37.5l301 -803l268 783q12 35 -21.5 53t-99.5 27v92z" glyph-name="Wgrave" horiz-adv-x="1998" unicode="Ẁ"/><glyph d="M643 1266q-47 29 -61.5 69.5t18.5 85.5q70 78 150 -10l217 -233q33 -33 10 -64q-20 -31 -57 -8zM1235 924q203 -16 389 0v-70l-47 -16q-86 -29 -137 -162l-269 -682h-86q-57 0 -77 57l-195 504l-219 -561h-86q-57 0 -78 57l-248 629q-53 133 -119 158l-43 16v70 q217 -16 433 0v-70l-43 -16q-37 -14 -40 -36t31 -122l172 -477l168 530q-41 88 -86 105l-53 16v70q223 -16 442 0v-70l-53 -16q-37 -14 -40 -36t30 -122l172 -477l147 471q27 100 23 124.5t-43 39.5l-45 16v70z" glyph-name="wgrave" horiz-adv-x="1644" unicode="ẁ"/><glyph d="M987 1454q-37 -23 -57 8q-23 31 10 64l217 233q80 88 150 10q33 -45 18.5 -86t-61.5 -69zM1583 1272h375v-92q-63 -8 -90 -31t-49 -82l-379 -1077h-60q-45 0 -65 49l-305 774l-283 -823h-59q-45 0 -66 49l-385 977q-39 98 -72.5 126.5t-103.5 37.5v92h475v-92 q-59 -8 -80.5 -21.5t-13.5 -38.5l301 -803l221 660l-14 39q-39 98 -73 126.5t-103 37.5v92h475v-92q-55 -8 -79 -22.5t-15 -37.5l301 -803l268 783q12 35 -21.5 53t-99.5 27v92z" glyph-name="Wacute" horiz-adv-x="1998" unicode="Ẃ"/><glyph d="M807 1106q-37 -23 -57 8q-23 31 10 64l217 233q80 88 149 10q33 -45 18.5 -86t-61.5 -69zM1235 924q203 -16 389 0v-70l-47 -16q-86 -29 -137 -162l-269 -682h-86q-57 0 -77 57l-195 504l-219 -561h-86q-57 0 -78 57l-248 629q-53 133 -119 158l-43 16v70q217 -16 433 0 v-70l-43 -16q-37 -14 -40 -36t31 -122l172 -477l168 530q-41 88 -86 105l-53 16v70q223 -16 442 0v-70l-53 -16q-37 -14 -40 -36t30 -122l172 -477l147 471q27 100 23 124.5t-43 39.5l-45 16v70z" glyph-name="wacute" horiz-adv-x="1644" unicode="ẃ"/><glyph d="M782.5 1481q-57.5 0 -98.5 41t-41 98t41 98t98.5 41t98.5 -41t41 -98t-41 -98t-98.5 -41zM1226.5 1481q-57.5 0 -98.5 41t-41 98t41 98t98.5 41t97.5 -41t40 -98t-40 -98t-97.5 -41zM1583 1272h375v-92q-63 -8 -90 -31t-49 -82l-379 -1077h-60q-45 0 -65 49l-305 774 l-283 -823h-59q-45 0 -66 49l-385 977q-39 98 -72.5 126.5t-103.5 37.5v92h475v-92q-59 -8 -80.5 -21.5t-13.5 -38.5l301 -803l221 660l-14 39q-39 98 -73 126.5t-103 37.5v92h475v-92q-55 -8 -79 -22.5t-15 -37.5l301 -803l268 783q12 35 -21.5 53t-99.5 27v92z" glyph-name="Wdieresis" horiz-adv-x="1998" unicode="Ẅ"/><glyph d="M602 1133q-57 0 -98 40.5t-41 98t41 98.5t98 41t98 -41t41 -98.5t-41 -98t-98 -40.5zM1046.5 1133q-57.5 0 -98.5 40.5t-41 98t41 98.5t98.5 41t97.5 -41t40 -98.5t-40 -98t-97.5 -40.5zM1235 924q203 -16 389 0v-70l-47 -16q-86 -29 -137 -162l-269 -682h-86 q-57 0 -77 57l-195 504l-219 -561h-86q-57 0 -78 57l-248 629q-53 133 -119 158l-43 16v70q217 -16 433 0v-70l-43 -16q-37 -14 -40 -36t31 -122l172 -477l168 530q-41 88 -86 105l-53 16v70q223 -16 442 0v-70l-53 -16q-37 -14 -40 -36t30 -122l172 -477l147 471 q27 100 23 124.5t-43 39.5l-45 16v70z" glyph-name="wdieresis" horiz-adv-x="1644" unicode="ẅ"/><glyph d="M973 1686q-10 -104 -81 -167t-179 -63q-78 0 -171 69.5t-136 69.5q-55 0 -84 -36.5t-25 -61.5h-84q-25 92 50 156.5t175 64.5q82 0 168 -59.5t146 -59.5q47 0 83.5 32t32.5 55h105zM1153 252q-29 -57 -66 -205q-12 -47 -61 -47h-965v92q63 14 93 33.5t30 60.5v901 q0 41 -29.5 60.5t-93.5 34.5v90h940q20 0 27.5 -7.5t7.5 -29.5v-221h-90l-31 67q-18 41 -55 54.5t-108 13.5h-326v-442h344q33 0 52.5 13t27.5 27.5t24 57.5h56v-313h-56q-31 74 -51 86q-18 14 -53 14h-344v-471l428 4q57 0 83 11t54 48l53 68h109z" glyph-name="uni1EBC" unicode="Ẽ"/><glyph d="M897 1337q-10 -104 -81 -166.5t-179 -62.5q-78 0 -171 69.5t-136 69.5q-55 0 -84 -36.5t-25 -61.5h-84q-25 92 50 156.5t175 64.5q82 0 168 -59.5t146 -59.5q47 0 84 32t33 54h104zM934 559q0 -59 -30 -94t-85 -35h-524q0 -139 74.5 -231.5t197.5 -92.5q137 0 248 134 l78 -80q-131 -172 -356 -172q-199 0 -337.5 136t-138.5 345q0 215 133.5 344t315.5 129q170 0 297 -111.5t127 -271.5zM717 537q0 143 -52.5 223t-154.5 80t-158.5 -81t-56.5 -222h422z" glyph-name="uni1EBD" horiz-adv-x="995" unicode="ẽ"/><glyph d="M834 1526q33 -33 10 -64q-20 -31 -58 -8l-276 160q-47 29 -61.5 69.5t18.5 85.5q70 78 149 -10zM901 1272h379v-94q-61 -8 -95 -34t-77 -87l-338 -500v-389q0 -16 11.5 -28.5t37 -19.5t45 -10.5t56.5 -9.5v-100h-517v100q39 6 57.5 9.5t45 10.5t38 19.5t11.5 28.5v336 l-334 502q-78 119 -106 141q-31 25 -84 31v94h465v-94q-47 -8 -70 -25.5t-6 -42.5l297 -448l282 428q25 37 -3.5 58t-94.5 30v94z" glyph-name="Ygrave" horiz-adv-x="1310" unicode="Ỳ"/><glyph d="M743 1178q33 -33 11 -64q-20 -31 -58 -8l-276 160q-47 29 -61.5 69.5t18.5 85.5q70 78 149 -10zM1118 924v-70l-28 -12q-8 -4 -21.5 -9.5t-22 -8.5t-17.5 -8t-15 -12t-10 -18l-422 -960q-61 -145 -115.5 -205.5t-161.5 -60.5q-102 0 -166.5 44t-64.5 120q0 49 29.5 79.5 t84.5 30.5q49 0 73 -24.5t25 -54t10 -54.5t36 -25q43 0 71.5 36t63.5 116l59 147l-391 811q-20 39 -67 56l-37 12v70h434v-70l-51 -10q-66 -12 -45 -58l266 -555l227 555q8 20 -7 36t-42 22l-57 10v70h362z" glyph-name="ygrave" horiz-adv-x="1138" unicode="ỳ"/><glyph d="M61 578h1192v-129h-1192v129z" glyph-name="endash" horiz-adv-x="1366" unicode="–"/><glyph d="M51 578h1678v-129h-1678v129z" glyph-name="emdash" horiz-adv-x="1820" unicode="—"/><glyph d="M51 578h1678v-129h-1678v129z" glyph-name="afii00208" horiz-adv-x="1820" unicode="―"/><glyph d="M111 1157q31 104 114 174q20 14 39 -4l37 -41q-63 -72 -76 -102q-18 -53 -10 -82q25 6 57 4q47 -6 77 -47t24 -92q-6 -55 -49 -89t-97 -28q-51 6 -83.5 44t-41.5 85q-16 92 9 178z" glyph-name="quoteleft" horiz-adv-x="401" unicode="‘"/><glyph d="M313 1036q-31 -102 -112 -174q-23 -14 -41 4l-37 41q63 72 76 103q18 53 10 82q-25 -6 -57 -5q-45 6 -76 48.5t-23 91.5q6 55 48 89t96 27q51 -6 83.5 -42.5t41.5 -86.5q16 -92 -9 -178z" glyph-name="quoteright" horiz-adv-x="372" unicode="’"/><glyph d="M344 -70q-31 -102 -113 -174q-23 -14 -41 4l-36 41q63 72 75 103q18 53 11 82q-25 -6 -58 -4q-45 6 -75.5 48t-22.5 91q6 55 48 89t95 28q51 -6 84 -43t41 -86q17 -93 -8 -179z" glyph-name="quotesinglbase" horiz-adv-x="446" unicode="‚"/><glyph d="M72 1157q31 104 114 174q20 14 39 -4l37 -41q-63 -72 -76 -102q-18 -53 -10 -82q25 6 57 4q45 -6 76 -48t23 -91q-6 -55 -48 -89t-96 -28q-51 6 -83.5 44t-41.5 85q-16 92 9 178zM428 1157q31 104 115 174q20 14 39 -4l36 -41q-63 -72 -75 -102q-18 -53 -11 -82 q25 6 58 4q45 -6 75.5 -48t22.5 -91q-6 -55 -48 -89t-95 -28q-51 6 -84 44t-41 85q-17 92 8 178z" glyph-name="quotedblleft" horiz-adv-x="757" unicode="“"/><glyph d="M313 1036q-31 -104 -114 -174q-20 -14 -39 4l-37 41q63 70 74 103q20 51 12 82q-29 -6 -57 -5q-47 6 -77 47.5t-24 92.5q6 55 49 89t97 27q51 -6 82.5 -42.5t39.5 -86.5q19 -90 -6 -178zM670 1036q-31 -104 -115 -174q-20 -14 -39 4l-37 41q63 70 74 103q20 51 12 82 q-29 -6 -57 -5q-47 6 -77 47.5t-23 92.5q6 55 49 89t96 27q51 -6 83 -42.5t40 -86.5q19 -90 -6 -178z" glyph-name="quotedblright" horiz-adv-x="757" unicode="”"/><glyph d="M676 -70q-31 -102 -113 -174q-23 -14 -41 4l-37 41q63 72 76 103q18 53 10 82q-25 -6 -57 -4q-45 6 -75.5 48t-22.5 91q6 55 48 89t95 28q51 -6 84 -43t41 -86q17 -93 -8 -179zM344 -70q-31 -102 -113 -174q-23 -14 -41 4l-36 41q63 72 75 103q18 53 11 82q-25 -6 -58 -4 q-45 6 -75.5 48t-22.5 91q6 55 48 89t95 28q51 -6 84 -43t41 -86q17 -93 -8 -179z" glyph-name="quotedblbase" horiz-adv-x="778" unicode="„"/><glyph d="M827 1047q53 0 90 -36t37 -87.5t-36.5 -87t-90.5 -35.5q-29 0 -97 36.5t-120 41.5l4 -74l103 -100l-131 -439h-54l-131 439l103 100l4 74q-51 -4 -120 -41t-97 -37q-53 0 -90 35.5t-37 87t37 87.5t90 36q29 0 98.5 -38t122.5 -42q2 55 -39 125.5t-41 95.5q0 51 37 87 t90 36t90 -36t37 -87q0 -25 -41 -95.5t-39 -125.5q53 4 122.5 42t98.5 38z" glyph-name="dagger" horiz-adv-x="1118" unicode="†"/><glyph d="M827 432q53 0 90 -36t37 -87t-36.5 -87t-90.5 -36q-29 0 -100.5 40t-124.5 44q2 -55 43 -126.5t41 -98.5q0 -51 -37 -87t-90 -36t-90 36t-37 87q0 27 41 98.5t43 126.5q-53 -4 -125 -44t-100 -40q-53 0 -90 36t-37 87t37 87t90 36q29 0 100.5 -40t124.5 -44v68l-115 202 l115 199v68q-53 -4 -125 -44t-100 -40q-53 0 -90 35.5t-37 87t37 87.5t90 36q29 0 100.5 -40t124.5 -44q-2 55 -43 126.5t-41 98.5q0 51 37 87t90 36t90 -36t37 -87q0 -27 -41 -98.5t-43 -126.5q53 4 125 44t100 40q53 0 90 -36t37 -87.5t-36.5 -87t-90.5 -35.5 q-29 0 -100.5 40t-124.5 44v-68l115 -201l-115 -200v-68q53 4 124.5 44t100.5 40z" glyph-name="daggerdbl" horiz-adv-x="1128" unicode="‡"/><glyph d="M352 371q-94 0 -161.5 66.5t-67.5 160.5t67.5 161.5t161.5 67.5t161 -67.5t67 -161.5t-67 -160.5t-161 -66.5z" glyph-name="bullet" horiz-adv-x="702" unicode="•"/><glyph d="M590 -20q-51 0 -89 38.5t-38 92t38 91.5t89 38q53 0 91 -38t38 -91.5t-38 -92t-91 -38.5zM971 -20q-53 0 -91 38.5t-38 92t38 91.5t91 38t91 -38t38 -91.5t-38 -92t-91 -38.5zM211 -20q-53 0 -91 38.5t-38 92t39 91.5t90 38t90 -38t39 -91.5t-38 -92t-91 -38.5z" glyph-name="ellipsis" horiz-adv-x="1243" unicode="…"/><glyph d="M1092 1303h137l-885 -1313h-199l885 1229q-203 -168 -350 -113q0 -37 -6 -70q-23 -119 -113 -200.5t-217 -81.5q-121 0 -179.5 86t-35.5 196q25 111 116 196t220 85q74 0 125 -39q55 -25 89 -36t102.5 -22.5t146.5 10.5t164 73zM518 1036q18 66 1 129.5t-77 63.5 q-63 0 -105 -58.5t-58 -134.5q-35 -193 83 -192q61 0 101.5 57t54.5 135zM1073 541q117 0 174.5 -88t34.5 -193q-23 -119 -114 -201t-218 -82q-121 0 -178 86.5t-37 196.5q25 109 117 195t221 86zM1720 541q117 0 174.5 -89.5t34.5 -191.5q-23 -119 -114 -201t-218 -82 q-121 0 -178 86.5t-37 196.5q25 109 117 195t221 86zM1124 260q18 63 2 128t-75 65q-63 0 -105.5 -58.5t-58.5 -134.5q-35 -193 84 -192q61 0 101 57t52 135zM1772 260q18 63 1.5 128t-75.5 65q-63 0 -105.5 -58.5t-58.5 -134.5q-35 -193 84 -192q61 0 100.5 57t53.5 135z " glyph-name="perthousand" horiz-adv-x="2078" unicode="‰"/><glyph d="M98 469l365 338v-141l-137 -197l137 -197v-141z" glyph-name="guilsinglleft" horiz-adv-x="528" unicode="‹"/><glyph d="M430 469l-364 -338v141l137 197l-137 197v141z" glyph-name="guilsinglright" horiz-adv-x="528" unicode="›"/><glyph d="M567 1303h142l-885 -1313h-141z" glyph-name="fraction" horiz-adv-x="350" unicode="⁄"/><glyph d="M1391 309q6 -25 -25 -78q-147 -252 -492 -251q-203 0 -367.5 121.5t-227.5 330.5h-211l24 123h160q-6 51 -6 109v34h-133l24 123h125q47 217 207 350.5t371 133.5q231 0 370 -168q18 0 30.5 17t17 32.5t10.5 52.5q10 39 39 33l59 -10l25 -373l-99 -33q-35 -10 -47 23 q-4 12 -28 73q-92 236 -326 236q-145 0 -245.5 -93.5t-127.5 -273.5h459l-25 -123h-442v-8q0 -63 10 -135h412l-25 -123h-354q51 -143 152.5 -229t224.5 -86q182 0 305 168q10 12 22.5 30.5t18.5 26.5t15 15.5t20 7.5q20 0 48 -19t32 -37z" glyph-name="Euro" horiz-adv-x="1503" unicode="€"/><glyph d="M485 1272q12 0 21.5 -8.5t9.5 -18.5l6 -98h-45l-16 33q-8 16 -27 16h-92v-317q0 -20 53 -21v-51h-227v51q51 0 51 21v317h-90q-18 0 -27 -16l-16 -33h-45l6 98q0 10 9.5 18.5t21.5 8.5h407zM1241 1223q-23 -8 -29 -14.5t-6 -24.5v-297q0 -16 6.5 -20.5t36.5 -12.5v-47 h-200v47q29 8 37 13t8 20v225l-158 -256q-10 -23 -28.5 -22.5t-30.5 22.5l-177 258v-227q0 -14 8.5 -19.5t36.5 -13.5v-47h-167v47q31 8 38 13t7 20v297q0 18 -8.5 24t-36.5 13v51h155l187 -283l184 283h137v-49z" glyph-name="trademark" horiz-adv-x="1290" unicode="™"/><glyph d="M264 897q0 -33 60 -37v-57h-238v57q59 4 59 37v313l-63 -20v70l115 51q27 12 48 -0.5t19 -30.5v-383zM963 1303h141l-885 -1313h-141zM1174 272q45 -16 73.5 -54t28.5 -87q0 -61 -60.5 -107.5t-154.5 -46.5q-96 0 -152.5 46.5t-56.5 117.5q0 41 26.5 77t69.5 50 q-68 35 -67 103q0 51 48 90t132 39q78 0 129 -38t51 -89q1 -66 -67 -101zM1051 309l43 -10q16 -2 31.5 22.5t15.5 49.5q0 68 -78 67q-33 0 -49.5 -20.5t-16.5 -44.5q1 -54 54 -64zM1147 133q0 63 -80 82l-57 12q-16 4 -32.5 -24.5t-16.5 -63.5q0 -41 25.5 -69.5t74.5 -28.5 q86 0 86 92z" glyph-name="oneeighth" horiz-adv-x="1382" unicode="⅛"/><glyph d="M457 1102q94 -35 94 -135q0 -78 -62.5 -130.5t-154.5 -52.5q-96 0 -153.5 48.5t-57.5 113.5q0 51 53 51q31 0 43 -11t16.5 -41t6.5 -36q20 -61 90 -61q41 0 68.5 30.5t27.5 73.5q0 66 -44 79t-95 -15l-27 57l49 23q76 27 76 90t-65 63q-45 0 -61.5 -40t-4.5 -81l-90 13 q-25 10 -25 28q-2 63 48.5 104.5t138.5 41.5q86 0 135 -40t49 -85q0 -59 -55 -88zM1153 1303h141l-884 -1313h-142zM1341 272q45 -16 75 -54t30 -87q0 -61 -61.5 -107.5t-155.5 -46.5q-96 0 -152.5 46.5t-56.5 117.5q0 41 26.5 77t69.5 50q-68 35 -67 103q0 51 48 90t132 39 q80 0 131 -38t51 -89q0 -66 -70 -101zM1219 309l43 -10q16 -2 31.5 22.5t15.5 49.5q0 68 -78 67q-33 0 -49.5 -20.5t-16.5 -44.5q1 -54 54 -64zM1315 133q0 63 -80 82l-57 12q-16 4 -33 -24.5t-17 -63.5q0 -41 26 -69.5t75 -28.5q86 0 86 92z" glyph-name="threeeighths" horiz-adv-x="1581" unicode="⅜"/><glyph d="M553 985q0 -86 -60.5 -137t-156.5 -51q-98 0 -153.5 42t-59.5 117q-2 23 14.5 39.5t44.5 16.5q25 0 39.5 -10.5t18.5 -20.5t7 -31.5t5 -27.5q20 -63 84 -64q35 0 60.5 31t25.5 82t-30 86t-73 35q-16 0 -32.5 -4.5t-25.5 -7.5t-24.5 -11t-19.5 -10h-65l20 256h272l15 10 h49l-6 -86l-25 -20h-231l-6 -82q47 29 116 28q72 0 134.5 -49t62.5 -131zM1143 1303h141l-885 -1313h-141zM1331 272q45 -16 74 -54t29 -87q0 -61 -60.5 -107.5t-154.5 -46.5q-96 0 -152.5 46.5t-56.5 117.5q0 41 26.5 77t69.5 50q-68 35 -68 103q0 51 48.5 90t132.5 39 q78 0 129 -38t51 -89q0 -66 -68 -101zM1208 309l43 -10q16 -2 31.5 22.5t15.5 49.5q0 68 -77 67q-33 0 -49.5 -20.5t-16.5 -44.5q0 -54 53 -64zM1305 133q0 63 -80 82l-58 12q-16 4 -32.5 -24.5t-16.5 -63.5q0 -41 25.5 -69.5t75.5 -28.5q86 0 86 92z" glyph-name="fiveeighths" horiz-adv-x="1542" unicode="⅝"/><glyph d="M397 1214h-200l-13 -34h-71l24 102q6 29 43 29h355l-256 -512h-39q-25 0 -37.5 17.5t0.5 39.5zM1092 1303h141l-885 -1313h-141zM1280 272q45 -16 73.5 -54t28.5 -87q0 -61 -60 -107.5t-155 -46.5q-96 0 -152.5 46.5t-56.5 117.5q0 41 27 77t70 50q-68 35 -68 103 q0 51 48 90t132 39q78 0 129.5 -38t51.5 -89q0 -66 -68 -101zM1157 309l43 -10q16 -2 31.5 22.5t15.5 49.5q0 68 -78 67q-33 0 -49 -20.5t-16 -44.5q0 -54 53 -64zM1253 133q0 63 -79 82l-58 12q-16 4 -32.5 -24.5t-16.5 -63.5q0 -41 25.5 -69.5t74.5 -28.5q86 0 86 92z" glyph-name="seveneighths" horiz-adv-x="1474" unicode="⅞"/><glyph d="M264 1151l-26 39q-14 23 4 37q102 76 266 76q172 0 298 -105.5t184.5 -264.5t60.5 -343q2 -172 -47.5 -306t-164 -221.5t-284.5 -87.5q-209 0 -341 127t-132 299q0 184 130 297t312 113q100 0 181 -44t116 -87q-8 111 -24.5 190.5t-50 156.5t-96 117t-152.5 40 q-100 0 -197 -39q-27 -12 -37 6zM817 551q-2 35 -87 87t-193 52q-104 0 -169 -79t-65 -203q0 -135 58.5 -223.5t193.5 -88.5q131 0 201.5 124t60.5 331z" glyph-name="partialdiff" horiz-adv-x="1132" unicode="∂"/><glyph d="M877 825q158 -137 157 -354q0 -223 -146.5 -355t-332.5 -132q-139 0 -260 71l-41 -55l-82 61l41 56q-141 135 -141 338q0 223 147.5 355t335.5 132q123 0 236 -59l49 63l82 -61zM293 496q0 -117 45 -213l354 469q-72 66 -147 65q-252 1 -252 -321zM565 109 q115 0 182.5 77.5t67.5 243.5q0 133 -59 236l-359 -473q78 -84 168 -84z" glyph-name="emptyset" horiz-adv-x="1105" unicode="∅"/><glyph d="M1165 1638v-2048h-143v1905h-735v-1905h-144v2048h1022z" glyph-name="product" horiz-adv-x="1308" unicode="∏"/><glyph d="M1024 1638v-143h-700l600 -883l-600 -878h700v-144h-881v144l594 880l-594 881v143h881z" glyph-name="summation" horiz-adv-x="1167" unicode="∑"/><glyph d="M143 586h758v-142h-758v142z" glyph-name="minus" horiz-adv-x="1044" unicode="−"/><glyph d="M623 -410q-43 0 -66 50l-272 608q-55 127 -140 158l-43 16v92q145 -10 289 -4l305 -651l625 1781h266v-92l-55 -16q-86 -23 -137 -162l-670 -1780h-102z" glyph-name="radical" horiz-adv-x="1587" unicode="√"/><glyph d="M801 328q-33 -96 -117 -152.5t-211 -56.5q-143 0 -246.5 111.5t-103.5 275.5q0 166 107.5 279.5t256.5 113.5q102 0 188.5 -52t119.5 -147q68 170 288 170q133 0 221.5 -103t88.5 -261q0 -166 -88 -270.5t-228 -104.5q-96 0 -177 52.5t-99 144.5zM473 285q106 0 170 36.5 t80 133.5l22 135q10 57 -77.5 103t-182.5 46q-113 0 -188.5 -59t-75.5 -174q0 -109 75 -165t177 -56zM850 559l-19 -117q-12 -70 68 -116.5t174 -46.5q227 0 227 227q0 92 -69.5 150.5t-161.5 58.5q-80 0 -143.5 -41t-75.5 -115z" glyph-name="infinity" horiz-adv-x="1515" unicode="∞"/><glyph d="M942 1487q16 -31 5 -71t-46 -54q-37 -14 -64.5 -2t-39.5 43l-8.5 25.5l-9.5 28.5t-11 25.5t-18.5 25t-26.5 14.5t-37 6q-53 0 -74.5 -42t-21.5 -128v-1450q0 -348 -275 -348q-184 0 -266 151q-18 33 -8 70t45 53q35 14 64.5 3t42.5 -42q4 -8 11 -31.5t13 -36t17.5 -27.5 t29 -22.5t41.5 -7.5q98 0 98 170v1450q0 348 273 348q198 1 266 -151z" glyph-name="integral" horiz-adv-x="989" unicode="∫"/><glyph d="M1028 795q-23 -104 -102.5 -169t-167.5 -65q-59 0 -116.5 22.5t-95.5 48t-81 48t-76 22.5q-43 0 -78 -50t-73 -50h-95q31 100 106 162.5t175 62.5q92 0 194.5 -60t161.5 -60q39 0 84 44t70 44h94zM1028 446q-23 -104 -102.5 -168.5t-167.5 -64.5q-59 0 -116.5 22.5 t-95.5 48t-81 48t-76 22.5q-43 0 -78 -50t-73 -50h-95q31 100 106 162.5t175 62.5q92 0 194.5 -60.5t161.5 -60.5q39 0 84 44t70 44h94z" glyph-name="approxequal" horiz-adv-x="1171" unicode="≈"/><glyph d="M901 629h-254l-94 -228h348v-141h-407l-109 -260h-149l108 260h-201v141h258l97 228h-355v141h414l102 246h150l-102 -246h194v-141z" glyph-name="notequal" horiz-adv-x="1044" unicode="≠"/><glyph d="M143 752q406 156 764 350v-162q-297 -158 -610 -258q330 -109 610 -260v-162q-358 195 -764 350v142zM907 133v-141h-757v141h757z" glyph-name="lessequal" horiz-adv-x="1050" unicode="≤"/><glyph d="M907 752v-142q-406 -156 -764 -350v162q281 152 611 260q-313 100 -611 258v162q358 -194 764 -350zM143 133h758v-141h-758v141z" glyph-name="greaterequal" horiz-adv-x="1050" unicode="≥"/><glyph d="M772 635l-266 -635h-168l-266 635l266 637h168zM616 635l-194 506l-195 -506l195 -506z" glyph-name="lozenge" horiz-adv-x="843" unicode="◊"/><glyph d="M254 1130q-57 0 -96 40t-39 95.5t39 94.5t96 39q53 0 93 -39t40 -94.5t-40 -95.5t-93 -40zM383 141q0 -57 88 -57v-84h-391v84q90 0 90 57v611q0 35 -13.5 49t-43.5 14h-41v94l245 19q66 6 66 -64v-723z" glyph-name="i.aalt" horiz-adv-x="542"/><glyph d="M1417 940q168 0 277.5 -126t109.5 -345t-121.5 -350t-277.5 -131q-119 0 -201 60.5t-108 129.5l-68 -147q-25 -49 -79 -43t-54 47v1012q-8 82 -102.5 150.5t-202.5 68.5q-195 0 -195 -271v-59h297q-27 -82 -43 -103.5t-49 -21.5h-205v-672q0 -35 19.5 -46t87.5 -11v-82 h-434v82q68 0 91 11t23 46v672h-96q-20 0 -20 20v105h116v35q0 178 100.5 286.5t307.5 108.5q172 0 332 -41l139 21q49 6 49 -39v-320q0 -129 -33 -254l33 45q121 162 307 162zM1368 109q98 0 153.5 82.5t55.5 250.5q0 158 -57.5 254.5t-169.5 96.5q-141 0 -238 -121v-369 q31 -84 98.5 -139t157.5 -55z" glyph-name="f_b.dlig" horiz-adv-x="1875"/><glyph d="M1753 205q0 -57 26.5 -81t98.5 -7l-27 -97q-55 -20 -143 -20q-80 0 -124 42t-44 105v412q0 123 -30.5 182.5t-118.5 59.5q-133 0 -283 -174v-486q0 -35 23.5 -46t78.5 -11v-84h-411v84q51 0 73.5 11t22.5 46v906q-8 84 -100.5 151.5t-204.5 67.5q-195 0 -195 -271v-59 h279q-29 -84 -44.5 -104.5t-47.5 -20.5h-187v-672q0 -35 19.5 -46t87.5 -11v-82h-424v82q66 0 85 11t19 46v672h-96q-20 0 -20 20v105h116v35q0 178 100.5 286.5t307.5 108.5q176 0 334 -41l123 16q45 6 54 -22.5t3 -95.5q0 -2 2 -6v-3l-2 -2q0 -4 -1 -11t-1 -11v-399 l-10 -74q131 227 344 227q154 0 234.5 -79t82.5 -279v-381z" glyph-name="f_h.dlig" horiz-adv-x="1918"/><glyph d="M395 936h246q-27 -82 -43 -103.5t-47 -21.5h-156v-672q0 -35 19.5 -46t87.5 -11v-82h-424v82q66 0 85 11t19 46v672h-96q-20 0 -20 20v105h116v35q0 184 110.5 289.5t340.5 105.5q199 0 331 -71.5t132 -172.5q0 -45 -32 -73.5t-85 -28.5q-49 0 -84 27.5t-35 74.5 q0 143 -227 144q-74 0 -123 -22.5t-72.5 -64.5t-33 -85t-9.5 -99v-59zM1069 928q66 6 66 -64v-1016q0 -188 -168 -258q-111 -43 -205 -17t-131 103q-23 41 -13.5 89.5t50.5 68.5q49 20 83.5 8t51.5 -47q8 -16 20.5 -59t22.5 -63.5t26 -14.5q49 20 50 102v992q0 35 -13.5 49 t-44.5 14h-41v94z" glyph-name="f_j.dlig" horiz-adv-x="1255"/><glyph d="M1696 133q33 -33 52 -42t62 -9v-82h-403v82q72 0 66 27q-2 6 -9 12l-356 336v-318q0 -57 66 -57v-82h-355v82q74 0 74 57v895q0 86 -97.5 159t-207.5 73q-61 0 -103.5 -23.5t-60.5 -66.5t-24.5 -84t-6.5 -97v-59h287q-29 -84 -44 -104.5t-48 -20.5h-195v-672 q0 -35 19.5 -46t87.5 -11v-82h-406v82q53 0 69.5 11t16.5 46v672h-98q-20 0 -21 20v105h119v35q0 178 100.5 286.5t307.5 108.5q172 0 330 -41l141 21q49 6 49 -39v-777l297 252q35 27 4 45q-18 10 -61 11v86q184 -16 372 0v-86q-96 0 -143 -41l-295 -254z" glyph-name="f_k.dlig" horiz-adv-x="1841"/><glyph d="M555 942q186 0 332.5 -128t146.5 -343q0 -223 -146.5 -355t-332.5 -132t-334.5 128t-148.5 343q0 223 147.5 355t335.5 132zM815 430q0 158 -83 272.5t-187 114.5q-252 0 -252 -321q0 -162 82 -274.5t190 -112.5q115 0 182.5 77.5t67.5 243.5z" glyph-name="zero.oldstyle" horiz-adv-x="1105"/><glyph d="M471 168q0 -16 13.5 -28.5t49 -20.5t49 -11.5t58.5 -9.5v-98h-553v98q41 6 58.5 9.5t49 11.5t46 20.5t14.5 28.5v483q0 37 -15.5 54.5t-43.5 9.5l-105 -29v119l303 135q35 14 55.5 3t20.5 -36v-739z" glyph-name="one.oldstyle" horiz-adv-x="712"/><glyph d="M1042 293l-55 -246q-4 -18 -7 -26.5t-19.5 -14.5t-49.5 -6h-819l248 207q25 20 71 58t67.5 56.5t58 50t54 50t43 45.5t38 45t26 40.5t18.5 44t5 42.5q0 88 -49 136t-133 48q-154 0 -172 -145q-4 -33 -4.5 -61.5t-4.5 -49.5q-37 -49 -92 -53t-97 30t-42 85 q0 119 112.5 216t297.5 97q199 0 304 -89t105 -224q0 -55 -29.5 -111.5t-71.5 -99.5t-106.5 -91t-111.5 -78t-109 -67q-25 -14 -35 -20l283 8q68 2 102.5 15.5t61.5 52.5l41 55h71z" glyph-name="two.oldstyle" horiz-adv-x="1134"/><glyph d="M1077 84q0 -211 -162.5 -352.5t-394.5 -141.5q-301 0 -397 203q-14 66 50.5 99.5t125.5 -23.5q37 -84 88 -125t158 -41q121 0 209 94t88 248q0 115 -60.5 175.5t-134.5 60.5q-35 0 -78 -15l-90 -33l-35 95l95 37q113 43 169 104t56 164q0 90 -52.5 143t-146.5 53 q-59 0 -103 -24.5t-69.5 -70.5t-39 -84t-25.5 -95q-41 -31 -86 -28t-81 32t-36 64q0 121 120 220t302 99q211 0 322.5 -89t111.5 -214q0 -100 -65.5 -170t-145.5 -88q92 10 198.5 -73t108.5 -224z" glyph-name="three.oldstyle" horiz-adv-x="1181"/><glyph d="M1077 0h-180v-209q0 -16 11.5 -28.5t37 -19.5t45 -11t58.5 -8v-101h-527v101q51 6 77 11t49.5 19.5t23.5 36.5v209h-574v104l645 783q37 45 95.5 27.5t58.5 -74.5v-721h180v-119zM260 119h412v491z" glyph-name="four.oldstyle" horiz-adv-x="1179"/><glyph d="M1124 88q0 -211 -176 -354.5t-393 -143.5q-330 0 -428 226q-23 66 43 106.5t129 -8.5q53 -209 264 -209q129 0 224.5 97.5t95.5 254.5q0 150 -79 242t-214 92q-195 0 -316 -108h-100l80 641h657l35 26l45 2l-20 -196l-35 -31h-588l-43 -328q119 129 344 129 q88 0 170 -25.5t151.5 -76.5t111.5 -138t42 -198z" glyph-name="five.oldstyle" horiz-adv-x="1236"/><glyph d="M868 1151q-10 -18 -37 -6q-96 39 -196 39q-90 0 -152.5 -40t-96.5 -117t-50.5 -156.5t-24.5 -190.5q35 43 116 87t181 44q182 0 312.5 -112.5t130.5 -297.5q0 -172 -132.5 -299t-338.5 -127q-170 0 -286 87.5t-165 221.5t-47 306q2 184 60.5 343t184.5 264.5t298 105.5 q164 0 266 -76q18 -14 4 -37zM315 551q-10 -207 62 -331t203 -124q135 0 192 88t57 224q0 125 -63.5 203.5t-167.5 78.5q-109 0 -195 -52t-88 -87z" glyph-name="six.oldstyle" horiz-adv-x="1132"/><glyph d="M848 719h-612l-43 -92h-80l57 250q10 47 57 47h842l-620 -1297h-62q-27 0 -42 21.5t-3 48.5z" glyph-name="seven.oldstyle" horiz-adv-x="1150"/><glyph d="M778 713q145 -37 232.5 -129t87.5 -238q0 -152 -147.5 -263.5t-364.5 -111.5q-227 0 -365.5 112t-138.5 277q0 117 78 208t211 139q-219 84 -219 268q0 131 120.5 221t315.5 90q182 0 299 -89t117 -226q0 -84 -65 -157.5t-161 -100.5zM547 776l104 -24q76 -16 132.5 62.5 t56.5 160.5q0 33 -9.5 63.5t-35 65.5t-79.5 55.5t-132 20.5q-209 0 -209 -205q0 -158 172 -199zM858 352q0 98 -54 157.5t-196 92.5l-157 37q-68 14 -126.5 -72t-58.5 -192q0 -123 79 -202t239 -79q274 0 274 258z" glyph-name="eight.oldstyle" horiz-adv-x="1179"/><glyph d="M324 -295q250 27 372.5 171t139.5 364q-35 -49 -117 -95.5t-182 -46.5q-184 0 -313.5 113t-129.5 297q0 180 132 309t339 129q127 0 225.5 -50t157 -135t87 -189.5t28.5 -221.5q-2 -311 -194.5 -526t-534.5 -234q-25 -2 -37 26t-4 57.5t31 31.5zM831 367 q8 201 -64.5 328.5t-201.5 127.5q-135 0 -192.5 -93t-57.5 -228q0 -123 63.5 -202t168.5 -79q109 0 195.5 55.5t88.5 90.5z" glyph-name="nine.oldstyle" horiz-adv-x="1155"/><glyph d="M1153 641q0 -176 -60.5 -324.5t-184.5 -245t-291.5 -96.5t-291.5 96.5t-183.5 245t-59.5 324.5q0 272 143.5 467t390.5 195q168 0 293 -95.5t184.5 -244t59.5 -322.5zM616.5 96q155.5 0 223 140.5t67.5 404.5q0 543 -290.5 543t-290.5 -543q0 -264 67.5 -404.5 t223 -140.5z" glyph-name="zero.tnum" horiz-adv-x="1228"/><glyph d="M723 174q0 -51 207 -70v-104h-629v104q104 10 155.5 23.5t51.5 46.5v817q0 37 -15.5 54.5t-43.5 9.5l-105 -29v119l303 135q35 14 55.5 3t20.5 -36v-1073z" glyph-name="one.tnum" horiz-adv-x="1228"/><glyph d="M1120 283l-47 -236q-10 -47 -61 -47h-924q23 125 74 231.5t124.5 186.5t136 131t144.5 106q20 12 68.5 42t66 42.5t49 39t43 47t22.5 51t11 67.5q0 115 -66.5 178.5t-166.5 63.5q-209 0 -242 -150q-16 -70 -1.5 -132t11.5 -77q-37 -84 -129 -84q-53 0 -87.5 33t-34.5 76 q0 211 125.5 332t357.5 121q219 0 343 -98.5t124 -272.5q0 -53 -11.5 -99.5t-39 -85t-51 -67.5t-69.5 -61.5t-71.5 -49t-81 -48t-73.5 -44.5q-31 -18 -99.5 -59t-90 -56.5t-61.5 -46t-61.5 -62.5t-42.5 -73l539 -4q70 0 102.5 10.5t59.5 49.5l32 45h78z" glyph-name="two.tnum" horiz-adv-x="1228"/><glyph d="M788 760q106 8 211 -82t105 -256q0 -182 -160 -314.5t-364 -132.5q-233 0 -366.5 97.5t-143.5 259.5q-10 127 104 127q51 0 76.5 -17.5t31 -40t12.5 -67.5t19 -78q59 -164 273 -164q123 0 203.5 79t80.5 212q0 125 -63.5 191.5t-157.5 66.5q-41 0 -78 -12l-82 -29 l-38 100l88 35q121 49 179 108.5t58 149.5t-52 144.5t-157 54.5q-98 0 -147 -44t-58 -108q-4 -33 -4 -61.5t-4 -48.5q-35 -39 -86 -42t-90 26.5t-39 76.5q0 119 116 216.5t312 97.5q195 0 311.5 -93.5t116.5 -205.5q0 -94 -62.5 -160t-144.5 -86z" glyph-name="three.tnum" horiz-adv-x="1228"/><glyph d="M1081 401h-176v-233q0 -16 10.5 -28.5t36 -19.5t37.5 -10.5t47 -9.5v-100h-485v100q113 18 129 47q6 8 6 21v233h-580v103l646 790q37 45 95 28t58 -75v-729h176v-117zM266 518h420v504z" glyph-name="four.tnum" horiz-adv-x="1228"/><glyph d="M1077 418q0 -195 -151.5 -320t-372.5 -125q-225 0 -357.5 97.5t-144.5 261.5q-8 123 107 123q41 0 65.5 -9.5t33.5 -30t12 -42t9.5 -57t16.5 -64.5q61 -162 258 -162q121 0 201 74t80 217q0 160 -91.5 258t-228.5 98q-174 0 -289 -98h-100l49 631h705l34 26l52 2 l-21 -196l-35 -31h-635l-24 -301q145 106 336 107q63 0 129.5 -16.5t132 -53.5t116 -88t82 -130t31.5 -171z" glyph-name="five.tnum" horiz-adv-x="1228"/><glyph d="M907 1151q-10 -18 -37 -6q-96 39 -196 39q-90 0 -152.5 -40t-96.5 -117t-50.5 -156.5t-24.5 -190.5q35 43 116 87t181 44q182 0 312.5 -112.5t130.5 -297.5q0 -172 -132.5 -299t-341.5 -127q-170 0 -284.5 87.5t-163.5 221.5t-47 306q2 184 60.5 343t184.5 264.5 t298 105.5q164 0 266 -76q18 -14 4 -37zM354 551q-10 -207 60.5 -331t201.5 -124q135 0 193.5 88t58.5 224q0 125 -64.5 203.5t-168.5 78.5q-109 0 -194 -52t-87 -87z" glyph-name="six.tnum" horiz-adv-x="1228"/><glyph d="M840 1067h-629l-43 -92h-80l57 250q10 47 58 47h860l-645 -1282h-66q-29 0 -44 21.5t-1 47.5z" glyph-name="seven.tnum" horiz-adv-x="1228"/><glyph d="M778 713q145 -37 232.5 -129t87.5 -238q0 -152 -147.5 -263.5t-364.5 -111.5q-227 0 -365.5 112t-138.5 277q0 117 78 208t211 139q-100 39 -158.5 107.5t-58.5 160.5q0 133 119.5 222t314.5 89q182 0 300 -90t118 -225q0 -84 -66 -157.5t-162 -100.5zM547 776l104 -24 q76 -16 132.5 62.5t56.5 160.5q0 33 -9.5 63.5t-35 65.5t-79.5 55.5t-132 20.5q-209 0 -209 -205q0 -158 172 -199zM858 352q0 98 -54 157.5t-196 92.5l-157 37q-68 14 -126.5 -72t-58.5 -192q0 -123 79 -202t239 -79q274 0 274 258z" glyph-name="eight.tnum" horiz-adv-x="1228"/><glyph d="M313 127q10 18 37 6q94 -39 197 -39q90 0 152.5 40t96 117t50 156.5t24.5 190.5q-35 -43 -115.5 -87t-181.5 -44q-184 0 -313 112.5t-129 297.5q0 172 132 299t339 127q250 0 375 -174.5t123 -440.5q-2 -184 -60.5 -343t-184.5 -264.5t-298 -105.5q-166 0 -268 76 q-18 14 -4 37zM866 729q10 207 -61.5 330t-202.5 123q-135 0 -192.5 -88t-57.5 -224q0 -125 63.5 -202.5t168.5 -77.5q109 0 194.5 52t87.5 87z" glyph-name="nine.tnum" horiz-adv-x="1228"/><glyph d="M502 238q0 -106 -58.5 -183.5t-156.5 -77.5q-100 0 -157.5 77t-57.5 184q0 104 58 183t156.5 79t157 -79t58.5 -183zM287 66q96 0 96 172q0 174 -96 174q-98 0 -99 -174q1 -172 99 -172z" glyph-name="zero.dnom" horiz-adv-x="573"/><glyph d="M264 82q0 -33 60 -37v-57h-238v57q59 4 59 37v313l-63 -20v69l115 52q27 12 48 -0.5t19 -30.5v-383z" glyph-name="one.dnom" horiz-adv-x="395"/><glyph d="M530 121l-20 -105q-6 -29 -43 -28h-375q31 152 201 256q94 57 94 114q0 35 -21.5 58.5t-54.5 23.5q-63 0 -78 -49q-4 -20 1.5 -43.5t3.5 -34.5q-14 -31 -46 -35t-57.5 13.5t-25.5 40.5q0 76 52 126t150 50q92 0 141.5 -42t49.5 -114q0 -16 -3 -30.5t-10.5 -26.5 t-12.5 -22.5t-17.5 -21.5t-18.5 -17.5t-23.5 -17.5t-22.5 -14t-24.5 -14.5t-21.5 -13.5q-41 -23 -56.5 -33t-32.5 -27.5t-23 -35.5h176q33 0 43 16l18 27h57z" glyph-name="two.dnom" horiz-adv-x="622"/><glyph d="M457 295q94 -35 94 -135q0 -78 -62.5 -130.5t-154.5 -52.5q-96 0 -153.5 48.5t-57.5 113.5q0 51 53 51q31 0 43 -11t16.5 -40.5t6.5 -36.5q20 -61 90 -61q41 0 68.5 30.5t27.5 73.5q0 66 -44 79.5t-95 -15.5l-27 57l49 23q76 27 76 90t-65 63q-45 0 -61.5 -40t-4.5 -80 l-90 12q-25 10 -25 28q-2 63 48.5 104.5t138.5 41.5q86 0 135 -40t49 -85q0 -59 -55 -88z" glyph-name="three.dnom" horiz-adv-x="653"/><glyph d="M510 137h-70v-65q0 -37 52 -37v-47h-226v47q49 0 49 37v65h-202v70l245 295q18 23 50 14.5t32 -33.5v-272h70v-74zM209 211h106v127z" glyph-name="four.dnom" horiz-adv-x="612"/><glyph d="M553 166q0 -86 -60.5 -137.5t-156.5 -51.5q-98 0 -153.5 42t-59.5 118q-2 23 14.5 39.5t44.5 16.5q25 0 39.5 -10.5t18.5 -20.5t7 -31.5t5 -28.5q20 -63 84 -63q35 0 60.5 30.5t25.5 82t-30 86t-73 34.5q-16 0 -32.5 -4t-25.5 -7t-24.5 -11t-19.5 -10h-65l20 256h272 l15 10h49l-6 -86l-25 -21h-231l-6 -82q47 29 116 29q72 0 134.5 -49t62.5 -131z" glyph-name="five.dnom" horiz-adv-x="665"/><glyph d="M432 428q-14 -12 -25.5 -9t-38 13t-44.5 10q-84 0 -99 -145q41 23 97 22q74 0 126 -47t52 -120q0 -68 -54.5 -121.5t-144.5 -53.5q-109 0 -159 71t-50 177q0 109 59.5 196t167.5 87q68 0 115 -33q16 -12 -2 -47zM301 45q76 0 76 111q0 45 -19.5 70.5t-50.5 25.5 q-35 0 -60.5 -13.5t-25.5 -23.5q-2 -84 20.5 -127t59.5 -43z" glyph-name="six.dnom" horiz-adv-x="589"/><glyph d="M397 399h-200l-13 -34h-71l24 102q6 29 43 29h355l-256 -512h-39q-25 0 -37.5 17t0.5 40z" glyph-name="seven.dnom" horiz-adv-x="616"/><glyph d="M428 272q45 -16 73.5 -54t28.5 -87q0 -61 -60 -107.5t-155 -46.5q-96 0 -152.5 46.5t-56.5 117.5q0 41 27 77t70 50q-68 35 -68 103q0 51 48 90t132 39q78 0 129.5 -38t51.5 -89q0 -66 -68 -101zM305 309l43 -10q16 -2 31.5 22.5t15.5 49.5q0 68 -78 67q-33 0 -49 -20.5 t-16 -44.5q0 -54 53 -64zM401 133q0 63 -79 82l-58 12q-16 4 -32.5 -24.5t-16.5 -63.5q0 -41 25.5 -69.5t74.5 -28.5q86 0 86 92z" glyph-name="eight.dnom" horiz-adv-x="636"/><glyph d="M162 57q14 12 24.5 9t37 -13t44.5 -10q86 0 101 145q-41 -23 -97 -22q-74 0 -126 47t-52 121q0 68 53.5 121t143.5 53q109 0 159 -70.5t50 -177.5q0 -109 -59.5 -196t-168.5 -87q-66 0 -112 33q-16 12 2 47zM291 440q-74 0 -74 -110q0 -45 18.5 -71t49.5 -26 q35 0 61.5 13.5t26.5 23.5q6 170 -82 170z" glyph-name="nine.dnom" horiz-adv-x="591"/><glyph d="M502 1055q0 -106 -58.5 -183t-156.5 -77q-100 0 -157.5 76.5t-57.5 183.5q0 104 58 183t156.5 79t157 -79t58.5 -183zM287 883q96 0 96 172q0 174 -96 174q-98 0 -99 -174q1 -172 99 -172z" glyph-name="zero.numr" horiz-adv-x="573"/><glyph d="M264 897q0 -33 60 -37v-57h-238v57q59 4 59 37v313l-63 -20v70l115 51q27 12 48 -0.5t19 -30.5v-383z" glyph-name="one.numr" horiz-adv-x="395"/><glyph d="M530 926l-20 -105q-6 -29 -43 -28h-375q31 152 201 256q94 57 94 114q0 35 -21.5 58.5t-54.5 23.5q-63 0 -78 -49q-4 -20 1.5 -44t3.5 -34q-14 -31 -46 -35t-57.5 13.5t-25.5 40.5q0 76 52 126t150 50q92 0 141.5 -42t49.5 -114q0 -16 -3 -30.5t-10.5 -27t-12.5 -22.5 t-17.5 -21.5t-18.5 -17.5t-23.5 -17t-22.5 -14t-24.5 -14.5t-21.5 -13.5q-41 -23 -56.5 -33t-32.5 -27.5t-23 -35.5h176q33 0 43 16l18 27h57z" glyph-name="two.numr" horiz-adv-x="622"/><glyph d="M457 1102q94 -35 94 -135q0 -78 -62.5 -130.5t-154.5 -52.5q-96 0 -153.5 48.5t-57.5 113.5q0 51 53 51q31 0 43 -11t16.5 -41t6.5 -36q20 -61 90 -61q41 0 68.5 30.5t27.5 73.5q0 66 -44 79t-95 -15l-27 57l49 23q76 27 76 90t-65 63q-45 0 -61.5 -40t-4.5 -81l-90 13 q-25 10 -25 28q-2 63 48.5 104.5t138.5 41.5q86 0 135 -40t49 -85q0 -59 -55 -88z" glyph-name="three.numr" horiz-adv-x="653"/><glyph d="M510 938h-70v-66q0 -37 52 -36v-48h-226v48q49 0 49 36v66h-202v70l245 295q18 23 50 14.5t32 -33.5v-272h70v-74zM209 1012h106v127z" glyph-name="four.numr" horiz-adv-x="612"/><glyph d="M553 985q0 -86 -60.5 -137t-156.5 -51q-98 0 -153.5 42t-59.5 117q-2 23 14.5 39.5t44.5 16.5q25 0 39.5 -10.5t18.5 -20.5t7 -31.5t5 -27.5q20 -63 84 -64q35 0 60.5 31t25.5 82t-30 86t-73 35q-16 0 -32.5 -4.5t-25.5 -7.5t-24.5 -11t-19.5 -10h-65l20 256h272l15 10 h49l-6 -86l-25 -20h-231l-6 -82q47 29 116 28q72 0 134.5 -49t62.5 -131z" glyph-name="five.numr" horiz-adv-x="665"/><glyph d="M432 1233q-14 -12 -25.5 -9t-38 13t-44.5 10q-84 0 -99 -145q41 23 97 22q74 0 126 -47t52 -121q0 -68 -54.5 -121t-144.5 -53q-109 0 -159 71t-50 177q0 109 59.5 196t167.5 87q68 0 115 -33q16 -12 -2 -47zM301 850q76 0 76 111q0 45 -19.5 70.5t-50.5 25.5 q-35 0 -60.5 -13.5t-25.5 -23.5q-2 -84 20.5 -127t59.5 -43z" glyph-name="six.numr" horiz-adv-x="589"/><glyph d="M397 1214h-200l-13 -34h-71l24 102q6 29 43 29h355l-256 -512h-39q-25 0 -37.5 17.5t0.5 39.5z" glyph-name="seven.numr" horiz-adv-x="614"/><glyph d="M428 1087q45 -16 73.5 -54t28.5 -87q0 -61 -60 -107t-155 -46q-96 0 -152.5 46t-56.5 117q0 41 27 77t70 50q-68 35 -68 103q0 51 48 90t132 39q78 0 129.5 -38t51.5 -89q0 -66 -68 -101zM305 1124l43 -10q16 -2 31.5 22.5t15.5 49.5q0 68 -78 67q-33 0 -49 -20.5 t-16 -44.5q0 -54 53 -64zM401 948q0 63 -79 82l-58 12q-16 4 -32.5 -24.5t-16.5 -63.5q0 -41 25.5 -69.5t74.5 -28.5q86 0 86 92z" glyph-name="eight.numr" horiz-adv-x="636"/><glyph d="M162 864q14 12 24.5 9t37 -13t44.5 -10q86 0 101 145q-41 -23 -97 -22q-74 0 -126 47t-52 121q0 68 53.5 121t143.5 53q109 0 159 -70.5t50 -177.5q0 -109 -59.5 -196t-168.5 -87q-66 0 -112 33q-16 12 2 47zM291 1247q-74 0 -74 -110q0 -45 18.5 -71t49.5 -26 q35 0 61.5 13.5t26.5 23.5q6 170 -82 170z" glyph-name="nine.numr" horiz-adv-x="591"/></font>
</defs>
</svg>
