<?xml version="1.0" encoding="UTF-8" standalone="no"?>
<svg width="75px" height="33px" viewBox="0 0 75 33" version="1.1" xmlns="http://www.w3.org/2000/svg" xmlns:xlink="http://www.w3.org/1999/xlink">
    <!-- Generator: Sketch 3.8.1 (29687) - http://www.bohemiancoding.com/sketch -->
    <title>Kareo_Logo_4C_CMYK (1)</title>
    <desc>Created with Sketch.</desc>
    <defs></defs>
    <g id="Page-1" stroke="none" stroke-width="1" fill="none" fill-rule="evenodd">
        <g id="Kareo_Logo_4C_CMYK-(1)">
            <path d="M73.981,17.23 L73.94,16.576 C73.937,16.495 73.937,16.386 73.934,16.27 L73.92,16.27 C73.893,16.369 73.856,16.498 73.829,16.601 L73.63,17.214 L73.4,17.214 L73.201,16.584 C73.182,16.498 73.151,16.369 73.127,16.27 L73.114,16.27 C73.114,16.372 73.107,16.477 73.105,16.576 L73.064,17.23 L72.854,17.23 L72.934,16.124 L73.263,16.124 L73.452,16.663 C73.48,16.749 73.5,16.829 73.525,16.942 L73.532,16.942 C73.56,16.846 73.583,16.749 73.609,16.673 L73.798,16.124 L74.112,16.124 L74.2,17.23 L73.981,17.23 L73.981,17.23 Z M72.79,16.124 L72.79,16.306 L72.436,16.306 L72.436,17.23 L72.218,17.23 L72.218,16.306 L71.866,16.306 L71.866,16.124 L72.79,16.124 L72.79,16.124 Z" id="Fill-1" fill="#EB8B2D"></path>
            <path d="M9.355,11.587 C10.481,12.125 12.024,11.244 12.803,9.617 C13.581,7.99 13.3,6.236 12.175,5.697 C11.049,5.158 9.506,6.04 8.727,7.666 C7.949,9.293 8.229,11.047 9.355,11.587" id="Fill-2" fill="#EB8B2D"></path>
            <path d="M17.122,17.742 C17.122,21.749 22.105,28.445 22.653,29.505 C22.818,29.822 22.969,30.282 22.973,30.63 C22.99,31.865 22.067,32.459 21,32.459 C20.435,32.459 19.978,32.271 19.399,31.608 C18.866,30.999 15.855,26.953 14.993,25.779 C12.793,22.785 9.264,19.828 7.363,25.742 C6.319,28.992 6.479,32.458 4.272,32.458 C0.676,32.458 -1.127,15.948 2.753,4.325 C3.382,2.458 4.474,0.42 5.915,0.859 C7.975,1.484 6.829,4.401 6.54,5.693 C6.287,6.831 4.586,12.858 8.086,14.403 C11.468,15.897 17.807,8.892 18.694,8.13 C19.384,7.536 20.207,7.418 20.756,7.961 C21.354,8.553 21.298,9.371 20.685,10.124 C20.133,10.802 17.122,14.197 17.122,17.742" id="Fill-3" fill="#EB8B2D"></path>
            <path d="M2.436,5.327 C2.436,5.326 2.436,5.325 2.437,5.323 C2.538,4.988 2.642,4.654 2.752,4.325 C3.323,2.632 4.274,0.799 5.52,0.799 C4.274,0.799 3.323,2.633 2.753,4.325 C2.643,4.655 2.537,4.99 2.436,5.327" id="Fill-4"></path>
            <path d="M8.762,14.644 C8.565,14.644 8.367,14.633 8.167,14.612 C4.486,14.215 1.893,10.264 2.375,5.79 C2.391,5.634 2.412,5.48 2.436,5.327 C2.537,4.99 2.643,4.655 2.753,4.325 C3.323,2.633 4.274,0.799 5.52,0.799 C5.648,0.799 5.78,0.818 5.914,0.859 C7.975,1.484 6.828,4.401 6.539,5.693 C6.286,6.831 4.585,12.858 8.086,14.403 C8.41,14.546 8.762,14.611 9.133,14.611 C9.328,14.611 9.528,14.593 9.733,14.56 C9.414,14.615 9.09,14.644 8.762,14.644" id="Fill-6"></path>
            <path d="M20.999,32.459 C20.434,32.459 19.977,32.271 19.398,31.608 C18.865,30.999 15.854,26.953 14.992,25.779 C13.82,24.183 12.27,22.599 10.791,22.361 C12.27,22.599 13.821,24.184 14.993,25.779 C15.855,26.953 18.866,30.999 19.399,31.608 C19.978,32.27 20.435,32.459 20.999,32.459 M19.6,24.585 C19.562,24.517 19.524,24.449 19.486,24.381 C19.524,24.449 19.562,24.517 19.6,24.585" id="Fill-8"></path>
            <path d="M20.999,32.459 C20.435,32.459 19.978,32.27 19.399,31.608 C18.866,30.999 15.855,26.953 14.993,25.779 C13.821,24.184 12.27,22.599 10.791,22.361 C10.665,22.341 10.54,22.33 10.416,22.33 C9.89,22.33 9.377,22.519 8.9,22.957 C9.075,22.775 9.214,22.669 9.214,22.669 C10.282,21.859 11.531,21.481 12.849,21.481 C15.043,21.481 17.428,22.53 19.486,24.381 C19.524,24.449 19.562,24.517 19.6,24.585 C20.938,26.957 22.373,28.964 22.652,29.505 C22.817,29.822 22.968,30.282 22.973,30.63 C22.989,31.865 22.066,32.459 20.999,32.459" id="Fill-10"></path>
            <path d="M67.32,24.432 C65.624,24.432 64.241,23.04 64.241,21.33 C64.241,19.619 65.624,18.229 67.32,18.229 C69.018,18.229 70.401,19.619 70.401,21.33 C70.401,23.04 69.018,24.432 67.32,24.432 L67.32,24.432 Z M67.32,16.049 C64.431,16.049 62.078,18.42 62.078,21.33 C62.078,24.244 64.431,26.613 67.32,26.613 C70.213,26.613 72.564,24.244 72.564,21.33 C72.564,18.42 70.213,16.049 67.32,16.049 L67.32,16.049 Z" id="Fill-12" fill="#EB8B2D"></path>
            <path d="M53.656,19.847 C54.179,18.882 55.194,18.229 56.358,18.229 C57.457,18.229 58.324,18.82 58.79,19.847 L53.656,19.847 L53.656,19.847 Z M61.18,20.232 C60.645,17.69 58.753,16.049 56.358,16.049 C53.468,16.049 51.115,18.42 51.115,21.331 C51.115,24.244 53.468,26.614 56.358,26.614 C57.83,26.614 59.307,26.026 60.263,25.025 C60.675,24.591 60.696,23.868 60.265,23.452 C59.831,23.034 59.174,23.076 58.733,23.482 C58.12,24.042 57.249,24.433 56.358,24.433 C54.899,24.433 53.675,23.403 53.358,22.026 L60.163,22.026 C60.764,22.026 61.246,21.538 61.246,20.937 C61.246,20.818 61.206,20.357 61.18,20.232 L61.18,20.232 Z" id="Fill-13" fill="#EB8B2D"></path>
            <path d="M50.849,16.118 C49.691,16.106 48.644,16.469 47.793,17.087 C47.739,16.544 47.283,16.117 46.729,16.117 C46.134,16.117 45.657,16.599 45.657,17.196 L45.657,25.469 C45.657,26.064 46.134,26.547 46.729,26.547 C47.316,26.547 47.798,26.064 47.798,25.469 L47.798,21.33 C47.802,19.232 48.979,18.389 50.806,18.209 C51.377,18.153 51.917,17.667 51.917,17.131 C51.917,16.511 51.437,16.123 50.849,16.118" id="Fill-14" fill="#EB8B2D"></path>
            <path d="M33.544,24.769 L29.986,20.644 L33.109,18.012 C33.566,17.629 33.629,16.952 33.248,16.498 C32.869,16.045 32.19,15.988 31.734,16.369 L27.51,19.93 L27.51,15.084 C27.51,14.487 27.028,14.004 26.437,14.004 C25.845,14.004 25.367,14.487 25.367,15.084 L25.367,25.47 C25.367,26.065 25.845,26.547 26.437,26.547 C27.028,26.547 27.51,26.065 27.51,25.47 L27.51,22.732 L28.347,22.024 L31.925,26.173 C32.314,26.622 32.992,26.674 33.439,26.285 C33.886,25.9 33.935,25.22 33.544,24.769" id="Fill-15" fill="#EB8B2D"></path>
            <path d="M38.95,24.441 C37.231,24.441 35.839,23.047 35.839,21.327 C35.839,19.607 37.231,18.215 38.95,18.215 C40.667,18.215 42.063,19.607 42.063,21.327 C42.063,23.047 40.667,24.441 38.95,24.441 L38.95,24.441 Z M43.05,16.117 C42.515,16.117 42.072,16.516 41.994,17.037 C41.136,16.417 40.087,16.049 38.952,16.049 C36.062,16.049 33.71,18.42 33.71,21.331 C33.71,24.244 35.559,26.613 38.952,26.613 C40.396,26.613 41.665,25.647 41.961,24.868 L41.979,24.803 L41.979,25.478 C41.979,26.073 42.46,26.555 43.05,26.555 C43.643,26.555 44.121,26.073 44.121,25.478 L44.121,17.196 C44.121,16.599 43.643,16.117 43.05,16.117 L43.05,16.117 Z" id="Fill-16" fill="#EB8B2D"></path>
        </g>
    </g>
</svg>