<?xml version="1.0" encoding="UTF-8" standalone="no"?>
<svg width="486px" height="70px" viewBox="0 0 486 70" version="1.1" xmlns="http://www.w3.org/2000/svg" xmlns:xlink="http://www.w3.org/1999/xlink">
    <!-- Generator: Sketch 3.8.1 (29687) - http://www.bohemiancoding.com/sketch -->
    <title>logo-sharethrough-horizontal-mentha</title>
    <desc>Created with Sketch.</desc>
    <defs></defs>
    <g id="Page-1" stroke="none" stroke-width="1" fill="none" fill-rule="evenodd">
        <g id="logo-sharethrough-horizontal-mentha" fill="#4AD0A5">
            <path d="M98.781,52.423 C89.062,52.423 84.689,47.623 84.689,41.306 L85.175,40.879 L91.006,40.879 L91.492,41.306 C91.492,44.707 93.436,46.622 99.267,46.622 C103.64,46.622 106.069,45.149 106.069,42.233 C106.069,38.832 104.126,37.853 97.323,36.881 C90.52,35.909 85.175,33.476 85.175,26.673 C85.175,21.814 89.062,17.439 98.295,17.439 C107.527,17.439 111.414,21.773 111.414,27.604 L110.928,28.051 L105.097,28.051 L104.611,27.603 C104.611,24.688 103.154,23.249 97.809,23.249 C93.436,23.249 91.978,24.717 91.978,26.66 C91.978,29.576 93.922,30.552 100.724,31.524 C107.527,32.496 112.872,35.414 112.872,42.216 C112.872,47.561 108.985,52.423 98.781,52.423" id="Fill-1"></path>
            <polyline id="Fill-2" points="145.912 51.958 140.081 51.958 139.502 51.451 139.502 37.846 139.11 37.38 125.99 37.38 125.508 37.846 125.508 51.451 125.018 51.958 119.187 51.958 118.803 51.451 118.803 18.409 119.187 17.847 125.018 17.847 125.508 18.409 125.508 31.043 125.99 31.55 139.11 31.55 139.502 31.043 139.502 18.409 140.081 17.847 145.912 17.847 146.499 18.409 146.499 51.451 145.912 51.958"></polyline>
            <path d="M166.319,26.593 L165.833,26.593 L161.46,38.304 L161.946,38.838 L170.207,38.838 L170.693,38.304 L166.319,26.593 L166.319,26.593 Z M180.411,51.958 L176.038,51.958 L175.552,51.461 L173.122,45.15 L172.15,44.669 L160.003,44.669 L159.031,45.145 L156.601,51.467 L156.115,51.958 L151.742,51.958 L151.164,51.451 L151.164,46.592 L162.386,18.371 L162.918,17.847 L169.235,17.847 L169.723,18.371 L180.902,46.592 L180.902,51.451 L180.411,51.958 L180.411,51.958 Z" id="Fill-3"></path>
            <path d="M202.275,23.678 L193.043,23.678 L192.563,24.24 L192.563,32.015 L193.043,32.424 L202.275,32.424 C205.191,32.424 207.135,31.452 207.135,28.051 C207.135,24.65 205.191,23.678 202.275,23.678 L202.275,23.678 Z M206.558,37.846 L206.558,38.331 L212.971,46.592 L212.971,51.451 L212.48,51.958 L209.564,51.958 L208.592,51.461 L198.874,38.785 L197.902,38.255 L193.043,38.255 L192.563,38.817 L192.563,51.451 L192.072,51.958 L186.241,51.958 L185.858,51.451 L185.858,18.409 L186.241,17.847 L202.275,17.847 C209.078,17.847 213.892,21.287 213.892,28.089 C213.892,33.434 210.639,36.874 206.558,37.846 L206.558,37.846 Z" id="Fill-4"></path>
            <polyline id="Fill-5" points="243.091 51.958 220.253 51.958 219.677 51.451 219.677 18.409 220.253 17.847 243.091 17.847 243.584 18.409 243.584 23.268 243.091 23.678 227.056 23.678 226.674 24.24 226.674 31.043 227.056 31.55 242.119 31.55 242.709 32.015 242.709 36.874 242.119 37.38 227.056 37.38 226.674 37.846 226.674 45.62 227.056 46.127 243.091 46.127 243.584 46.592 243.584 51.451 243.091 51.958"></polyline>
            <polyline id="Fill-6" points="275.16 23.678 265.441 23.678 264.866 24.24 264.866 51.451 264.47 51.958 258.639 51.958 258.161 51.451 258.161 24.24 257.667 23.678 247.949 23.678 247.374 23.268 247.374 18.409 247.949 17.847 275.16 17.847 275.653 18.409 275.653 23.268 275.16 23.678"></polyline>
            <polyline id="Fill-7" points="307.714 51.958 301.883 51.958 301.309 51.451 301.309 37.846 300.912 37.38 287.792 37.38 287.315 37.846 287.315 51.451 286.82 51.958 280.989 51.958 280.61 51.451 280.61 18.409 280.989 17.847 286.82 17.847 287.315 18.409 287.315 31.043 287.792 31.55 300.912 31.55 301.309 31.043 301.309 18.409 301.883 17.847 307.714 17.847 308.306 18.409 308.306 51.451 307.714 51.958"></polyline>
            <path d="M332.495,23.678 L323.262,23.678 L322.884,24.24 L322.884,32.015 L323.262,32.424 L332.495,32.424 C335.41,32.424 337.354,31.452 337.354,28.051 C337.354,24.65 335.41,23.678 332.495,23.678 L332.495,23.678 Z M336.878,37.846 L336.878,38.331 L343.292,46.592 L343.292,51.451 L342.699,51.958 L339.783,51.958 L338.811,51.461 L329.093,38.785 L328.122,38.255 L323.262,38.255 L322.884,38.817 L322.884,51.451 L322.291,51.958 L316.46,51.958 L315.887,51.451 L315.887,18.409 L316.46,17.847 L332.495,17.847 C339.297,17.847 344.161,21.287 344.161,28.089 C344.161,33.434 340.668,36.874 336.878,37.846 L336.878,37.846 Z" id="Fill-8"></path>
            <path d="M364.564,23.268 C358.247,23.268 354.845,28.127 354.845,34.93 C354.845,41.733 358.247,46.592 364.564,46.592 C370.88,46.592 374.282,41.733 374.282,34.93 C374.282,28.127 370.88,23.268 364.564,23.268 L364.564,23.268 Z M364.564,52.423 C354.359,52.423 348.043,45.134 348.043,34.93 C348.043,24.726 354.359,17.438 364.564,17.438 C374.768,17.438 381.084,24.726 381.084,34.93 C381.084,45.134 374.768,52.423 364.564,52.423 L364.564,52.423 Z" id="Fill-9"></path>
            <path d="M414.137,38.817 C414.137,47.564 409.326,52.423 400.58,52.423 C391.834,52.423 387.023,47.564 387.023,38.817 L387.023,18.409 L387.4,17.847 L393.231,17.847 L393.729,18.409 L393.729,38.817 C393.729,43.677 395.721,46.592 400.58,46.592 C405.439,46.592 407.431,43.677 407.431,38.817 L407.431,18.409 L407.808,17.847 L413.639,17.847 L414.137,18.409 L414.137,38.817" id="Fill-10"></path>
            <path d="M450.567,51.958 L446.193,51.958 L445.707,51.472 L445.222,49.042 L444.736,49.042 C443.764,49.917 441.334,52.433 435.989,52.433 C426.271,52.433 419.955,45.139 419.955,34.935 C419.955,24.731 426.271,17.44 436.475,17.44 C446.193,17.44 450.081,22.746 451.053,27.605 L450.567,28.051 L444.736,28.051 L444.25,27.603 C443.278,25.66 441.82,23.249 436.475,23.249 C430.158,23.249 426.757,28.118 426.757,34.921 C426.757,41.723 430.158,46.587 436.475,46.587 C441.82,46.587 444.25,43.733 444.25,39.846 L443.764,39.421 L435.504,39.421 L435.128,38.817 L435.128,33.958 L435.504,33.59 L450.567,33.59 L451.163,33.958 L451.163,51.451 L450.567,51.958" id="Fill-11"></path>
            <polyline id="Fill-12" points="485.065 51.958 479.234 51.958 478.86 51.451 478.86 37.846 478.262 37.38 465.143 37.38 464.574 37.846 464.574 51.451 464.171 51.958 458.34 51.958 457.868 51.451 457.868 18.409 458.34 17.847 464.171 17.847 464.574 18.409 464.574 31.043 465.143 31.55 478.262 31.55 478.86 31.043 478.86 18.409 479.234 17.847 485.065 17.847 485.565 18.409 485.565 51.451 485.065 51.958"></polyline>
            <path d="M19.085,32.828 L22.928,35.05 L26.775,37.265 L26.781,37.268 L30.62,39.489 L34.459,37.268 L34.467,37.265 L38.31,35.05 L42.158,32.828 L46.003,35.05 L46.003,43.929 L45.995,43.931 L30.62,52.809 L15.247,43.931 L15.24,43.929 L19.085,41.705 L19.093,41.709 L30.62,48.366 L30.62,43.929 L22.936,39.491 L22.928,39.489 L19.085,37.265 L15.24,35.05 L15.24,26.167 L30.62,17.288 L46.003,26.169 L42.158,28.387 L38.31,30.609 L34.467,32.828 L30.62,35.05 L26.775,32.828 L22.928,30.609 L19.083,28.387 L15.24,26.167 L19.085,32.828 L19.085,32.828 Z M60.659,17.068 L31.203,0.096 L30.039,0.096 L0.584,17.068 L0,18.078 L0,52.018 L0.584,53.028 L30.039,70 L31.203,70 L60.659,53.028 L61.243,52.018 L61.243,18.078 L60.659,17.068 L60.659,17.068 Z" id="Fill-13"></path>
        </g>
    </g>
</svg>