<?xml version="1.0" encoding="UTF-8" standalone="no"?>
<svg width="62px" height="70px" viewBox="0 0 62 70" version="1.1" xmlns="http://www.w3.org/2000/svg" xmlns:xlink="http://www.w3.org/1999/xlink">
    <!-- Generator: Sketch 3.7.2 (28276) - http://www.bohemiancoding.com/sketch -->
    <title>Fill 25</title>
    <desc>Created with Sketch.</desc>
    <defs></defs>
    <g id="Page-2" stroke="none" stroke-width="1" fill="none" fill-rule="evenodd">
        <path d="M19.149,32.7798 L22.992,35.0018 L26.839,37.2168 L26.845,37.2208 L30.685,39.4408 L34.524,37.2208 L34.532,37.2168 L38.375,35.0018 L42.222,32.7798 L46.067,35.0018 L46.067,39.4408 L46.067,43.8818 L46.059,43.8838 L30.685,52.7608 L15.312,43.8838 L15.304,43.8818 L19.149,41.6568 L19.157,41.6608 L30.685,48.3178 L30.685,43.8818 L23,39.4428 L22.992,39.4408 L19.149,37.2168 L15.304,35.0018 L15.304,26.1208 L15.304,26.1188 L30.685,17.2398 L46.067,26.1208 L42.222,28.3388 L38.375,30.5608 L34.532,32.7798 L30.685,35.0018 L26.839,32.7798 L22.992,30.5608 L19.147,28.3388 L15.304,26.1188 L19.149,32.7798 Z M60.723,17.0198 L31.268,0.0478 L30.103,0.0478 L0.648,17.0198 L0.064,18.0298 L0.064,51.9698 L0.648,52.9798 L30.103,69.9518 L31.268,69.9518 L60.723,52.9798 L61.307,51.9698 L61.307,18.0298 L60.723,17.0198 Z" id="Fill-25" fill="#FFFFFF"></path>
    </g>
</svg>